<svg width="26" height="26" viewBox="0 0 26 26" fill="none" xmlns="http://www.w3.org/2000/svg">
<path d="M25.7123 13.748C25.8699 13.3665 25.8699 12.9382 25.7123 12.5567C25.6362 12.3676 25.5238 12.1952 25.3814 12.0494L14.3516 1.01953C14.059 0.727005 13.6623 0.562664 13.2486 0.562664C12.8349 0.562664 12.4381 0.727005 12.1456 1.01953C11.8531 1.31206 11.6887 1.70882 11.6887 2.12252C11.6887 2.53622 11.8531 2.93297 12.1456 3.2255L20.5172 11.5971L2.21875 11.5861C2.01284 11.5853 1.80879 11.6252 1.61839 11.7036C1.42798 11.782 1.25498 11.8974 1.10938 12.043C0.963771 12.1886 0.848436 12.3616 0.770024 12.552C0.691613 12.7424 0.651678 12.9464 0.652521 13.1523C0.651678 13.3583 0.691611 13.5623 0.770023 13.7527C0.848435 13.9431 0.963771 14.1161 1.10938 14.2617C1.25498 14.4073 1.42798 14.5227 1.61839 14.6011C1.80879 14.6795 2.01284 14.7194 2.21876 14.7186L20.5172 14.7075L12.1456 23.0792C11.8531 23.3717 11.6887 23.7685 11.6887 24.1822C11.6887 24.5959 11.8531 24.9926 12.1456 25.2852C12.4381 25.5777 12.8349 25.742 13.2486 25.742C13.6623 25.742 14.059 25.5777 14.3516 25.2852L25.3814 14.2553C25.5238 14.1094 25.6362 13.9371 25.7123 13.748Z" fill="white"/>
</svg>
