<svg width="62" height="62" viewBox="0 0 62 62" fill="none" xmlns="http://www.w3.org/2000/svg">
<path d="M54.7515 7.07049C32.3165 -13.7808 0.73598 15.8465 19.9641 39.5352L18.6444 40.9605C17.5781 40.4151 16.3675 40.2186 15.1835 40.3985C13.9995 40.5785 12.9019 41.1259 12.0459 41.9635L1.5542 52.442C0.537995 53.5132 -0.0195278 54.939 0.000522661 56.4153C0.0205731 57.8917 0.616611 59.3019 1.66153 60.3451C2.70645 61.3883 4.11757 61.982 5.59399 61.9996C7.07041 62.0172 8.49529 61.4573 9.5648 60.4394L20.0169 49.9609C20.8537 49.104 21.3986 48.0047 21.574 46.8198C21.7493 45.635 21.5462 44.425 20.9935 43.3624L22.3132 41.9635C46.0283 61.1256 75.5765 29.4395 54.7515 7.07049ZM50.5812 33.1083C50.5812 33.5458 50.4074 33.9654 50.0981 34.2747C49.7887 34.5841 49.3691 34.7579 48.9316 34.7579H26.8134C26.3759 34.7579 25.9563 34.5841 25.6469 34.2747C25.3375 33.9654 25.1637 33.5458 25.1637 33.1083V14.9095C25.1774 14.4812 25.3573 14.0751 25.6652 13.7771C25.9731 13.479 26.3848 13.3125 26.8134 13.3127H48.9316C49.3691 13.3127 49.7887 13.4865 50.0981 13.7959C50.4074 14.1052 50.5812 14.5248 50.5812 14.9623V33.1083Z" fill="#DDE9FF"/>
<path d="M28.4629 31.4057H47.2819V23.1576H28.4629V31.4057ZM42.8345 25.533C43.2019 25.4993 43.5708 25.5796 43.891 25.7631C44.2111 25.9466 44.4669 26.2243 44.6235 26.5583C44.7802 26.8924 44.8301 27.2666 44.7664 27.6301C44.7027 27.9935 44.5285 28.3285 44.2676 28.5894C44.0067 28.8503 43.6717 29.0245 43.3083 29.0882C42.9449 29.1519 42.5706 29.102 42.2365 28.9453C41.9025 28.7887 41.6248 28.5329 41.4413 28.2127C41.2578 27.8926 41.1775 27.5237 41.2112 27.1563C41.252 26.7396 41.4362 26.35 41.7322 26.054C42.0282 25.7579 42.4178 25.5738 42.8345 25.533ZM37.8856 25.533C38.253 25.4993 38.6219 25.5796 38.9421 25.7631C39.2622 25.9466 39.518 26.2243 39.6746 26.5583C39.8313 26.8924 39.8812 27.2666 39.8175 27.6301C39.7538 27.9935 39.5797 28.3285 39.3187 28.5894C39.0578 28.8503 38.7229 29.0245 38.3594 29.0882C37.996 29.1519 37.6217 29.102 37.2877 28.9453C36.9536 28.7887 36.6759 28.5329 36.4924 28.2127C36.309 27.8926 36.2286 27.5237 36.2624 27.1563C36.3031 26.7396 36.4873 26.35 36.7833 26.054C37.0793 25.7579 37.4689 25.5738 37.8856 25.533ZM32.9367 25.533C33.4098 25.583 33.8441 25.8175 34.1455 26.1856C34.4469 26.5537 34.591 27.0257 34.5467 27.4994C34.5173 27.9205 34.3393 28.3175 34.0445 28.6197C33.7496 28.9218 33.357 29.1094 32.9367 29.149C32.489 29.1105 32.0719 28.9055 31.7681 28.5744C31.4642 28.2433 31.2957 27.8102 31.2957 27.3608C31.2957 26.9114 31.4642 26.4784 31.7681 26.1473C32.0719 25.8162 32.489 25.6111 32.9367 25.5726V25.533ZM28.4629 16.6118H47.2819V19.9111H28.4629V16.6118Z" fill="#DDE9FF"/>
</svg>
