<svg width="62" height="61" viewBox="0 0 62 61" fill="none" xmlns="http://www.w3.org/2000/svg">
<path d="M61.4019 7.63346C61.4019 5.70451 60.6356 3.85457 59.2717 2.4906C57.9077 1.12662 56.0577 0.360352 54.1288 0.360352H8.16276C6.23381 0.360352 4.38386 1.12662 3.01989 2.4906C1.65591 3.85457 0.889648 5.70451 0.889648 7.63346V38.6411C0.894119 39.1554 0.955087 39.6676 1.07147 40.1685V40.3261C1.07147 40.3261 1.07147 40.4231 1.07147 40.4715C1.47583 42.0266 2.38376 43.404 3.65348 44.3886C4.92321 45.3733 6.48326 45.9097 8.09003 45.9142H22.8181L11.5205 57.2118C11.3418 57.3783 11.1986 57.579 11.0992 57.802C10.9998 58.0251 10.9464 58.2659 10.9421 58.51C10.9378 58.7541 10.9827 58.9967 11.0741 59.2231C11.1656 59.4495 11.3017 59.6551 11.4743 59.8278C11.647 60.0005 11.8527 60.1366 12.0791 60.228C12.3055 60.3195 12.548 60.3644 12.7921 60.3601C13.0363 60.3558 13.2771 60.3023 13.5001 60.2029C13.7231 60.1036 13.9239 59.9603 14.0903 59.7816L27.4244 46.4476C27.5578 46.3109 27.6647 46.1506 27.7395 45.9749H29.3033V58.4967C29.3033 58.979 29.4948 59.4414 29.8358 59.7824C30.1768 60.1234 30.6393 60.315 31.1215 60.315C31.6038 60.315 32.0662 60.1234 32.4072 59.7824C32.7482 59.4414 32.9398 58.979 32.9398 58.4967V45.9142H34.5156C34.5858 46.0925 34.6933 46.2536 34.8308 46.387L48.1648 59.721C48.3336 59.8906 48.5341 60.0252 48.7548 60.1173C48.9756 60.2093 49.2123 60.257 49.4515 60.2575C49.6907 60.2581 49.9277 60.2116 50.1489 60.1205C50.3701 60.0295 50.5712 59.8958 50.7407 59.7271C50.9103 59.5584 51.0449 59.3579 51.137 59.1371C51.229 58.9163 51.2767 58.6796 51.2772 58.4404C51.2778 58.2012 51.2313 57.9642 51.1402 57.743C51.0492 57.5218 50.9155 57.3207 50.7468 57.1512L39.4492 45.8536H54.0561C55.6628 45.8491 57.2229 45.3126 58.4926 44.328C59.7623 43.3434 60.6702 41.966 61.0746 40.4109V40.2655V40.1079C61.191 39.607 61.252 39.0948 61.2564 38.5805L61.4019 7.63346ZM22.4423 17.3309L31.1943 26.095L52.1044 9.60932L55.0985 13.4156L30.8549 32.556L21.9817 23.6707L10.1386 32.4832L7.24148 28.5921L22.4423 17.3309Z" fill="#DDE9FF"/>
</svg>
