<svg width="64" height="60" viewBox="0 0 64 60" fill="none" xmlns="http://www.w3.org/2000/svg">
<path d="M55.7714 0H7.61905C5.59835 0 3.66042 0.802718 2.23157 2.23157C0.802719 3.66042 0 5.59835 0 7.61905L0 40.1397C0 42.1604 0.802719 44.0983 2.23157 45.5272C3.66042 46.956 5.59835 47.7587 7.61905 47.7587H9.93016L9.84127 60L27.5556 47.7587H55.7714C57.7921 47.7587 59.7301 46.956 61.1589 45.5272C62.5878 44.0983 63.3905 42.1604 63.3905 40.1397V7.61905C63.3905 5.59835 62.5878 3.66042 61.1589 2.23157C59.7301 0.802718 57.7921 0 55.7714 0ZM41.054 37.1937H12.1651V32.4317H41.054V37.1937ZM51.2127 26.2476H12.1651V21.4857H51.2127V26.2476ZM51.2127 15.2889H12.1651V10.527H51.2127V15.2889Z" fill="#DDE9FF"/>
</svg>
