<svg width="49" height="60" viewBox="0 0 49 60" fill="none" xmlns="http://www.w3.org/2000/svg">
<path fill-rule="evenodd" clip-rule="evenodd" d="M33.1198 30.0047H15.6226C14.7939 30.0047 13.9991 30.3339 13.4132 30.9198C12.8272 31.5058 12.498 32.3005 12.498 33.1292C12.498 33.9579 12.8272 34.7526 13.4132 35.3386C13.9991 35.9245 14.7939 36.2537 15.6226 36.2537H33.1198C33.9485 36.2537 34.7432 35.9245 35.3292 35.3386C35.9151 34.7526 36.2443 33.9579 36.2443 33.1292C36.2443 32.3005 35.9151 31.5058 35.3292 30.9198C34.7432 30.3339 33.9485 30.0047 33.1198 30.0047ZM33.1198 41.2529H15.6226C14.7939 41.2529 13.9991 41.5821 13.4132 42.1681C12.8272 42.754 12.498 43.5488 12.498 44.3774C12.498 45.2061 12.8272 46.0009 13.4132 46.5868C13.9991 47.1728 14.7939 47.502 15.6226 47.502H33.1198C33.9485 47.502 34.7432 47.1728 35.3292 46.5868C35.9151 46.0009 36.2443 45.2061 36.2443 44.3774C36.2443 43.5488 35.9151 42.754 35.3292 42.1681C34.7432 41.5821 33.9485 41.2529 33.1198 41.2529ZM0 55.0008C0 56.3267 0.526707 57.5982 1.46424 58.5358C2.40178 59.4733 3.67334 60 4.99922 60H43.7431C45.069 60 46.3406 59.4733 47.2781 58.5358C48.2157 57.5982 48.7424 56.3267 48.7424 55.0008V12.5074C48.7424 11.1816 48.2157 9.90999 47.2781 8.97246C46.3406 8.03492 45.069 7.50822 43.7431 7.50822H33.5572C33.127 5.38926 31.9774 3.48421 30.3032 2.11586C28.6291 0.747505 26.5334 0 24.3712 0C22.209 0 20.1133 0.747505 18.4391 2.11586C16.765 3.48421 15.6154 5.38926 15.1851 7.50822H4.99922C3.67334 7.50822 2.40178 8.03492 1.46424 8.97246C0.526707 9.90999 0 11.1816 0 12.5074V55.0008ZM8.9986 13.7572H14.9977V16.0069C14.996 16.3684 15.066 16.7267 15.2036 17.0611C15.3412 17.3954 15.5436 17.6992 15.7993 17.9548C16.055 18.2105 16.3587 18.4129 16.6931 18.5505C17.0274 18.6881 17.3857 18.7581 17.7472 18.7565H30.9951C31.3567 18.7581 31.715 18.6881 32.0493 18.5505C32.3837 18.4129 32.6874 18.2105 32.9431 17.9548C33.1987 17.6992 33.4012 17.3954 33.5388 17.0611C33.6764 16.7267 33.7464 16.3684 33.7447 16.0069V13.7572H39.7438C40.1053 13.7556 40.4636 13.8256 40.7979 13.9632C41.1323 14.1008 41.4361 14.3032 41.6917 14.5589C41.9474 14.8145 42.1498 15.1183 42.2874 15.4526C42.425 15.787 42.495 16.1453 42.4933 16.5068V51.0014C42.495 51.363 42.425 51.7212 42.2874 52.0556C42.1498 52.3899 41.9474 52.6937 41.6917 52.9493C41.4361 53.205 41.1323 53.4075 40.7979 53.5451C40.4636 53.6826 40.1053 53.7526 39.7438 53.751H8.9986C8.63705 53.7526 8.27877 53.6826 7.94443 53.5451C7.61009 53.4075 7.30632 53.205 7.05067 52.9493C6.79502 52.6937 6.59255 52.3899 6.45495 52.0556C6.31736 51.7212 6.24737 51.363 6.24902 51.0014V16.5068C6.24737 16.1453 6.31736 15.787 6.45495 15.4526C6.59255 15.1183 6.79502 14.8145 7.05067 14.5589C7.30632 14.3032 7.61009 14.1008 7.94443 13.9632C8.27877 13.8256 8.63705 13.7556 8.9986 13.7572ZM21.2467 9.38293C21.2467 8.76496 21.4299 8.16087 21.7732 7.64704C22.1166 7.13322 22.6046 6.73274 23.1755 6.49626C23.7464 6.25977 24.3746 6.19789 24.9807 6.31845C25.5868 6.43901 26.1436 6.7366 26.5805 7.17357C27.0175 7.61054 27.3151 8.16727 27.4357 8.77337C27.5562 9.37946 27.4943 10.0077 27.2579 10.5786C27.0214 11.1496 26.6209 11.6375 26.1071 11.9809C25.5932 12.3242 24.9892 12.5074 24.3712 12.5074C23.5425 12.5074 22.7478 12.1783 22.1618 11.5923C21.5759 11.0063 21.2467 10.2116 21.2467 9.38293Z" fill="#DDE9FF"/>
</svg>
