<svg width="20" height="21" viewBox="0 0 20 21" fill="none" xmlns="http://www.w3.org/2000/svg">
<path d="M10 0.609619C4.5 0.609619 0 5.10962 0 10.6096C0 16.1096 4.5 20.6096 10 20.6096C15.5 20.6096 20 16.1096 20 10.6096C20 5.10962 15.5 0.609619 10 0.609619ZM11 10.6096C11 11.0096 10.8 11.3096 10.5 11.5096L7.9 13.0096C7.4 13.3096 6.8 13.1096 6.5 12.6096C6.2 12.1096 6.4 11.5096 6.9 11.2096L9 10.0096V5.60962C9 5.00962 9.4 4.60962 10 4.60962C10.6 4.60962 11 5.00962 11 5.60962V10.6096Z" fill="#232323"/>
</svg>
