<svg width="16" height="21" viewBox="0 0 16 21" fill="none" xmlns="http://www.w3.org/2000/svg">
<path d="M8 0.609619C5.879 0.612001 3.84555 1.45562 2.34578 2.9554C0.846002 4.45517 0.00238211 6.48862 0 8.60962C0 11.8646 2.363 14.5676 4.866 17.4286C5.658 18.3346 6.478 19.2716 7.208 20.2196C7.30142 20.3408 7.4214 20.4389 7.55871 20.5065C7.69602 20.574 7.84699 20.6091 8 20.6091C8.15301 20.6091 8.30398 20.574 8.44129 20.5065C8.5786 20.4389 8.69858 20.3408 8.792 20.2196C9.522 19.2716 10.342 18.3346 11.134 17.4286C13.637 14.5676 16 11.8646 16 8.60962C15.9976 6.48862 15.154 4.45517 13.6542 2.9554C12.1544 1.45562 10.121 0.612001 8 0.609619ZM8 11.6096C7.40666 11.6096 6.82664 11.4337 6.33329 11.104C5.83994 10.7744 5.45542 10.3058 5.22836 9.75767C5.0013 9.20949 4.94189 8.60629 5.05764 8.02435C5.1734 7.44241 5.45912 6.90786 5.87868 6.4883C6.29824 6.06874 6.83279 5.78302 7.41473 5.66726C7.99667 5.55151 8.59987 5.61092 9.14805 5.83798C9.69623 6.06504 10.1648 6.44956 10.4944 6.94291C10.8241 7.43626 11 8.01628 11 8.60962C11 9.40527 10.6839 10.1683 10.1213 10.7309C9.55871 11.2935 8.79565 11.6096 8 11.6096Z" fill="#232323"/>
</svg>
