<svg width="17" height="15" viewBox="0 0 17 15" fill="none" xmlns="http://www.w3.org/2000/svg">
<path fill-rule="evenodd" clip-rule="evenodd" d="M0 13.6361C0 13.9978 0.143661 14.3446 0.399378 14.6003C0.655096 14.856 1.00192 14.9997 1.36356 14.9997H13.6356C13.9973 14.9997 14.3441 14.856 14.5998 14.6003C14.8555 14.3446 14.9992 13.9978 14.9992 13.6361V11.5908H15.6128C15.7114 11.5912 15.8091 11.5721 15.9003 11.5346C15.9915 11.4971 16.0744 11.4419 16.1441 11.3721C16.2138 11.3024 16.2691 11.2195 16.3066 11.1283C16.3441 11.0372 16.3632 10.9394 16.3628 10.8408V7.22737C16.3632 7.12876 16.3441 7.03104 16.3066 6.93984C16.2691 6.84865 16.2138 6.76579 16.1441 6.69606C16.0744 6.62633 15.9915 6.57111 15.9003 6.53358C15.8091 6.49605 15.7114 6.47696 15.6128 6.47741H14.9992V4.43207C14.9992 4.07043 14.8555 3.7236 14.5998 3.46788C14.3441 3.21217 13.9973 3.06851 13.6356 3.06851H2.38624C2.20542 3.06851 2.032 2.99667 1.90414 2.86882C1.77628 2.74096 1.70445 2.56754 1.70445 2.38672C1.70445 2.2059 1.77628 2.03249 1.90414 1.90463C2.032 1.77677 2.20542 1.70494 2.38624 1.70494H12.4425C12.6685 1.70494 12.8853 1.61515 13.0451 1.45533C13.205 1.29551 13.2947 1.07874 13.2947 0.852715C13.2947 0.626691 13.205 0.409923 13.0451 0.2501C12.8853 0.0902762 12.6685 0.000488281 12.4425 0.000488281L1.36356 0.000488281C1.00192 0.000488281 0.655096 0.144149 0.399378 0.399867C0.143661 0.655584 0 1.00241 0 1.36405L0 13.6361ZM11.5903 9.03409C11.5903 8.86554 11.6403 8.70077 11.7339 8.56062C11.8276 8.42047 11.9607 8.31124 12.1164 8.24674C12.2721 8.18224 12.4435 8.16536 12.6088 8.19824C12.7741 8.23112 12.9259 8.31229 13.0451 8.43148C13.1643 8.55066 13.2455 8.70252 13.2784 8.86783C13.3112 9.03315 13.2944 9.2045 13.2299 9.36023C13.1654 9.51595 13.0561 9.64905 12.916 9.74269C12.7758 9.83634 12.6111 9.88632 12.4425 9.88632C12.2165 9.88632 11.9997 9.79653 11.8399 9.63671C11.6801 9.47689 11.5903 9.26012 11.5903 9.03409Z" fill="#616161"/>
</svg>
