<svg width="32" height="32" viewBox="0 0 32 32" fill="none" xmlns="http://www.w3.org/2000/svg">
<path fill-rule="evenodd" clip-rule="evenodd" d="M22.358 4.31956C21.932 4.37137 21.2486 5.92525 21.2486 6.84219C21.2486 7.19325 21.2552 7.18987 20.9482 6.99606C19.8997 6.33419 19.2933 6.28937 19.1493 6.86306C19.0708 7.17575 19.23 7.38394 19.7455 7.64312C27.8477 11.7168 25.0108 23.9334 15.9673 23.9134C7.00078 23.8936 4.20146 11.8701 12.1927 7.70062C12.8144 7.37625 12.9711 7.0525 12.6834 6.68669C12.4181 6.34944 11.9462 6.45269 10.9875 7.05794C10.8575 7.14 10.7405 7.20719 10.7275 7.20719C10.7145 7.20719 10.6878 6.98925 10.6682 6.72281C10.602 5.82581 10.0542 4.58875 9.64796 4.41906C9.33484 4.28819 9.1634 4.36331 8.75297 4.81125C7.6224 6.04506 7.35109 7.70969 8.03028 9.24537L8.1809 9.586L7.94515 9.95069L7.70947 10.3154L7.52928 9.97137C7.31559 9.56325 6.60546 8.8185 6.1244 8.49806C5.22878 7.9015 4.7474 8.50281 4.73115 10.2384C4.72015 11.4092 5.05515 12.2044 5.92203 13.0652L6.43984 13.5794L6.39809 13.9871C6.35021 14.4543 6.36496 14.4414 6.10378 14.2453C5.53509 13.8184 4.48184 13.4572 3.80565 13.4572C3.18253 13.4572 3.05671 13.8004 3.31103 14.8066C3.70159 16.3517 4.77778 17.4351 6.26209 17.7772L6.61934 17.8596L6.74334 18.2657C6.89115 18.75 6.91778 18.7101 6.49859 18.6322C5.77228 18.4972 4.26246 18.7501 3.95409 19.0585C3.42584 19.5868 4.65103 21.1029 6.05196 21.6545C6.43259 21.8044 7.7519 21.8592 8.38121 21.7514L8.67003 21.7019L8.93372 22.0169C9.11215 22.2299 9.17028 22.3399 9.11359 22.3568C7.42284 22.8623 6.2899 23.9976 6.93478 24.5402C8.16396 25.5745 10.2577 25.5782 11.7303 24.5488L12.1381 24.2637L12.4902 24.405C12.6839 24.4826 12.8537 24.5539 12.8674 24.5632C12.8812 24.5726 12.7485 24.722 12.5725 24.8953C11.6882 25.7657 11.1695 27.0127 11.5383 27.3815C12.2946 28.1378 14.804 27.3671 15.7703 26.0817L16.0511 25.7081L16.277 26.0159C17.0654 27.0898 18.2753 27.6331 19.7396 27.5704C20.4157 27.5415 20.5897 27.4679 20.6883 27.1692C20.8213 26.7662 20.3251 25.7442 19.646 25.0223L19.191 24.5387L19.5822 24.3836L19.9733 24.2284L20.2515 24.4454C21.6395 25.5274 24.283 25.4937 25.2185 24.3819C25.6604 23.8567 24.5872 22.7723 23.2486 22.3912C22.8542 22.2789 22.853 22.2734 23.1498 21.9334L23.4161 21.6284L23.8218 21.699C25.2482 21.9474 26.4152 21.6016 27.377 20.6454C28.6642 19.3658 28.5488 18.8538 26.9112 18.5766C26.4892 18.5052 25.4437 18.5265 25.2395 18.6107C25.1487 18.6481 25.1523 18.6021 25.27 18.2214L25.4035 17.7897L25.8298 17.6799C27.2765 17.3072 28.2984 16.2543 28.6866 14.7364C28.9663 13.6426 28.8052 13.2857 28.0629 13.3547C27.3363 13.4222 26.5215 13.7227 25.8892 14.1561L25.6236 14.3382L25.6162 14.1008C25.6122 13.9702 25.591 13.7836 25.5693 13.686C25.5338 13.5263 25.586 13.4515 26.0935 12.936C27.088 11.9257 27.4307 10.8202 27.1829 9.42181C26.9273 7.97956 26.5632 7.81981 25.4913 8.67981C25.0782 9.01125 24.5695 9.62044 24.3854 10.0041C24.2612 10.2631 24.2577 10.2619 24.0063 9.87544L23.7954 9.55094L23.9025 9.26969C24.5267 7.63006 24.4004 6.41137 23.4725 5.12012C22.9912 4.45031 22.7439 4.27269 22.358 4.31956ZM15.6778 10.8513C15.6217 10.8941 15.264 11.5519 14.8831 12.3132C14.4402 13.1982 14.1502 13.7084 14.0789 13.7279C14.0175 13.7448 13.3205 13.8512 12.5298 13.9644C10.8838 14.2001 10.8112 14.2321 10.811 14.72C10.811 14.986 10.8212 14.9983 11.9401 16.0822L13.0692 17.1759L12.8152 18.6447C12.5175 20.3662 12.519 20.3389 12.7058 20.556C12.9692 20.8621 13.1796 20.8044 14.6804 20.0144L16.0185 19.3101L16.2117 19.4211C17.2642 20.026 18.842 20.7757 18.9896 20.7412C19.4942 20.623 19.5084 20.4692 19.187 18.6134L18.938 17.1759L20.0573 16.0969C21.7882 14.4281 21.7448 14.2785 19.4361 13.9576C18.6627 13.8501 17.9816 13.7427 17.9226 13.719C17.8628 13.6951 17.5114 13.0612 17.13 12.2898C16.7227 11.4657 16.394 10.8766 16.3195 10.8367C16.1522 10.7471 15.8043 10.7551 15.6778 10.8513Z" fill="#232323"/>
</svg>
