<svg width="16" height="15" viewBox="0 0 16 15" fill="none" xmlns="http://www.w3.org/2000/svg">
<path d="M8 0C6.51664 0 5.06659 0.439867 3.83323 1.26398C2.59986 2.08809 1.63856 3.25943 1.07091 4.62987C0.50325 6.00032 0.354725 7.50832 0.644114 8.96318C0.933503 10.418 1.64781 11.7544 2.6967 12.8033C3.7456 13.8522 5.08197 14.5665 6.53683 14.8559C7.99168 15.1453 9.49968 14.9968 10.8701 14.4291C12.2406 13.8614 13.4119 12.9001 14.236 11.6668C15.0601 10.4334 15.5 8.98336 15.5 7.5C15.5 5.51088 14.7098 3.60322 13.3033 2.1967C11.8968 0.790176 9.98913 0 8 0ZM10.7273 8.18182H8C7.81917 8.18182 7.64575 8.10998 7.51788 7.98212C7.39002 7.85425 7.31818 7.68083 7.31818 7.5V3.40909C7.31818 3.22826 7.39002 3.05484 7.51788 2.92697C7.64575 2.79911 7.81917 2.72727 8 2.72727C8.18083 2.72727 8.35425 2.79911 8.48212 2.92697C8.60999 3.05484 8.68182 3.22826 8.68182 3.40909V6.81818H10.7273C10.9081 6.81818 11.0815 6.89002 11.2094 7.01788C11.3373 7.14575 11.4091 7.31917 11.4091 7.5C11.4091 7.68083 11.3373 7.85425 11.2094 7.98212C11.0815 8.10998 10.9081 8.18182 10.7273 8.18182Z" fill="#616161"/>
</svg>
