<svg width="126" height="41" viewBox="0 0 126 41" fill="none" xmlns="http://www.w3.org/2000/svg">
<path d="M19.0257 18.3352C17.3555 20.1429 14.982 21.1795 12.509 21.1795C7.63875 21.1795 3.67715 17.2543 3.67715 12.4284C3.67715 7.6024 7.63875 3.67558 12.509 3.67558C14.9694 3.67558 17.3366 4.70429 19.0037 6.49783C19.6973 7.24527 20.8604 7.28161 21.603 6.59265C22.3458 5.90052 22.3884 4.73748 21.6979 3.9932C19.3354 1.45537 15.987 0 12.509 0C5.61134 0 0 5.57657 0 12.4299C0 19.2834 5.61134 24.8584 12.509 24.8584C16.0028 24.8584 19.3624 23.3903 21.7279 20.8304C22.4169 20.0845 22.3695 18.9215 21.6236 18.2325C20.8793 17.5436 19.7132 17.5862 19.0257 18.3352Z" fill="#9CE047"/>
<path d="M106.507 7.06055C105.491 7.06055 104.668 7.88384 104.668 8.89992V23.0207C104.668 24.0367 105.491 24.86 106.507 24.86C107.523 24.86 108.347 24.0367 108.347 23.0207V8.89833C108.345 7.88384 107.522 7.06055 106.507 7.06055Z" fill="#363636"/>
<path d="M105.202 1.41606C104.87 1.76528 104.669 2.22511 104.669 2.7213C104.669 3.21749 104.871 3.67733 105.202 4.02656C105.551 4.3584 106.028 4.55909 106.507 4.55909C106.984 4.55909 107.463 4.35683 107.812 4.02656C108.142 3.67733 108.344 3.19852 108.344 2.7213C108.344 2.2425 108.142 1.76528 107.812 1.41606C107.112 0.736559 105.881 0.736559 105.202 1.41606Z" fill="#363636"/>
<path d="M125.409 19.3783C124.663 18.6909 123.5 18.7335 122.811 19.4826C121.814 20.5619 120.395 21.1813 118.917 21.1813C116.008 21.1813 113.642 18.8395 113.642 15.9603C113.642 13.0795 116.009 10.7377 118.917 10.7377C120.409 10.7377 121.787 11.3366 122.798 12.4254C123.492 13.1713 124.653 13.2123 125.397 12.5202C126.14 11.828 126.183 10.665 125.492 9.92073C123.802 8.10348 121.406 7.06055 118.919 7.06055C113.982 7.06055 109.967 11.0537 109.967 15.9603C109.967 20.8668 113.982 24.8585 118.919 24.8585C121.419 24.8585 123.822 23.8077 125.514 21.9761C126.2 21.2303 126.155 20.0672 125.409 19.3783Z" fill="#363636"/>
<path d="M103.05 8.89833C103.05 7.88224 102.226 7.05896 101.21 7.05896H94.5908C94.5576 7.05896 94.5308 7.07634 94.4992 7.07792C93.924 7.05737 93.3408 7.07634 92.7546 7.16641C88.9778 7.74476 85.936 10.7867 85.3576 14.5634C84.9199 17.4236 85.8301 20.2253 87.8575 22.2512C88.3379 22.7315 88.8704 23.1313 89.4283 23.4837C89.0095 24.1569 88.7804 24.9106 88.7804 25.6675C88.7804 26.347 88.9715 27.0203 89.3097 27.6397C86.8715 28.9133 85.2501 31.1098 85.2501 33.6113C85.2501 37.5444 89.2418 40.7444 94.1484 40.7444C99.0549 40.7444 103.048 37.5444 103.048 33.6113C103.048 29.6766 99.0549 26.4766 94.1484 26.4766C93.1843 26.4766 92.4575 26.1289 92.4575 25.6675C92.4575 25.2078 93.1797 24.8616 94.1388 24.86C94.6035 24.86 95.0727 24.8253 95.5437 24.7526C99.3204 24.1742 102.362 21.1323 102.941 17.3556C103.307 14.9601 102.716 12.6087 101.324 10.7156C102.285 10.6524 103.05 9.87332 103.05 8.89833ZM94.1499 30.1537C96.9801 30.1537 99.3726 31.7372 99.3726 33.6113C99.3726 35.4854 96.9801 37.0672 94.1499 37.0672C91.3198 37.0672 88.9288 35.4838 88.9288 33.6113C88.9288 31.7387 91.3198 30.1537 94.1499 30.1537ZM99.3077 16.7978C98.9743 18.969 97.1586 20.7847 94.989 21.1181C93.2966 21.3757 91.6484 20.8431 90.4585 19.6533C89.2687 18.4634 88.7345 16.812 88.9937 15.1227C89.3271 12.9531 91.1428 11.1359 93.3124 10.8041C93.5921 10.7614 93.8702 10.7408 94.1467 10.7408C95.5358 10.7408 96.8504 11.2765 97.8428 12.2705C99.0328 13.4573 99.5669 15.107 99.3077 16.7978Z" fill="#363636"/>
<path d="M81.0277 9.66788C79.0019 7.64205 76.1986 6.72553 73.3416 7.16798C69.5649 7.74634 66.523 10.7883 65.9445 14.5649C65.5068 17.4251 66.417 20.2269 68.4445 22.2527C70.1369 23.9466 72.3698 24.86 74.7273 24.86C75.192 24.86 75.6613 24.8252 76.1322 24.7526C77.5512 24.536 78.8659 23.9704 79.9848 23.1487C80.0544 24.1016 80.827 24.8585 81.7973 24.8585C82.8134 24.8585 83.6367 24.0352 83.6367 23.0191V16.2368C83.6367 16.2226 83.6287 16.21 83.6287 16.1957C83.6935 13.7511 82.7801 11.4188 81.0277 9.66788ZM79.8931 16.7978C79.5597 18.969 77.744 20.7863 75.5744 21.1181C73.8835 21.3757 72.2354 20.8431 71.044 19.6532C69.854 18.4634 69.3199 16.812 69.5791 15.1227C69.9125 12.9531 71.7282 11.1359 73.8978 10.8041C75.5918 10.5496 77.2384 11.079 78.4282 12.2689C79.6181 13.4573 80.1523 15.107 79.8931 16.7978Z" fill="#363636"/>
<path d="M62.7411 0.0365318C61.8816 -0.135712 61.0204 0.322551 60.6838 1.13162L53.5554 18.239L46.4255 1.13162C46.0905 0.322551 45.2308 -0.137292 44.3681 0.0365318C43.5084 0.208775 42.8906 0.962536 42.8906 1.83956V23.0208C42.8906 24.0368 43.7139 24.8601 44.73 24.8601C45.746 24.8601 46.5693 24.0368 46.5693 23.0208V11.0316L51.8598 23.7287C52.1458 24.4128 52.8142 24.8601 53.557 24.8601C54.2997 24.8601 54.9681 24.4145 55.2541 23.7287L60.5431 11.0332V23.0208C60.5431 24.0368 61.3663 24.8601 62.3825 24.8601C63.3986 24.8601 64.2219 24.0368 64.2219 23.0208V1.83797C64.2187 0.962536 63.6008 0.207195 62.7411 0.0365318Z" fill="#363636"/>
<path d="M38.1124 10.01C36.0618 7.95931 33.2256 7.03154 30.332 7.48102C26.509 8.06648 23.4298 11.1457 22.8443 14.9688C22.4012 17.864 23.3226 20.7001 25.3748 22.7508C27.0881 24.4655 29.3482 25.3901 31.7349 25.3901C32.2052 25.3901 32.6802 25.355 33.157 25.2814C36.9799 24.6975 40.0592 21.6167 40.6446 17.7936C41.0878 14.8967 40.1632 12.0607 38.1124 10.01ZM36.9656 17.2273C36.628 19.4252 34.7885 21.2648 32.5922 21.6007C30.8823 21.8614 29.2123 21.3223 28.0062 20.1178C26.8017 18.9133 26.261 17.2417 26.5233 15.5318C26.8609 13.3356 28.6988 11.496 30.8951 11.1601C32.6115 10.9026 34.2751 11.4384 35.4812 12.643C36.6856 13.8458 37.2263 15.5174 36.9656 17.2273Z" fill="#9CE047"/>
</svg>
