<svg width="122" height="28" viewBox="0 0 122 28" fill="none" xmlns="http://www.w3.org/2000/svg">
<path fill-rule="evenodd" clip-rule="evenodd" d="M8.21852 13.6983C11.1121 13.6983 12.9643 13.2117 14.3151 12.1256C15.5109 11.1519 16.0895 9.84151 16.0895 8.23134C16.0895 6.24646 15.2027 4.8986 13.8138 3.99983C12.3085 3.02612 10.4569 2.76439 7.33162 2.76439H2.35476L2.35417 13.6983H8.21852ZM0.000594038 0.666504L7.48547 0.66708C10.7266 0.66708 13.2346 1.04181 15.2027 2.27783C17.0929 3.4758 18.4431 5.42263 18.4431 8.11893C18.4437 10.5904 17.2859 12.6122 15.5109 13.8476C14.2379 14.7469 12.7332 15.196 10.9968 15.4583L20.3333 27.7771L17.4784 27.7776L8.37237 15.6451H2.35418L2.35358 27.7771H0L0.000594038 0.666504Z" fill="#1B2A30"/>
<path fill-rule="evenodd" clip-rule="evenodd" d="M47.4447 9.13873H49.1388L49.1384 27.7776H47.4443L47.4447 9.13873Z" fill="#1B2A30"/>
<path fill-rule="evenodd" clip-rule="evenodd" d="M56.3824 23.9337C58.4394 25.1664 61.0779 25.8197 63.5996 25.8197C66.8205 25.8197 68.8776 24.7679 68.8781 22.6284C68.8776 19.9452 65.6956 19.6549 62.7082 19.2195C59.5262 18.7483 55.917 17.8779 55.917 14.2516C55.9175 10.879 58.9826 9.13873 63.329 9.13873C65.812 9.13873 68.3351 9.7188 70.1979 10.6618L70.1974 12.9101C68.1798 11.7136 65.6184 11.0973 63.2519 11.0973C60.2634 11.0973 58.2071 12.076 58.2064 14.1071C58.2071 16.6088 61.3114 16.8628 64.1822 17.2984C67.636 17.8057 71.167 18.6756 71.167 22.4469C71.167 25.9648 68.1014 27.7776 63.4837 27.7776C60.9613 27.7776 58.3223 27.2332 56.3824 26.2183V23.9337Z" fill="#1B2A30"/>
<path fill-rule="evenodd" clip-rule="evenodd" d="M78.234 21.2544L78.2345 11.3433H74.5557L74.5562 9.44808H78.2345V4.41954L80.4489 4.05542V9.44865H86.4168V11.3433H80.4489V20.8903C80.4489 23.5867 80.861 25.8095 83.7892 25.8101C84.7646 25.8095 85.7031 25.5548 86.4168 25.1537L86.4162 27.1948C85.7031 27.5224 84.615 27.7776 83.4886 27.7776C82.1376 27.7776 80.5986 27.413 79.5475 26.2465C78.6089 25.1902 78.234 23.5867 78.234 21.2544Z" fill="#1B2A30"/>
<path fill-rule="evenodd" clip-rule="evenodd" d="M101.612 23.76V19.7431C100.227 19.3453 98.6244 19.0918 97.1662 19.0918C94.6159 19.0918 91.9919 19.8875 91.9926 22.5297C91.9919 24.8461 93.996 25.8591 96.1822 25.8596C98.2231 25.8596 100.191 24.991 101.612 23.76ZM91.6637 26.5468C90.4979 25.6785 89.8057 24.3759 89.8057 22.7108C89.8057 20.8286 90.6803 19.4896 92.0648 18.5847C93.4136 17.7166 95.2352 17.3911 96.9844 17.3905C98.6244 17.3905 100.118 17.644 101.612 18.0424V15.9797C101.612 14.2423 101.284 13.1206 100.301 12.2519C99.462 11.5281 98.2238 11.1297 96.6198 11.1297C94.507 11.1297 92.5755 11.8173 91.1178 12.8671V10.7318C92.5755 9.82634 94.5794 9.13929 96.8391 9.13873C98.989 9.13929 100.738 9.68201 101.94 10.6956C103.142 11.7092 103.762 13.3011 103.762 15.4731V23.1817C103.762 24.7017 104.126 25.824 105.584 25.8235C106.021 25.8235 106.422 25.7154 106.75 25.5343L106.75 27.3803C106.349 27.5609 105.803 27.6696 105.183 27.6696C103.652 27.6696 102.45 26.9457 101.94 25.57H101.867C100.519 26.7284 98.3326 27.7776 95.891 27.7776C94.3606 27.7776 92.8302 27.416 91.6637 26.5468Z" fill="#1B2A30"/>
<path fill-rule="evenodd" clip-rule="evenodd" d="M113.817 21.2551L113.818 11.3433H110.139L110.139 9.44865H113.818V4.42009L116.032 4.05542V9.44865H122V11.3433H116.032V20.8903C116.032 23.5872 116.444 25.8101 119.372 25.8101C120.348 25.8101 121.286 25.5548 122 25.1542L121.999 27.1948C121.286 27.5229 120.198 27.7776 119.072 27.7776C117.721 27.7776 116.182 27.4135 115.131 26.2471C114.192 25.1907 113.817 23.5872 113.817 21.2551Z" fill="#1B2A30"/>
<path fill-rule="evenodd" clip-rule="evenodd" d="M35.8988 15.8077C36.4181 16.554 36.722 17.4663 36.722 18.4584C36.722 20.997 34.7558 23.0276 32.1953 23.0276C29.6354 23.0276 27.6685 20.9965 27.6685 18.4584C27.6685 15.9204 29.6354 13.8893 32.1958 13.8893C33.3379 13.8893 34.3598 14.2958 35.1436 14.9691L38.4713 11.0314C36.7694 9.83884 34.6111 9.13929 32.1958 9.13873C26.37 9.13873 22.0289 13.2004 22.0283 18.4584C22.0283 23.7165 26.37 27.7776 32.1953 27.7776C38.0205 27.7782 42.3617 23.7171 42.3617 18.459C42.3617 16.2744 41.6109 14.2985 40.3176 12.7325L35.8988 15.8077Z" fill="#26A4F0"/>
<path fill-rule="evenodd" clip-rule="evenodd" d="M48.1864 5.74984L52.5277 2.47701C52.0079 1.79488 51.3989 1.18642 50.7135 0.666504L47.4443 4.85676C47.7256 5.1182 47.9737 5.41887 48.1864 5.74984Z" fill="#26A4F0"/>
</svg>
