<svg width="189" height="69" viewBox="0 0 189 69" fill="none" xmlns="http://www.w3.org/2000/svg">
<path d="M189 64.552H174.88V40.0342H189V44.2938H180.078V49.677H188.38V53.9366H180.078V60.2589H189V64.552Z" fill="#232323"/>
<path d="M163.392 44.0086C161.436 44.0086 159.921 44.7464 158.848 46.2222C157.774 47.6868 157.238 49.7327 157.238 52.36C157.238 57.8271 159.289 60.5606 163.392 60.5606C165.114 60.5606 167.199 60.1302 169.648 59.2693V63.6295C167.635 64.468 165.388 64.8873 162.906 64.8873C159.34 64.8873 156.612 63.8084 154.722 61.6507C152.833 59.4817 151.888 56.3737 151.888 52.3265C151.888 49.7775 152.352 47.547 153.28 45.6353C154.208 43.7123 155.538 42.2421 157.271 41.2247C159.015 40.1962 161.056 39.6819 163.392 39.6819C165.774 39.6819 168.166 40.2577 170.57 41.4092L168.893 45.6353C167.976 45.1992 167.054 44.8191 166.126 44.4949C165.198 44.1707 164.287 44.0086 163.392 44.0086Z" fill="#232323"/>
<path d="M144.274 64.5518L142.497 58.7158H133.558L131.781 64.5518H126.179L134.833 39.9333H141.189L149.875 64.5518H144.274ZM141.256 54.3556C139.612 49.0674 138.684 46.0768 138.472 45.3836C138.271 44.6905 138.125 44.1426 138.036 43.7402C137.667 45.1712 136.61 48.7097 134.866 54.3556H141.256Z" fill="#232323"/>
<path d="M112.897 51.572H114.608C116.207 51.572 117.403 51.2589 118.197 50.6329C118.991 49.9956 119.387 49.0732 119.387 47.8658C119.387 46.6472 119.052 45.7472 118.381 45.1658C117.722 44.5845 116.682 44.2938 115.262 44.2938H112.897V51.572ZM124.636 47.6813C124.636 50.3198 123.809 52.3378 122.155 53.7353C120.511 55.1328 118.169 55.8316 115.128 55.8316H112.897V64.552H107.699V40.0342H115.53C118.504 40.0342 120.763 40.677 122.305 41.9627C123.859 43.2373 124.636 45.1435 124.636 47.6813Z" fill="#232323"/>
<path d="M103.255 57.7432C103.255 59.9569 102.455 61.701 100.857 62.9755C99.269 64.25 97.0554 64.8873 94.2156 64.8873C91.5995 64.8873 89.2852 64.3953 87.2728 63.4115V58.5817C88.9275 59.3196 90.325 59.8395 91.4653 60.1413C92.6169 60.4432 93.6678 60.5941 94.6181 60.5941C95.7585 60.5941 96.6305 60.3761 97.2342 59.9401C97.8491 59.5041 98.1566 58.8556 98.1566 57.9948C98.1566 57.514 98.0224 57.0892 97.7541 56.7203C97.4858 56.3401 97.0889 55.9768 96.5634 55.6302C96.0492 55.2836 94.9926 54.7302 93.3939 53.97C91.8958 53.2656 90.7722 52.5892 90.0231 51.9408C89.2741 51.2923 88.6759 50.5377 88.2287 49.6768C87.7815 48.816 87.5579 47.8098 87.5579 46.6582C87.5579 44.4893 88.2902 42.7843 89.7548 41.5434C91.2306 40.3024 93.2653 39.6819 95.8591 39.6819C97.1336 39.6819 98.3467 39.8328 99.4982 40.1347C100.661 40.4365 101.874 40.8614 103.137 41.4092L101.46 45.4508C100.152 44.9141 99.0678 44.5396 98.2069 44.3272C97.3572 44.1148 96.5187 44.0086 95.6914 44.0086C94.7075 44.0086 93.9529 44.2377 93.4274 44.6961C92.902 45.1545 92.6392 45.7526 92.6392 46.4905C92.6392 46.9489 92.7455 47.3514 92.9579 47.698C93.1703 48.0334 93.5057 48.3632 93.9641 48.6874C94.4336 49.0004 95.5349 49.5706 97.2678 50.3979C99.5597 51.4936 101.13 52.5948 101.98 53.7016C102.83 54.7973 103.255 56.1445 103.255 57.7432Z" fill="#232323"/>
<path d="M167.333 17.7131C167.333 21.7603 166.232 24.8571 164.03 27.0037C161.838 29.1391 158.68 30.2068 154.555 30.2068H147.763V5.68896H155.276C159.088 5.68896 162.051 6.74548 164.164 8.8585C166.277 10.9715 167.333 13.9231 167.333 17.7131ZM164.315 17.8137C164.315 14.6162 163.51 12.2069 161.9 10.5858C160.301 8.96471 157.92 8.15416 154.756 8.15416H150.614V27.7416H154.085C157.484 27.7416 160.038 26.9087 161.749 25.2428C163.459 23.5658 164.315 21.0895 164.315 17.8137Z" fill="#232323"/>
<path d="M141.44 30.2068L138.388 22.4087H128.561L125.542 30.2068H122.658L132.351 5.58838H134.749L144.392 30.2068H141.44ZM137.499 19.8429L134.648 12.2461C134.279 11.2846 133.899 10.1051 133.508 8.70761C133.262 9.78089 132.91 10.9604 132.451 12.2461L129.567 19.8429H137.499Z" fill="#232323"/>
<path d="M120.578 30.2068H106.91V5.68896H120.578V8.22124H109.761V16.1199H119.924V18.6354H109.761V27.6577H120.578V30.2068Z" fill="#232323"/>
<path d="M89.0675 30.2068V5.68896H91.9184V27.6242H102.735V30.2068H89.0675Z" fill="#232323"/>
<g clip-path="url(#clip0_431_17841)">
<path d="M18.7728 68.9149L55.7073 51.5843C62.5824 47.6331 62.5641 46.2289 55.5492 43.7306C51.7865 41.0924 48.0359 39.1411 44.34 40.3204L24.8333 49.6877C19.8548 52.4718 18.5722 55.9489 18.5843 59.663L18.7728 68.9149Z" fill="url(#paint0_linear_431_17841)"/>
<path d="M29.5929 16.4431C28.8513 17.3792 26.3711 20.7347 26.4806 25.6038C26.5049 26.8317 26.7541 30.6188 29.3801 33.8344C31.9758 37.0136 35.0698 37.3905 42.8081 39.7187C45.9995 40.6791 50.5828 42.1502 56.1084 44.2717C56.4975 44.3629 57.6585 44.685 58.5642 45.7853C59.6949 47.153 59.5976 48.7213 59.5733 49.0557C59.8833 48.7639 60.3271 48.3201 60.7891 47.7244C64.5457 42.8796 64.6248 34.3815 60.5885 30.637C59.6402 29.7617 59.0749 29.707 54.0781 27.9988C49.975 26.6007 46.7046 25.391 44.656 24.619C39.635 21.8897 34.6139 19.1664 29.5929 16.4431Z" fill="url(#paint1_linear_431_17841)"/>
<path d="M4.79163 1.8601C5.35087 1.84186 6.20798 1.82362 7.2596 1.79931C8.6638 1.77499 9.91602 1.75676 10.1896 1.75676C11.229 1.75068 16.086 1.73852 18.5843 4.16395C19.8913 5.42833 20.6025 7.1243 20.5599 10.6014C20.4505 18.8745 20.5052 23.5491 20.5842 26.3332C20.6086 27.1417 20.7423 31.5913 20.8639 37.6397C20.949 39.8645 20.949 39.3782 21.0462 41.907C21.2407 46.9523 21.2468 49.1711 21.4413 55.9307C21.4717 56.9884 21.5204 58.5506 21.5812 60.4593C21.569 60.5809 21.2894 63.4136 23.3501 64.8786C24.2801 65.5351 25.271 65.6263 25.7633 65.6324C25.04 66.2463 20.8943 69.6383 15.1802 68.8845C14.0739 68.7386 10.0619 68.2097 7.64256 65.0853C6.12895 63.134 5.94659 59.7238 5.58186 52.8974C5.50284 51.3716 5.41166 48.9158 5.36911 46.5572C5.32656 44.4418 5.32656 42.8796 5.32656 42.4784C5.3144 39.6396 5.19282 29.5184 4.79163 1.8601Z" fill="url(#paint2_linear_431_17841)"/>
<path d="M61.7435 0L33.2888 13.355C28.3164 16.7409 27.0642 18.522 33.4469 21.2088L44.65 24.619L55.6769 19.2393C60.6554 16.4552 61.938 12.9781 61.9259 9.26403L61.7435 0Z" fill="url(#paint3_linear_431_17841)"/>
</g>
<defs>
<linearGradient id="paint0_linear_431_17841" x1="18.4888" y1="54.731" x2="60.9758" y2="53.8733" gradientUnits="userSpaceOnUse">
<stop stop-color="#3B7CE7"/>
<stop offset="1.38522e-07" stop-color="#1864E3"/>
<stop offset="1" stop-color="#397DEE"/>
</linearGradient>
<linearGradient id="paint1_linear_431_17841" x1="26.6314" y1="33.1081" x2="63.4807" y2="32.3641" gradientUnits="userSpaceOnUse">
<stop stop-color="#0C5ADB"/>
<stop offset="1" stop-color="#00368E"/>
</linearGradient>
<linearGradient id="paint2_linear_431_17841" x1="5.14495" y1="35.5396" x2="25.1477" y2="35.1359" gradientUnits="userSpaceOnUse">
<stop stop-color="#0C5ADB"/>
<stop offset="1" stop-color="#0440A2"/>
</linearGradient>
<linearGradient id="paint3_linear_431_17841" x1="29.0005" y1="12.7962" x2="61.9873" y2="12.1303" gradientUnits="userSpaceOnUse">
<stop stop-color="#0C5ADB"/>
<stop offset="1.38522e-07" stop-color="#4184F3"/>
<stop offset="1" stop-color="#3D81F0"/>
</linearGradient>
<clipPath id="clip0_431_17841">
<rect width="69" height="69" fill="white"/>
</clipPath>
</defs>
</svg>
