<svg xmlns="http://www.w3.org/2000/svg" width="653.62" height="536.5" viewBox="0 0 653.62 536.5">
  <path d="M624,215v-.5l-1,1,.29,534.12-211,.38c-9.57-3-15.38-5.87-18.27-9a8.34,8.34,0,0,1-2.3-4.55,13.22,13.22,0,0,1,.55-5.5,61,61,0,0,1,2.59-7l.77-1.85c.88-2.08,1.87-4.43,2.84-7a90.15,90.15,0,0,0,5.88-24.31c2.42-26-9.85-41.19-20.57-49.33-12.37-9.39-29.48-14.76-47-14.76h-.57a62.21,62.21,0,0,0-35.72,12.11c-14.84,11.2-22.95,28.51-24.07,51.45-.36,7.21,1.07,14.31,4.49,22.33,1.33,3.1,2.81,6,4.11,8.61l.14.27c1.28,2.53,2.6,5.15,3.53,7.55,2,5.19,1.83,8.51-.59,11.45-3,3.6-9.68,6.7-20.53,9.46l-172.3-.61V548.58l0-.21c-3.3-11.24-6.4-17.72-10.06-21a9.55,9.55,0,0,0-5.92-2.61,15.88,15.88,0,0,0-6.51,1.17c-2.3.83-4.86,2.07-7.35,3.27l-.16.08c-2.55,1.22-5.43,2.61-8.55,3.87a60.19,60.19,0,0,1-23.2,4.75c-30.7-.09-61.79-21.4-61.79-62,0-3.58.55-22.26,11.37-38.81,11-16.75,28-24.58,50.74-23.27a78.55,78.55,0,0,1,23.37,5.27c2.68,1,5.18,2.08,7.39,3l1.42.6a72.21,72.21,0,0,0,7.41,2.8,16.32,16.32,0,0,0,6.49.77,10.26,10.26,0,0,0,5.79-2.66c3.51-3.11,6.55-9.24,9.58-19.37l0-.07V215.5l-1-1V404.06c-3,9.87-5.9,15.86-9.26,18.84a9.35,9.35,0,0,1-5.24,2.42,15.5,15.5,0,0,1-6.1-.74,71.85,71.85,0,0,1-7.3-2.76l-1.42-.6c-2.22-.94-4.73-2-7.43-3a79.88,79.88,0,0,0-23.66-5.34c-23.11-1.34-40.48,6.65-51.64,23.72-8.5,13-11.53,28.86-11.53,39.36,0,18.66,6.67,34.69,19.29,46.34a64,64,0,0,0,43.5,16.63,61.31,61.31,0,0,0,23.57-4.82c3.15-1.27,6.05-2.67,8.65-3.92l.13-.06c2.57-1.24,5-2.42,7.25-3.23a15,15,0,0,1,6.1-1.12,8.65,8.65,0,0,1,5.32,2.36c3.47,3.11,6.57,9.64,9.77,20.54V750.39l173.36.61h.12c11.26-2.87,18-6,21.12-9.81,3.34-4,2.25-8.57.75-12.45-.95-2.44-2.28-5.09-3.57-7.64l-.13-.27c-1.3-2.57-2.78-5.49-4.09-8.56-3.36-7.87-4.76-14.82-4.42-21.88,1.12-22.63,9.09-39.69,23.68-50.7a61.16,61.16,0,0,1,35.13-11.91h.56c17.32,0,34.21,5.29,46.41,14.56,10.52,8,22.56,22.87,20.18,48.44a89.22,89.22,0,0,1-5.81,24c-1,2.5-1.95,4.85-2.83,6.92l-.78,1.86a63.44,63.44,0,0,0-2.63,7.14,14.34,14.34,0,0,0-.57,5.92,9.29,9.29,0,0,0,2.56,5.08c3,3.23,9,6.17,18.77,9.26l.08,0,212.15-.38Z" transform="translate(29.31 -214.5)" style="fill: #c5d8f1"/>
</svg>
