<svg width="32" height="32" viewBox="0 0 32 32" fill="none" xmlns="http://www.w3.org/2000/svg">
<path d="M32 16C32 7.16344 24.8366 0 16 0C7.16344 0 0 7.16344 0 16C0 24.8366 7.16344 32 16 32C24.8366 32 32 24.8366 32 16Z" fill="url(#paint0_linear_431_29734)"/>
<path d="M7.39974 15.5441C12.1103 13.5047 15.2514 12.1602 16.8232 11.5105C21.3106 9.65577 22.2431 9.33357 22.8508 9.32286C22.9845 9.32062 23.2833 9.35353 23.477 9.50961C23.6405 9.64145 23.6854 9.81953 23.7069 9.94447C23.7285 10.0695 23.7553 10.3542 23.7339 10.5766C23.4908 13.1156 22.4386 19.2772 21.9032 22.121C21.6767 23.3243 21.2307 23.7277 20.799 23.7672C19.8606 23.853 19.148 23.151 18.2392 22.5589C16.817 21.6326 16.0136 21.0558 14.6331 20.1519C13.0377 19.1071 14.0719 18.533 14.9811 17.5945C15.219 17.349 19.3535 13.6119 19.4336 13.273C19.4435 13.2305 19.4529 13.0725 19.3584 12.989C19.2639 12.9056 19.1244 12.9341 19.0238 12.9568C18.8812 12.989 16.6092 14.4812 12.2079 17.4336C11.563 17.8736 10.9789 18.088 10.4556 18.0767C9.87866 18.0644 8.76886 17.7526 7.94381 17.4861C6.93188 17.1592 6.12758 16.9864 6.19761 16.4313C6.23409 16.1421 6.63479 15.8464 7.39974 15.5441Z" fill="white"/>
<defs>
<linearGradient id="paint0_linear_431_29734" x1="16" y1="0" x2="16" y2="31.7627" gradientUnits="userSpaceOnUse">
<stop stop-color="#2AABEE"/>
<stop offset="1" stop-color="#229ED9"/>
</linearGradient>
</defs>
</svg>
