<svg width="32" height="32" viewBox="0 0 32 32" fill="none" xmlns="http://www.w3.org/2000/svg">
<path d="M32 16C32 7.16344 24.8366 0 16 0C7.16344 0 0 7.16344 0 16C0 24.8366 7.16344 32 16 32C24.8366 32 32 24.8366 32 16Z" fill="#0DC143"/>
<path d="M23.1239 8.90514C21.4025 7.14748 19.023 6.19336 16.5928 6.19336C11.4287 6.19336 7.27721 10.3615 7.32785 15.4334C7.32785 17.0404 7.78352 18.5972 8.54292 20.0033L7.22656 24.774L12.1376 23.5185C13.5045 24.2718 15.0234 24.6234 16.5422 24.6234C21.6557 24.6234 25.8072 20.4553 25.8072 15.3832C25.8072 12.9225 24.8453 10.6126 23.1239 8.90514ZM16.5928 23.0666C15.2259 23.0666 13.8589 22.7151 12.6944 22.012L12.3906 21.8614L9.45426 22.6146L10.2137 19.7522L10.0112 19.4509C7.78352 15.8854 8.84666 11.1649 12.4919 8.95537C16.1371 6.74576 20.8456 7.80032 23.0733 11.416C25.3009 15.0317 24.2378 19.702 20.5925 21.9116C19.4281 22.6648 18.0104 23.0666 16.5928 23.0666ZM21.0481 17.4924L20.4913 17.2413C20.4913 17.2413 19.6811 16.8898 19.1749 16.6387C19.1242 16.6387 19.0736 16.5885 19.023 16.5885C18.8711 16.5885 18.7699 16.6387 18.6686 16.6889C18.6686 16.6889 18.618 16.7391 17.9092 17.5426C17.8585 17.6431 17.7573 17.6933 17.656 17.6933H17.6054C17.5548 17.6933 17.4535 17.6431 17.4029 17.5928L17.1498 17.4924C16.5928 17.2413 16.0866 16.94 15.6815 16.5383C15.5803 16.4378 15.4284 16.3374 15.3271 16.2369C14.9727 15.8854 14.6183 15.4837 14.3652 15.0317L14.3145 14.9313C14.2639 14.8811 14.2639 14.8308 14.2133 14.7304C14.2133 14.63 14.2133 14.5296 14.2639 14.4793C14.2639 14.4793 14.4664 14.2282 14.6183 14.0776C14.7196 13.9771 14.7702 13.8265 14.8715 13.7261C14.9727 13.5754 15.0234 13.3745 14.9727 13.2239C14.9221 12.9728 14.3145 11.6169 14.1627 11.3156C14.0614 11.1649 13.9602 11.1147 13.8083 11.0645H13.6564C13.5551 11.0645 13.4033 11.0645 13.2513 11.0645C13.1501 11.0645 13.0488 11.1147 12.9476 11.1147L12.897 11.1649C12.7957 11.2152 12.6944 11.3156 12.5932 11.3658C12.4919 11.4662 12.4413 11.5667 12.3401 11.6671C11.9856 12.1191 11.7831 12.6715 11.7831 13.2239C11.7831 13.6256 11.8844 14.0274 12.0363 14.3789L12.0869 14.5296C12.5426 15.4837 13.1501 16.3374 13.9602 17.0906L14.1627 17.2915C14.3145 17.4422 14.4664 17.5426 14.5677 17.6933C15.6309 18.5972 16.846 19.25 18.2129 19.6016C18.3648 19.6518 18.5674 19.6518 18.7192 19.702C18.8711 19.702 19.0736 19.702 19.2255 19.702C19.4786 19.702 19.7824 19.6016 19.9849 19.5011C20.1368 19.4007 20.2381 19.4007 20.3393 19.3003L20.4406 19.1998C20.5418 19.0993 20.6431 19.0492 20.7443 18.9487C20.8456 18.8483 20.9469 18.7478 20.9975 18.6474C21.0988 18.4466 21.1494 18.1955 21.2 17.9444C21.2 17.844 21.2 17.6933 21.2 17.5928C21.2 17.5928 21.1494 17.5426 21.0481 17.4924Z" fill="white"/>
</svg>
