<svg width="32" height="32" viewBox="0 0 32 32" fill="none" xmlns="http://www.w3.org/2000/svg">
<path d="M0 16C0 7.16333 7.16333 0 16 0C24.8367 0 32 7.16333 32 16C32 24.8367 24.8367 32 16 32C7.16333 32 0 24.8367 0 16Z" fill="#4C6C91"/>
<path d="M16.8375 21.2504C16.8375 21.2504 17.1455 21.2171 17.3028 21.0504C17.4475 20.8984 17.4428 20.6104 17.4428 20.6104C17.4428 20.6104 17.4228 19.2677 18.0582 19.0691C18.6848 18.8744 19.4882 20.3677 20.3415 20.9424C20.9855 21.3764 21.4748 21.2817 21.4748 21.2817L23.7548 21.2504C23.7548 21.2504 24.9468 21.1784 24.3815 20.2584C24.3348 20.1831 24.0515 19.5771 22.6868 18.3337C21.2568 17.0317 21.4488 17.2417 23.1702 14.9897C24.2188 13.6177 24.6375 12.7804 24.5068 12.4231C24.3822 12.0797 23.6108 12.1711 23.6108 12.1711L21.0448 12.1864C21.0448 12.1864 20.8548 12.1611 20.7135 12.2437C20.5762 12.3251 20.4868 12.5144 20.4868 12.5144C20.4868 12.5144 20.0808 13.5751 19.5388 14.4784C18.3962 16.3824 17.9402 16.4831 17.7528 16.3651C17.3182 16.0891 17.4262 15.2577 17.4262 14.6671C17.4262 12.8204 17.7122 12.0511 16.8715 11.8524C16.5928 11.7857 16.3875 11.7424 15.6735 11.7351C14.7582 11.7257 13.9828 11.7384 13.5442 11.9484C13.2522 12.0891 13.0268 12.4017 13.1642 12.4204C13.3335 12.4424 13.7175 12.5217 13.9215 12.7937C14.1842 13.1451 14.1748 13.9337 14.1748 13.9337C14.1748 13.9337 14.3262 16.1071 13.8215 16.3757C13.4768 16.5611 13.0022 16.1837 11.9828 14.4557C11.4615 13.5704 11.0675 12.5924 11.0675 12.5924C11.0675 12.5924 10.9915 12.4097 10.8555 12.3111C10.6908 12.1924 10.4615 12.1557 10.4615 12.1557L8.02351 12.1711C8.02351 12.1711 7.65684 12.1811 7.52218 12.3377C7.40284 12.4757 7.51351 12.7631 7.51351 12.7631C7.51351 12.7631 9.42218 17.1477 11.5842 19.3577C13.5668 21.3831 15.8175 21.2511 15.8175 21.2511H16.8375V21.2504Z" fill="white"/>
</svg>
