<svg width="50" height="50" viewBox="0 0 50 50" fill="none" xmlns="http://www.w3.org/2000/svg">
<rect x="50" y="50" width="50" height="50" rx="25" transform="rotate(180 50 50)" fill="#0C5ADB"/>
<path d="M38.7123 25.5956C38.8699 25.2142 38.8699 24.7858 38.7123 24.4044C38.6362 24.2153 38.5238 24.0429 38.3814 23.897L27.3516 12.8672C27.059 12.5747 26.6623 12.4103 26.2486 12.4103C25.8349 12.4103 25.4381 12.5747 25.1456 12.8672C24.8531 13.1597 24.6887 13.5565 24.6887 13.9702C24.6887 14.3839 24.8531 14.7806 25.1456 15.0732L33.5172 23.4448L15.2188 23.4338C15.0128 23.4329 14.8088 23.4729 14.6184 23.5513C14.428 23.6297 14.255 23.745 14.1094 23.8906C13.9638 24.0362 13.8484 24.2092 13.77 24.3996C13.6916 24.59 13.6517 24.7941 13.6525 25C13.6517 25.2059 13.6916 25.41 13.77 25.6004C13.8484 25.7908 13.9638 25.9638 14.1094 26.1094C14.255 26.255 14.428 26.3703 14.6184 26.4487C14.8088 26.5271 15.0128 26.5671 15.2188 26.5662L33.5172 26.5552L25.1456 34.9268C24.8531 35.2194 24.6887 35.6161 24.6887 36.0298C24.6887 36.4435 24.8531 36.8403 25.1456 37.1328C25.4381 37.4253 25.8349 37.5897 26.2486 37.5897C26.6623 37.5897 27.059 37.4253 27.3516 37.1328L38.3814 26.103C38.5238 25.9571 38.6362 25.7847 38.7123 25.5956Z" fill="white"/>
</svg>
