<svg width="50" height="50" viewBox="0 0 50 50" fill="none" xmlns="http://www.w3.org/2000/svg">
<rect width="50" height="50" rx="25" fill="#0C5ADB"/>
<path d="M11.2877 24.4044C11.1301 24.7858 11.1301 25.2142 11.2877 25.5956C11.3638 25.7847 11.4762 25.9571 11.6186 26.103L22.6484 37.1328C22.941 37.4253 23.3377 37.5897 23.7514 37.5897C24.1651 37.5897 24.5619 37.4253 24.8544 37.1328C25.1469 36.8403 25.3113 36.4435 25.3113 36.0298C25.3113 35.6161 25.1469 35.2194 24.8544 34.9268L16.4828 26.5552L34.7812 26.5662C34.9872 26.5671 35.1912 26.5271 35.3816 26.4487C35.572 26.3703 35.745 26.255 35.8906 26.1094C36.0362 25.9638 36.1516 25.7908 36.23 25.6004C36.3084 25.41 36.3483 25.2059 36.3475 25C36.3483 24.7941 36.3084 24.59 36.23 24.3996C36.1516 24.2092 36.0362 24.0362 35.8906 23.8906C35.745 23.745 35.572 23.6297 35.3816 23.5513C35.1912 23.4729 34.9872 23.4329 34.7812 23.4338L16.4828 23.4448L24.8544 15.0732C25.1469 14.7806 25.3113 14.3839 25.3113 13.9702C25.3113 13.5565 25.1469 13.1597 24.8544 12.8672C24.5619 12.5747 24.1651 12.4103 23.7514 12.4103C23.3377 12.4103 22.941 12.5747 22.6484 12.8672L11.6186 23.897C11.4762 24.0429 11.3638 24.2153 11.2877 24.4044Z" fill="white"/>
</svg>
