<svg width="31" height="27" viewBox="0 0 31 27" fill="none" xmlns="http://www.w3.org/2000/svg">
<path d="M7.75642 2.04218C8.28549 2.01908 8.69633 1.58674 8.67406 1.07652C8.65178 0.566293 8.20482 0.171402 7.67575 0.194502C7.14667 0.217602 6.73583 0.649945 6.75811 1.16017C6.78039 1.67039 7.22734 2.06528 7.75642 2.04218Z" fill="#232323"/>
<path d="M19.1852 2.04282C19.7132 2.01976 20.1232 1.58733 20.1009 1.07696C20.0786 0.566585 19.6325 0.171533 19.1045 0.194586C18.5765 0.21764 18.1665 0.650068 18.1888 1.16044C18.2111 1.67082 18.6572 2.06587 19.1852 2.04282Z" fill="#232323"/>
<path d="M4.55463 4.16739C4.65906 4.21258 4.78554 4.24096 4.87702 4.28532C5.5802 4.62681 5.94594 5.19277 5.97423 5.98321C5.98176 6.19372 5.95264 6.41113 5.88688 6.63542C5.5532 7.77368 4.45268 8.31568 3.33701 8.32229C2.43893 8.32762 1.54498 8.3301 0.65516 8.32973C0.641382 8.32973 0.634586 8.32293 0.634769 8.30934L0.636974 0.668277C0.636974 0.655051 0.643495 0.648438 0.656537 0.648438C1.44275 0.651193 2.23301 0.651652 3.0273 0.649815C3.62991 0.648713 4.26008 0.769676 4.74366 1.15378C5.72955 1.93687 5.68408 3.48459 4.55298 4.1368C4.5502 4.13837 4.54792 4.14067 4.54639 4.14347C4.54486 4.14626 4.54414 4.14943 4.54431 4.15261C4.54448 4.15579 4.54554 4.15886 4.54736 4.16147C4.54919 4.16408 4.55171 4.16613 4.55463 4.16739ZM2.2026 1.97986L2.1993 3.75104C2.1993 3.75452 2.19998 3.75796 2.20131 3.76117C2.20264 3.76437 2.20459 3.76729 2.20705 3.76975C2.2095 3.7722 2.21242 3.77415 2.21563 3.77548C2.21884 3.77681 2.22228 3.77749 2.22575 3.77749L2.90606 3.7786C3.03305 3.77884 3.15884 3.75667 3.27624 3.71337C3.39364 3.67008 3.50036 3.60649 3.5903 3.52625C3.68024 3.44601 3.75164 3.35068 3.80042 3.24572C3.8492 3.14075 3.8744 3.0282 3.87459 2.9145V2.82191C3.87499 2.59233 3.77352 2.37197 3.59251 2.20931C3.4115 2.04664 3.16577 1.95499 2.90937 1.95451L2.22906 1.95341C2.22204 1.95341 2.21531 1.95619 2.21035 1.96115C2.20539 1.96611 2.2026 1.97284 2.2026 1.97986ZM2.20591 5.10616L2.19599 6.98453C2.19595 6.98781 2.19657 6.99107 2.1978 6.99411C2.19903 6.99715 2.20085 6.99991 2.20316 7.00224C2.20546 7.00458 2.20821 7.00643 2.21124 7.00769C2.21426 7.00896 2.21751 7.0096 2.22079 7.0096L3.3158 7.01539C3.45158 7.01611 3.58616 6.99384 3.71184 6.94986C3.83752 6.90588 3.95185 6.84104 4.04829 6.75906C4.14473 6.67708 4.22139 6.57955 4.2739 6.47206C4.32641 6.36456 4.35373 6.2492 4.35431 6.13255L4.35487 5.98046C4.35605 5.74496 4.24829 5.51855 4.05529 5.35103C3.8623 5.18351 3.59986 5.08859 3.32571 5.08715L2.23071 5.08136C2.22413 5.08136 2.21783 5.08397 2.21317 5.08862C2.20852 5.09328 2.20591 5.09958 2.20591 5.10616Z" fill="#232323"/>
<path d="M11.7407 4.03763C11.7389 4.03763 11.7371 4.03798 11.7355 4.03866C11.7339 4.03934 11.7324 4.04033 11.7311 4.04158C11.7299 4.04284 11.7289 4.04433 11.7282 4.04597C11.7275 4.0476 11.7272 4.04936 11.7272 4.05113C11.7268 4.84763 11.727 5.6445 11.7277 6.44174C11.7277 6.62663 11.7338 6.86993 11.839 7.01431C12.0862 7.35406 12.7695 7.12839 13.0531 6.95149C13.0555 6.94997 13.0582 6.94899 13.061 6.94862C13.0639 6.94824 13.0667 6.94849 13.0694 6.94933C13.0721 6.95017 13.0746 6.95158 13.0767 6.95348C13.0788 6.95538 13.0804 6.95771 13.0815 6.96031L13.5119 7.98422C13.5168 7.99619 13.5172 8.00957 13.5129 8.02179C13.5085 8.03401 13.4998 8.04418 13.4884 8.05035C13.0164 8.3055 12.5254 8.41462 11.9931 8.42371C11.768 8.42757 11.602 8.425 11.4949 8.416C10.6545 8.34491 10.1249 7.70372 10.1301 6.86883C10.136 5.95256 10.1392 5.02132 10.1398 4.0751C10.1398 4.0492 10.1268 4.03625 10.1009 4.03625L9.15416 4.03901C9.14568 4.03901 9.13755 4.03564 9.13156 4.02965C9.12556 4.02365 9.1222 4.01552 9.1222 4.00705L9.12109 2.84563C9.12109 2.82598 9.13083 2.81615 9.1503 2.81615L10.1031 2.81505C10.1129 2.81505 10.1223 2.81116 10.1292 2.80423C10.1362 2.79731 10.14 2.78792 10.14 2.77813L10.1345 1.55499C10.1345 1.54459 10.1378 1.53444 10.144 1.52609C10.1502 1.51774 10.159 1.51163 10.169 1.5087L11.693 1.07059C11.7163 1.06379 11.728 1.07252 11.728 1.09677L11.7269 2.76931C11.7269 2.80054 11.7425 2.81615 11.7737 2.81615L13.379 2.81588C13.3809 2.81589 13.3827 2.81633 13.3843 2.81715C13.386 2.81798 13.3874 2.81917 13.3885 2.82064C13.3896 2.82211 13.3903 2.82381 13.3906 2.82562C13.391 2.82742 13.3909 2.82927 13.3903 2.83103L13.0523 3.99713C13.0489 4.00879 13.0419 4.01905 13.0322 4.02636C13.0225 4.03367 13.0107 4.03762 12.9985 4.03763H11.7407Z" fill="#232323"/>
<path d="M15.5757 3.36908C15.5766 3.3719 15.5782 3.37444 15.5804 3.37647C15.5825 3.37849 15.5852 3.37993 15.5881 3.38065C15.5909 3.38137 15.5939 3.38134 15.5968 3.38057C15.5996 3.3798 15.6023 3.37831 15.6044 3.37624C16.2425 2.74828 17.0267 2.4427 17.8748 2.88385C17.9454 2.92022 17.9222 2.95466 17.8991 3.00977C17.736 3.39975 17.5688 3.79516 17.3976 4.19598C17.3955 4.20093 17.3924 4.20537 17.3884 4.20902C17.3844 4.21267 17.3797 4.21545 17.3746 4.21716C17.3695 4.21888 17.3641 4.2195 17.3587 4.21898C17.3533 4.21846 17.3481 4.21682 17.3433 4.21416C16.9421 3.98565 16.5406 3.96544 16.1387 4.15354C15.9882 4.22381 15.8289 4.34064 15.6881 4.44672C15.6759 4.45588 15.666 4.46777 15.6592 4.48145C15.6523 4.49513 15.6488 4.51022 15.6487 4.52553L15.649 8.31065C15.649 8.31496 15.6473 8.3191 15.6443 8.32215C15.6412 8.32519 15.6371 8.32691 15.6328 8.32691H14.0963C14.0892 8.32691 14.0823 8.32406 14.0772 8.319C14.0722 8.31394 14.0693 8.30707 14.0693 8.2999V2.82956C14.0693 2.82038 14.074 2.81579 14.0834 2.81579L15.3762 2.81276C15.3831 2.81267 15.3898 2.8148 15.3953 2.81882C15.4009 2.82284 15.405 2.82854 15.4071 2.83508L15.5757 3.36908Z" fill="#232323"/>
<path d="M8.48222 2.81641H6.95131C6.93883 2.81641 6.92871 2.82652 6.92871 2.839V8.30631C6.92871 8.31879 6.93883 8.3289 6.95131 8.3289H8.48222C8.4947 8.3289 8.50481 8.31879 8.50481 8.30631V2.839C8.50481 2.82652 8.4947 2.81641 8.48222 2.81641Z" fill="#232323"/>
<path d="M19.9032 2.81641H18.3833C18.3679 2.81641 18.3555 2.82887 18.3555 2.84424V8.30218C18.3555 8.31755 18.3679 8.33001 18.3833 8.33001H19.9032C19.9186 8.33001 19.931 8.31755 19.931 8.30218V2.84424C19.931 2.82887 19.9186 2.81641 19.9032 2.81641Z" fill="#232323"/>
<path d="M23.3961 6.62741C23.3917 6.62484 23.3865 6.62399 23.3815 6.625C23.3765 6.62602 23.3721 6.62884 23.3691 6.63292C22.9769 7.16031 22.5841 7.68678 22.1909 8.21233C22.1569 8.2577 22.1263 8.29297 22.0991 8.31813C22.0924 8.32434 22.0835 8.32779 22.0743 8.32778C21.5574 8.33026 21.0322 8.30822 20.5169 8.33632C20.5112 8.33661 20.5056 8.33528 20.5006 8.33248C20.4956 8.32967 20.4916 8.32551 20.4889 8.32048C20.4862 8.31545 20.485 8.30976 20.4854 8.30408C20.4859 8.29839 20.4879 8.29295 20.4913 8.28838L22.5204 5.58751C22.5276 5.57785 22.5315 5.56616 22.5315 5.55416C22.5316 5.54216 22.5278 5.53047 22.5207 5.52083L20.5517 2.84917C20.5493 2.84597 20.5479 2.84218 20.5476 2.83822C20.5473 2.83427 20.548 2.8303 20.5498 2.82676C20.5516 2.82322 20.5544 2.82025 20.5578 2.81818C20.5611 2.8161 20.565 2.815 20.569 2.815L22.136 2.81611C22.1452 2.8161 22.1542 2.81825 22.1623 2.82237C22.1704 2.82648 22.1775 2.83246 22.1829 2.8398L23.3704 4.44759C23.3741 4.45253 23.3788 4.45654 23.3843 4.45929C23.3898 4.46205 23.3958 4.46347 23.4019 4.46344C23.4081 4.46342 23.4141 4.46194 23.4195 4.45914C23.425 4.45634 23.4297 4.45229 23.4333 4.44732C23.8019 3.94418 24.1704 3.44462 24.5387 2.94864C24.5784 2.89537 24.612 2.85413 24.6396 2.82492C24.6427 2.82162 24.6465 2.81898 24.6506 2.81718C24.6547 2.81538 24.6591 2.81445 24.6636 2.81445L26.2617 2.81473C26.2646 2.81471 26.2675 2.81552 26.27 2.81707C26.2724 2.81861 26.2744 2.82082 26.2757 2.82344C26.2769 2.82607 26.2775 2.82899 26.2771 2.83189C26.2768 2.83479 26.2757 2.83753 26.2738 2.8398C26.2545 2.86433 26.2242 2.88361 26.2063 2.90786C25.5566 3.7839 24.9065 4.65498 24.256 5.52111C24.2493 5.53018 24.2456 5.5412 24.2456 5.55252C24.2456 5.56383 24.2493 5.57485 24.256 5.58393C24.8507 6.37914 25.4274 7.15581 25.9862 7.91391C26.0874 8.05132 26.1949 8.18018 26.3088 8.3005C26.3111 8.30288 26.3126 8.30587 26.3132 8.3091C26.3138 8.31233 26.3134 8.31566 26.3121 8.31868C26.3108 8.32169 26.3087 8.32427 26.3059 8.32608C26.3032 8.32789 26.3 8.32887 26.2967 8.32888L24.7181 8.32833C24.7011 8.32833 24.6843 8.32434 24.6691 8.31669C24.6539 8.30903 24.6407 8.29792 24.6305 8.28424C24.2299 7.74436 23.8288 7.2021 23.4272 6.65744C23.4173 6.64385 23.4069 6.63384 23.3961 6.62741Z" fill="#232323"/>
<path d="M30.5729 17.0705C30.08 18.1889 29.2912 19.0054 28.2065 19.5201C27.3708 19.9169 26.4216 20.056 25.5112 19.9271C22.6329 19.5193 20.7917 16.6663 21.5775 13.8742C21.7991 13.0875 22.2082 12.3968 22.8051 11.8022C23.4282 11.1813 24.1677 10.7638 25.0237 10.5498C25.1474 10.519 25.2713 10.4894 25.3954 10.4611C25.9206 10.3418 26.448 10.3399 26.9729 10.4627C27.0798 10.4879 27.1867 10.5133 27.2937 10.5388C28.9822 10.9433 30.2902 12.1998 30.7817 13.8742C30.8106 13.9725 30.8504 14.1298 30.9011 14.3462C31.0292 14.894 31.0366 15.495 30.8989 16.0419C30.8104 16.3938 30.7319 16.7104 30.5729 17.0705ZM28.6378 12.1518C28.1082 11.7231 27.3904 11.3809 26.6952 11.31C26.2083 11.2604 25.6233 11.2726 25.1596 11.4007C24.8646 11.4823 24.5588 11.6132 24.2423 11.7936C24.0766 11.8879 23.9243 11.9902 23.7855 12.1006C23.1605 12.5965 22.717 13.2225 22.4549 13.9784C22.3952 14.1503 22.3521 14.3283 22.3256 14.5124C22.2358 15.1362 22.2515 15.8452 22.4703 16.4439C22.9252 17.6883 23.8813 18.5943 25.1665 18.972C25.3191 19.0169 25.489 19.0471 25.6762 19.0627C26.2179 19.1076 26.7789 19.1062 27.2879 18.9417C28.05 18.6956 28.6813 18.2768 29.1817 17.6853C29.533 17.27 29.7901 16.7663 29.9493 16.2475C30.1001 15.7556 30.1102 15.1828 30.0604 14.6733C30.0409 14.474 30.01 14.3063 29.9678 14.1702C29.841 13.7604 29.6349 13.3011 29.3792 12.9443C29.1599 12.6388 28.9127 12.3746 28.6378 12.1518Z" fill="#232323"/>
<path d="M3.88905 23.5449C3.89163 23.5481 3.89494 23.5508 3.89871 23.5526C3.90248 23.5544 3.90662 23.5553 3.91082 23.5553L10.3276 23.5556C10.344 23.5556 10.3522 23.5637 10.3522 23.5799L10.3527 26.0399C10.3527 26.0649 10.3402 26.0774 10.3152 26.0774L0.0639713 26.0771C0.0143737 26.0771 -0.00638368 26.0527 0.00169889 26.0038C0.0716866 25.5833 0.142409 25.194 0.213866 24.8358C0.557008 23.1192 1.35048 21.6496 2.59428 20.4271C3.53084 19.5063 4.61014 18.7703 5.66327 17.9927C5.806 17.8873 5.99924 17.7223 6.24301 17.4978C6.72631 17.0525 7.10711 16.4753 7.08093 15.7939C7.05834 15.205 6.74587 14.7096 6.20002 14.4622C5.88425 14.3189 5.53817 14.243 5.16178 14.2346C4.40128 14.2173 3.67817 14.315 2.99243 14.5278C2.40957 14.7085 1.84214 14.9287 1.29013 15.1882C1.28732 15.1896 1.28425 15.1903 1.28114 15.1903C1.27802 15.1904 1.27493 15.1898 1.27207 15.1886C1.26921 15.1873 1.26664 15.1855 1.26452 15.1832C1.26241 15.1809 1.26081 15.1782 1.25982 15.1753L0.518065 12.9693C0.510901 12.9478 0.517789 12.9326 0.538731 12.9238C0.677604 12.8661 0.81611 12.8075 0.954248 12.7478C2.58215 12.0429 4.35389 11.6674 6.13279 11.785C6.83469 11.8315 7.49406 11.9907 8.11091 12.2625C8.40721 12.3929 8.69983 12.5825 8.98879 12.8312C9.46198 13.2383 9.79061 13.7382 9.97468 14.331C10.0915 14.7074 10.1526 15.0974 10.1579 15.501C10.1695 16.3504 9.94005 17.1224 9.46961 17.8172C9.12683 18.3236 8.716 18.7703 8.25281 19.1734C7.76584 19.5972 7.21953 20.0322 6.61389 20.4784C6.32567 20.6907 5.9648 20.9774 5.53128 21.3383C4.82286 21.9283 4.196 22.6348 3.88464 23.49C3.87656 23.5121 3.87803 23.5304 3.88905 23.5449Z" fill="#232323"/>
<path d="M16.2928 22.6818C16.2905 22.6786 16.2875 22.6761 16.2841 22.6743C16.2806 22.6725 16.2768 22.6716 16.273 22.6716L9.96335 22.673C9.95067 22.673 9.94434 22.6666 9.94434 22.654C9.94617 22.0535 9.94617 21.4502 9.94434 20.8442C9.94406 20.7943 10.0317 20.7028 10.0568 20.6709C12.3763 17.729 14.6954 14.787 17.0142 11.8447C17.0569 11.7904 17.1087 11.7948 17.1872 11.7951C17.8425 11.797 18.4978 11.7985 19.1532 11.7998C19.1622 11.7998 19.1667 11.8044 19.1667 11.8136V20.2931C19.1667 20.2973 19.1681 20.3014 19.1706 20.3048C19.1732 20.3082 19.1767 20.3107 19.1808 20.3118C19.2025 20.3179 19.2254 20.3209 19.2497 20.3209C19.9185 20.3197 20.5862 20.3181 21.2529 20.3163C21.2572 20.3163 21.2613 20.318 21.2644 20.3211C21.2674 20.3242 21.2691 20.3284 21.2691 20.3328L21.2683 22.6666C21.2683 22.6676 21.2681 22.6685 21.2678 22.6693C21.2674 22.6702 21.2669 22.671 21.2663 22.6716C21.2656 22.6722 21.2649 22.6727 21.264 22.6731C21.2632 22.6734 21.2623 22.6736 21.2614 22.6735L19.1899 22.6716C19.1868 22.6716 19.1837 22.6722 19.1808 22.6734C19.1779 22.6746 19.1753 22.6763 19.1731 22.6785C19.1709 22.6806 19.1692 22.6832 19.168 22.6861C19.1668 22.6889 19.1662 22.6919 19.1662 22.695L19.1667 26.05C19.1667 26.0567 19.1641 26.063 19.1593 26.0677C19.1546 26.0724 19.1481 26.0751 19.1414 26.0751L16.3292 26.0748C16.3106 26.0748 16.3014 26.0655 16.3014 26.047C16.3012 24.9325 16.3017 23.8228 16.303 22.7179C16.303 22.703 16.2996 22.691 16.2928 22.6818ZM16.2862 16.3421C15.2812 17.6767 14.2715 19.0084 13.2569 20.3375C13.2542 20.341 13.2526 20.3453 13.2523 20.3497C13.2519 20.3541 13.2528 20.3586 13.2549 20.3625C13.257 20.3664 13.2602 20.3697 13.264 20.3719C13.2679 20.3741 13.2723 20.3752 13.2767 20.3749C13.824 20.3424 14.3742 20.3196 14.9237 20.3185C15.373 20.3174 15.8207 20.3173 16.2669 20.3182C16.2906 20.3182 16.3024 20.3064 16.3022 20.2829C16.302 19.633 16.3013 18.9912 16.3 18.3574C16.2994 18.0828 16.3261 17.5039 16.3799 16.6207C16.3876 16.4956 16.4138 16.3708 16.4317 16.2437C16.4324 16.239 16.4317 16.2341 16.4298 16.2297C16.4278 16.2253 16.4246 16.2215 16.4206 16.2189C16.4166 16.2162 16.4119 16.2148 16.4071 16.2147C16.4023 16.2146 16.3975 16.2159 16.3934 16.2184C16.3441 16.2479 16.316 16.303 16.2862 16.3421Z" fill="#232323"/>
<path d="M28.3035 14.6674L28.3013 15.583C28.3013 15.5887 28.2991 15.5941 28.2951 15.598C28.2911 15.602 28.2857 15.6043 28.2801 15.6043L25.6641 15.604C25.6584 15.604 25.653 15.6017 25.6491 15.5978C25.6451 15.5938 25.6429 15.5884 25.6429 15.5828L25.6426 12.8747C25.6426 12.8691 25.6448 12.8637 25.6488 12.8597C25.6528 12.8558 25.6582 12.8535 25.6638 12.8535H26.6188C26.6245 12.8535 26.6298 12.8558 26.6338 12.8597C26.6378 12.8637 26.64 12.8691 26.64 12.8747L26.6395 14.6253C26.6395 14.6309 26.6417 14.6363 26.6457 14.6403C26.6497 14.6442 26.6551 14.6465 26.6607 14.6465L28.2823 14.6462C28.2879 14.6462 28.2933 14.6484 28.2973 14.6524C28.3013 14.6564 28.3035 14.6618 28.3035 14.6674Z" fill="#232323"/>
</svg>
