<svg width="32" height="33" viewBox="0 0 32 33" fill="none" xmlns="http://www.w3.org/2000/svg">
<path d="M15.9324 32.1164H16.06C22.4136 32.1164 26.1015 31.4767 28.7138 28.9405C31.3774 26.2503 31.9924 22.5375 31.9924 16.2087V16.0297C31.9924 9.70284 31.3774 6.01486 28.7138 3.29789C26.1034 0.761804 22.3888 0.12207 16.0619 0.12207H15.9343C9.58078 0.12207 5.89087 0.761804 3.27864 3.29789C0.614983 5.9882 0 9.70284 0 16.0297V16.2087C0 22.5356 0.614983 26.2237 3.27864 28.9405C5.86614 31.4767 9.58078 32.1164 15.9324 32.1164Z" fill="#202022"/>
<path d="M28.1839 15.8765C28.1839 15.7546 28.0849 15.6537 27.963 15.648C23.5902 15.4824 20.9289 14.9246 19.067 13.0628C17.2013 11.1971 16.6454 8.53383 16.4798 4.15149C16.476 4.02965 16.3751 3.93066 16.2514 3.93066H15.7412C15.6194 3.93066 15.5184 4.02965 15.5127 4.15149C15.3471 8.53193 14.7912 11.1971 12.9256 13.0628C11.0619 14.9265 8.40236 15.4824 4.02954 15.648C3.9077 15.6518 3.80872 15.7527 3.80872 15.8765V16.3867C3.80872 16.5085 3.9077 16.6094 4.02954 16.6151C8.40236 16.7807 11.0638 17.3385 12.9256 19.2004C14.7874 21.0622 15.3433 23.718 15.5108 28.083C15.5146 28.2049 15.6155 28.3039 15.7393 28.3039H16.2514C16.3732 28.3039 16.4741 28.2049 16.4798 28.083C16.6474 23.718 17.2032 21.0622 19.0651 19.2004C20.9289 17.3366 23.5883 16.7807 27.9611 16.6151C28.083 16.6113 28.182 16.5104 28.182 16.3867V15.8765H28.1839Z" fill="white"/>
</svg>
