<svg width="32" height="33" viewBox="0 0 32 33" fill="none" xmlns="http://www.w3.org/2000/svg">
<path d="M0.158447 15.4821C0.158447 8.2413 0.158447 4.62092 2.3856 2.37149C4.61275 0.12207 8.19729 0.12207 15.3664 0.12207H16.6337C23.8028 0.12207 27.3873 0.12207 29.6145 2.37149C31.8416 4.62092 31.8416 8.2413 31.8416 15.4821V16.7621C31.8416 24.0028 31.8416 27.6232 29.6145 29.8727C27.3873 32.1221 23.8028 32.1221 16.6337 32.1221H15.3664C8.19729 32.1221 4.61275 32.1221 2.3856 29.8727C0.158447 27.6232 0.158447 24.0028 0.158447 16.7621V15.4821Z" fill="#0077FF"/>
<path d="M17.0165 23.1755C9.79541 23.1755 5.67663 18.1755 5.505 9.85547H9.12218C9.24099 15.9621 11.9076 18.5488 14.0198 19.0821V9.85547H17.4259V15.1221C19.5117 14.8954 21.7028 12.4955 22.4421 9.85547H25.8481C25.2805 13.1088 22.9042 15.5088 21.2145 16.4954C22.9042 17.2954 25.6106 19.3888 26.6403 23.1755H22.891C22.0858 20.6421 20.0793 18.6821 17.4259 18.4154V23.1755H17.0165Z" fill="white"/>
</svg>
