<svg width="33" height="28" viewBox="0 0 33 28" fill="none" xmlns="http://www.w3.org/2000/svg">
<path d="M23.4399 8.62369C23.4633 8.64643 23.4972 8.66072 23.5356 8.664C26.1366 8.90321 28.743 9.13804 31.3547 9.36851C32.0474 9.43032 32.5329 9.71219 32.8111 10.2141C33.1608 10.846 33.0137 11.6261 32.4714 12.0998C30.4913 13.832 28.5135 15.5666 26.5381 17.3035C26.3936 17.4305 26.3368 17.5652 26.3678 17.7076C26.9006 20.1561 27.4462 22.6015 28.0045 25.0439C28.0831 25.3886 28.1678 25.7615 28.1305 26.0961C28.0388 26.9297 27.2486 27.5656 26.4111 27.4235C26.2149 27.3899 25.934 27.2643 25.5685 27.0466C23.3908 25.7471 21.2061 24.4362 19.0143 23.1139C18.9499 23.0749 18.876 23.0543 18.8007 23.0543C18.7253 23.0543 18.6515 23.0749 18.587 23.1139C17.3507 23.8603 16.0885 24.6142 14.8004 25.3755C14.7299 25.4178 14.6647 25.4477 14.6049 25.4652C14.496 25.4981 14.4406 25.4578 14.4386 25.3443C14.3654 20.0046 14.2884 14.6635 14.2078 9.32114C14.2007 8.85953 14.2068 8.54205 14.3922 8.10564C15.3349 5.89102 16.279 3.67672 17.2243 1.46277C17.3523 1.16141 17.4975 0.815713 17.7152 0.58995C18.3179 -0.0319065 19.4215 0.0215106 19.9466 0.67058C20.0481 0.796228 20.2342 1.17552 20.505 1.80847C21.4638 4.05535 22.4253 6.30122 23.3895 8.54608C23.4036 8.58035 23.4204 8.60622 23.4399 8.62369Z" fill="#232323"/>
<path d="M10.1467 17.2593L8.25697 17.2604C8.23541 17.2604 8.21432 17.2665 8.19626 17.2782C8.1782 17.2898 8.16393 17.3063 8.15518 17.3259L3.651 27.2655C3.63111 27.3091 3.59915 27.346 3.55894 27.3719C3.51874 27.3979 3.47198 27.4116 3.42423 27.4116L0.0912019 27.4096C0.0753358 27.4097 0.0597247 27.4056 0.0459268 27.3978C0.0321288 27.39 0.0206267 27.3786 0.0125688 27.365C0.00451092 27.3513 0.000178914 27.3358 5.42428e-06 27.3199C-0.000168065 27.304 0.00382286 27.2884 0.01158 27.2746L5.66977 17.0477C5.67773 17.0332 5.67965 17.0162 5.67512 17.0004C5.67059 16.9845 5.65997 16.9711 5.64558 16.963C4.53894 16.3593 3.54114 15.551 2.75501 14.5653C1.10546 12.4972 0.52761 10.0692 1.02147 7.28142C1.57277 4.16609 3.68729 0.959046 6.99814 0.315017C7.38516 0.239762 8.05406 0.200791 9.00481 0.198104C10.2976 0.194072 11.6018 0.194408 12.9174 0.199111C12.9649 0.199111 13.0106 0.218013 13.0442 0.251657C13.0779 0.285301 13.0968 0.330932 13.0968 0.378512L13.0978 27.2937C13.0978 27.3244 13.0855 27.3539 13.0635 27.3757C13.0416 27.3974 13.0119 27.4096 12.9809 27.4096L10.31 27.4086C10.2421 27.4086 10.2082 27.3767 10.2082 27.3129L10.2052 17.3168C10.2052 17.2785 10.1857 17.2593 10.1467 17.2593ZM4.23557 10.807C4.55909 12.6211 5.44904 14.3023 7.37105 14.7316C8.10277 14.8949 9.14793 14.8243 9.98346 14.8253C10.0195 14.8253 10.0541 14.811 10.0797 14.7855C10.1052 14.76 10.1195 14.7254 10.1195 14.6893L10.1185 2.65932C10.1185 2.61929 10.103 2.58081 10.0751 2.55203C10.0473 2.52325 10.0094 2.50643 9.96935 2.50512C9.3485 2.48362 8.70917 2.48429 8.05137 2.50714C7.62806 2.52192 7.28001 2.58239 7.00721 2.68855C3.98158 3.86776 3.76892 8.18649 4.23557 10.807Z" fill="#232323"/>
</svg>
