<svg width="330" height="229" viewBox="0 0 330 229" fill="none" xmlns="http://www.w3.org/2000/svg">
<path d="M326.454 44.8526C326.305 44.8789 326.117 44.9115 325.89 44.9499C325.238 45.0599 324.262 45.2168 322.964 45.4049C320.368 45.781 316.481 46.2819 311.313 46.7827C300.977 47.7842 285.516 48.785 265 48.785C244.484 48.785 229.72 47.7842 220.08 46.7823C215.26 46.2814 211.721 45.7802 209.385 45.4036C208.217 45.2154 207.349 45.0583 206.773 44.948C206.484 44.8928 206.269 44.8494 206.124 44.8196C206.052 44.8047 205.998 44.7932 205.962 44.7854L205.92 44.7764L205.909 44.774L205.906 44.7734L205.906 44.7732C205.905 44.7731 205.905 44.7731 206.014 44.285L205.905 44.7731L205.889 44.7695L205.873 44.7647C201.839 43.5795 199.474 42.4409 198.286 41.1177C197.673 40.4354 197.371 39.7031 197.316 38.9116C197.262 38.1366 197.447 37.339 197.744 36.5197C198.04 35.7009 198.465 34.8177 198.919 33.8738L198.939 33.8327C199.392 32.8927 199.88 31.8795 200.333 30.7598C201.25 28.494 202.021 25.8022 202.021 22.5007C201.99 11.1718 193.879 0.5 179.97 0.5C176.851 0.5 171.032 1.35583 166.147 4.55049C161.3 7.72106 157.338 13.2129 157.877 22.6047M326.454 44.8526L157.378 22.6357M326.454 44.8526C326.538 45.1021 326.656 45.4837 326.798 46.0184C327.093 47.1308 327.488 48.9045 327.882 51.5267C328.668 56.7718 329.445 65.4057 329.39 78.9238C329.335 92.4448 328.613 101.083 327.908 106.332C327.556 108.957 327.207 110.733 326.949 111.848C326.82 112.406 326.713 112.798 326.64 113.048C326.603 113.173 326.575 113.262 326.556 113.319C326.547 113.347 326.54 113.367 326.536 113.38L326.531 113.393L326.531 113.394L326.531 113.395L326.53 113.395L326.454 44.8526ZM157.877 22.6047C157.877 22.6055 157.877 22.6063 157.877 22.607L157.378 22.6357M157.877 22.6047C157.877 22.6046 157.877 22.6045 157.877 22.6044L157.378 22.6357M157.877 22.6047C158.085 25.9232 158.888 28.6446 159.758 30.9382C160.119 31.8887 160.489 32.7619 160.836 33.58C160.909 33.7521 160.981 33.9218 161.052 34.0892C161.456 35.0451 161.818 35.9349 162.059 36.7598C162.299 37.5854 162.428 38.3798 162.341 39.1432C162.251 39.919 161.941 40.6334 161.354 41.296C160.209 42.5874 158.016 43.6714 154.375 44.7639L154.345 44.773L154.313 44.7782L154.231 44.285M157.378 22.6357C157.678 27.419 159.19 30.9799 160.377 33.7776C162.55 38.8979 163.639 41.462 154.231 44.285M154.231 44.285C154.313 44.7782 154.313 44.7783 154.313 44.7783L154.312 44.7785L154.309 44.779L154.295 44.7813L154.242 44.79C154.215 44.7943 154.181 44.7999 154.139 44.8066C154.108 44.8116 154.072 44.8173 154.033 44.8237C153.848 44.8532 153.574 44.8963 153.214 44.9512C152.495 45.0609 151.435 45.2175 150.07 45.4053C147.339 45.781 143.385 46.2818 138.49 46.7824C128.702 47.7837 115.147 48.785 100.084 48.785C79.2976 48.785 60.4316 46.8781 50.7328 45.6961C47.6755 45.3235 44.9641 48.0202 45.2592 51.1038C45.8353 57.1238 46.5 67.085 46.5 81C46.5 93.2637 45.9837 101.422 45.466 106.521C45.2071 109.071 44.9478 110.856 44.7523 112.007C44.6546 112.583 44.5728 113 44.515 113.275C44.4861 113.412 44.4632 113.515 44.4473 113.583C44.4393 113.617 44.4331 113.643 44.4287 113.661L44.4246 113.677M154.231 44.285L44.4246 113.677M44.4246 113.677L44.4236 113.682L44.4233 113.683C43.4969 117.759 42.4017 120.129 40.9954 121.291C39.5195 122.51 37.8287 122.311 36.0634 121.674C35.1792 121.355 34.2369 120.911 33.2508 120.443L33.1045 120.374C32.155 119.923 31.1567 119.449 30.0914 119.018C27.855 118.113 25.3522 117.411 22.5125 117.55C11.4405 118.098 5.97775 123.027 3.25128 128.082C0.502965 133.178 0.500229 138.467 0.500229 139.749V139.751C0.438627 154.419 13.0931 162.698 22.5719 161.73C25.5232 161.404 28.0758 160.509 30.3216 159.568C31.0325 159.27 31.7023 158.972 32.3476 158.685C32.7298 158.516 33.1034 158.349 33.4717 158.189C34.449 157.765 35.3749 157.39 36.2448 157.146C37.9982 156.654 39.6168 156.67 41.0297 157.941C42.382 159.156 43.464 161.458 44.4211 165.25C44.4213 165.251 44.4216 165.252 44.4219 165.254L44.427 165.273C44.4314 165.29 44.4376 165.314 44.4456 165.347C44.4615 165.411 44.4845 165.507 44.5135 165.636C44.5714 165.893 44.6533 166.281 44.7511 166.813C44.9468 167.876 45.2063 169.512 45.4654 171.82C45.9835 176.434 46.5 183.734 46.5 194.5C46.5 207.675 45.7265 217.641 45.1254 223.398C44.8462 226.072 46.9165 228.469 49.5815 228.5H326.524C326.602 228.285 326.715 227.944 326.853 227.451C327.129 226.465 327.5 224.876 327.869 222.486C328.607 217.706 329.335 209.733 329.28 197.002C329.225 184.268 328.531 176.376 327.854 171.676C327.515 169.326 327.181 167.777 326.935 166.821C326.811 166.343 326.71 166.014 326.641 165.808C326.606 165.704 326.58 165.632 326.563 165.587C326.554 165.565 326.548 165.549 326.544 165.54L326.541 165.533L326.541 165.532L326.541 165.531L326.54 165.531L326.531 165.509L326.523 165.484C325.391 161.884 324.377 159.92 323.335 158.946C322.83 158.474 322.322 158.238 321.781 158.157C321.228 158.075 320.606 158.148 319.87 158.351C319.132 158.554 318.313 158.878 317.371 159.272C317.157 159.361 316.937 159.454 316.711 159.55C315.949 159.871 315.117 160.223 314.214 160.569C311.866 161.471 309.013 162.353 305.471 162.683L305.425 162.186L305.471 162.684C297.236 163.451 291.412 160.179 287.677 155.258C283.961 150.36 282.327 143.854 282.364 138.119L44.4246 113.677Z" stroke="white"/>
</svg>
