<svg width="46" height="60" viewBox="0 0 46 60" fill="none" xmlns="http://www.w3.org/2000/svg">
<path d="M39.8516 0H6.01443C4.41931 0 2.88951 0.633662 1.76159 1.76159C0.633662 2.88951 0 4.41931 0 6.01443L0 53.9856C0 55.5807 0.633662 57.1105 1.76159 58.2384C2.88951 59.3663 4.41931 60 6.01443 60H39.8516C41.4468 60 42.9766 59.3663 44.1045 58.2384C45.2324 57.1105 45.8661 55.5807 45.8661 53.9856V6.01443C45.8661 4.41931 45.2324 2.88951 44.1045 1.76159C42.9766 0.633662 41.4468 0 39.8516 0ZM12.8589 51.7843C12.8589 52.2852 12.6599 52.7655 12.3057 53.1197C11.9516 53.4738 11.4712 53.6728 10.9703 53.6728H8.05934C7.55847 53.6728 7.07812 53.4738 6.72395 53.1197C6.36978 52.7655 6.17081 52.2852 6.17081 51.7843V48.8733C6.17081 48.3724 6.36978 47.8921 6.72395 47.5379C7.07812 47.1837 7.55847 46.9848 8.05934 46.9848H10.9703C11.4712 46.9848 11.9516 47.1837 12.3057 47.5379C12.6599 47.8921 12.8589 48.3724 12.8589 48.8733V51.7843ZM12.8589 39.996C12.8589 40.4969 12.6599 40.9772 12.3057 41.3314C11.9516 41.6856 11.4712 41.8845 10.9703 41.8845H8.05934C7.55847 41.8845 7.07812 41.6856 6.72395 41.3314C6.36978 40.9772 6.17081 40.4969 6.17081 39.996V37.085C6.17081 36.5841 6.36978 36.1038 6.72395 35.7496C7.07812 35.3954 7.55847 35.1965 8.05934 35.1965H10.9703C11.4712 35.1965 11.9516 35.3954 12.3057 35.7496C12.6599 36.1038 12.8589 36.5841 12.8589 37.085V39.996ZM12.8589 28.2077C12.8525 28.7044 12.6508 29.1786 12.2973 29.5276C11.9438 29.8765 11.4671 30.0722 10.9703 30.0722H8.05934C7.81032 30.0722 7.56376 30.0229 7.33384 29.9273C7.10393 29.8316 6.8952 29.6914 6.71968 29.5148C6.54415 29.3381 6.4053 29.1285 6.3111 28.898C6.2169 28.6675 6.16922 28.4206 6.17081 28.1716V25.2606C6.18026 24.766 6.3834 24.2949 6.73655 23.9485C7.08969 23.6021 7.56466 23.4081 8.05934 23.4082H10.9703C11.465 23.4081 11.94 23.6021 12.2931 23.9485C12.6463 24.2949 12.8494 24.766 12.8589 25.2606V28.2077ZM26.2831 51.7843C26.2831 52.2852 26.0841 52.7655 25.7299 53.1197C25.3758 53.4738 24.8954 53.6728 24.3945 53.6728H21.4715C20.9707 53.6728 20.4903 53.4738 20.1361 53.1197C19.782 52.7655 19.583 52.2852 19.583 51.7843V48.8733C19.583 48.3724 19.782 47.8921 20.1361 47.5379C20.4903 47.1837 20.9707 46.9848 21.4715 46.9848H24.3945C24.8954 46.9848 25.3758 47.1837 25.7299 47.5379C26.0841 47.8921 26.2831 48.3724 26.2831 48.8733V51.7843ZM26.2831 39.996C26.2831 40.4969 26.0841 40.9772 25.7299 41.3314C25.3758 41.6856 24.8954 41.8845 24.3945 41.8845H21.4715C20.9707 41.8845 20.4903 41.6856 20.1361 41.3314C19.782 40.9772 19.583 40.4969 19.583 39.996V37.085C19.583 36.5841 19.782 36.1038 20.1361 35.7496C20.4903 35.3954 20.9707 35.1965 21.4715 35.1965H24.3945C24.8954 35.1965 25.3758 35.3954 25.7299 35.7496C26.0841 36.1038 26.2831 36.5841 26.2831 37.085V39.996ZM26.2831 28.2077C26.2768 28.7044 26.075 29.1786 25.7215 29.5276C25.368 29.8765 24.8913 30.0722 24.3945 30.0722H21.4715C20.9707 30.0722 20.4903 29.8732 20.1361 29.519C19.782 29.1649 19.583 28.6845 19.583 28.1836V25.2606C19.583 24.7598 19.782 24.2794 20.1361 23.9252C20.4903 23.5711 20.9707 23.3721 21.4715 23.3721H24.3945C24.8954 23.3721 25.3758 23.5711 25.7299 23.9252C26.0841 24.2794 26.2831 24.7598 26.2831 25.2606V28.2077ZM39.6953 39.996V48.8492V51.7602C39.6953 52.2611 39.4963 52.7414 39.1421 53.0956C38.788 53.4498 38.3076 53.6488 37.8067 53.6488H34.8837C34.3828 53.6488 33.9025 53.4498 33.5483 53.0956C33.1942 52.7414 32.9952 52.2611 32.9952 51.7602V37.085C32.9952 36.5841 33.1942 36.1038 33.5483 35.7496C33.9025 35.3954 34.3828 35.1965 34.8837 35.1965H37.7947C38.0437 35.1949 38.2906 35.2426 38.5211 35.3368C38.7516 35.431 38.9612 35.5698 39.1379 35.7453C39.3145 35.9209 39.4547 36.1296 39.5504 36.3595C39.646 36.5894 39.6953 36.836 39.6953 37.085V39.996ZM39.6953 28.2077C39.6889 28.7044 39.4872 29.1786 39.1337 29.5276C38.7802 29.8765 38.3035 30.0722 37.8067 30.0722H34.8837C34.3828 30.0722 33.9025 29.8732 33.5483 29.519C33.1942 29.1649 32.9952 28.6845 32.9952 28.1836V25.2606C33.0046 24.766 33.2078 24.2949 33.5609 23.9485C33.9141 23.6021 34.389 23.4081 34.8837 23.4082H37.7947C38.2915 23.4049 38.7695 23.5975 39.1252 23.9443C39.481 24.291 39.6858 24.7639 39.6953 25.2606V28.2077ZM39.6953 17.5862H6.17081V7.21732H39.6953V17.5862Z" fill="#3A77DC"/>
</svg>
