<svg width="72" height="60" viewBox="0 0 72 60" fill="none" xmlns="http://www.w3.org/2000/svg">
<path fill-rule="evenodd" clip-rule="evenodd" d="M20.0756 2.04363C20.1272 3.22452 19.1763 4.22517 17.9518 4.27863C16.7272 4.3321 15.6928 3.41813 15.6412 2.23724C15.5896 1.05634 16.5405 0.055695 17.7651 0.00223099C18.9896 -0.0512331 20.0241 0.862731 20.0756 2.04363ZM46.5228 2.04465C46.5744 3.2259 45.6255 4.22675 44.4034 4.2801C43.1814 4.33346 42.1489 3.41912 42.0973 2.23787C42.0457 1.05663 42.9946 0.0557822 44.2167 0.00242571C45.4387 -0.0509308 46.4712 0.863405 46.5228 2.04465ZM10.9002 9.32547L10.9002 9.32548C11.0391 9.37068 11.175 9.4149 11.2878 9.46962C12.9153 10.26 13.7618 11.5699 13.8273 13.3993C13.8447 13.8866 13.7773 14.3897 13.6251 14.9089C12.8528 17.5433 10.3057 18.7978 7.72351 18.8131C5.64492 18.8254 3.5759 18.8311 1.51644 18.8303C1.48455 18.8303 1.46882 18.8146 1.46925 18.7831L1.47435 1.09808C1.47435 1.06747 1.48944 1.05216 1.51963 1.05216C3.3393 1.05854 5.16832 1.0596 7.0067 1.05535C8.40142 1.0528 9.85993 1.33276 10.9791 2.22177C13.261 4.03421 13.1557 7.61636 10.5378 9.12588C10.5314 9.1295 10.5261 9.13485 10.5226 9.14131C10.519 9.14777 10.5174 9.1551 10.5178 9.16247C10.5182 9.16983 10.5206 9.17693 10.5248 9.18298C10.5291 9.18902 10.5349 9.19376 10.5417 9.19667C10.6545 9.24551 10.7785 9.28587 10.9002 9.32547ZM5.09796 4.1337L5.09031 8.23305C5.09031 8.24109 5.09189 8.24905 5.09496 8.25648C5.09804 8.26391 5.10255 8.27066 5.10824 8.27634C5.11392 8.28203 5.12067 8.28654 5.1281 8.28962C5.13553 8.29269 5.14349 8.29428 5.15153 8.29428L6.7261 8.29683C7.02 8.29738 7.31113 8.24608 7.58286 8.14587C7.85458 8.04566 8.10157 7.89849 8.30974 7.71278C8.5179 7.52706 8.68315 7.30643 8.79605 7.06349C8.90895 6.82055 8.96729 6.56006 8.96773 6.29689V6.08261C8.96864 5.55125 8.73379 5.04123 8.31485 4.66475C7.89591 4.28826 7.32718 4.07614 6.73375 4.07502L5.15918 4.07247C5.14294 4.07247 5.12737 4.07892 5.11589 4.0904C5.10441 4.10189 5.09796 4.11746 5.09796 4.1337ZM5.10561 11.3694L5.08265 15.7169C5.08257 15.7245 5.08399 15.732 5.08684 15.739C5.08968 15.7461 5.0939 15.7525 5.09924 15.7579C5.10457 15.7633 5.11093 15.7676 5.11794 15.7705C5.12494 15.7734 5.13246 15.7749 5.14005 15.7749L7.67441 15.7883C7.98868 15.79 8.30015 15.7384 8.59104 15.6366C8.88193 15.5348 9.14654 15.3848 9.36974 15.195C9.59295 15.0053 9.77038 14.7796 9.89191 14.5308C10.0134 14.282 10.0767 14.015 10.078 13.745L10.0793 13.393C10.082 12.8479 9.83264 12.3239 9.38595 11.9362C8.93927 11.5484 8.33187 11.3288 7.69736 11.3254L5.16301 11.312C5.14778 11.312 5.13319 11.3181 5.12242 11.3288C5.11166 11.3396 5.10561 11.3542 5.10561 11.3694ZM27.1613 8.899C27.1651 8.89743 27.1692 8.89662 27.1733 8.89662H30.0846C30.1126 8.89661 30.14 8.88745 30.1624 8.87054C30.1848 8.85363 30.2012 8.82988 30.2089 8.80288L30.9914 6.10398C30.9926 6.09991 30.9928 6.09562 30.9921 6.09145C30.9913 6.08728 30.9896 6.08334 30.9871 6.07994C30.9845 6.07654 30.9812 6.07378 30.9775 6.07186C30.9754 6.07081 30.9732 6.07004 30.971 6.06954C30.9691 6.06913 30.9672 6.06892 30.9653 6.06891L27.2498 6.06955C27.1775 6.06955 27.1414 6.03341 27.1414 5.96113L27.144 2.09008C27.144 2.03396 27.117 2.01376 27.063 2.0295L23.5357 3.04349C23.5125 3.05028 23.4923 3.0644 23.4779 3.08373C23.4635 3.10306 23.4558 3.12654 23.4559 3.15063L23.4687 5.98154C23.4687 6.0042 23.4597 6.02594 23.4437 6.04196C23.4276 6.05799 23.4059 6.06699 23.3832 6.06699L21.178 6.06955C21.1329 6.06955 21.1104 6.09229 21.1104 6.13778L21.1129 8.82584C21.1129 8.84546 21.1207 8.86427 21.1346 8.87814C21.1484 8.89202 21.1673 8.89981 21.1869 8.89981L23.3781 8.89344C23.4381 8.89344 23.4681 8.92341 23.4681 8.98335C23.4668 11.1733 23.4593 13.3287 23.4457 15.4493C23.4336 17.3817 24.6593 18.8657 26.6044 19.0302C26.8523 19.0511 27.2366 19.057 27.7575 19.0481C28.9896 19.027 30.126 18.7745 31.2184 18.184C31.2448 18.1697 31.265 18.1461 31.275 18.1178C31.285 18.0896 31.2842 18.0586 31.2727 18.0309L30.2765 15.6611C30.274 15.6551 30.2703 15.6497 30.2654 15.6453C30.2606 15.6409 30.2549 15.6376 30.2486 15.6357C30.2424 15.6337 30.2358 15.6332 30.2292 15.634C30.2227 15.6349 30.2164 15.6372 30.2108 15.6407C29.5546 16.0501 27.973 16.5724 27.401 15.7861C27.1574 15.4519 27.1433 14.8888 27.1433 14.4609C27.1416 12.6157 27.1412 10.7713 27.142 8.92787C27.142 8.92377 27.1429 8.91971 27.1444 8.91591C27.146 8.91212 27.1483 8.90868 27.1512 8.90578C27.1526 8.90439 27.1541 8.90313 27.1557 8.90203C27.1575 8.90084 27.1594 8.89982 27.1613 8.899ZM36.0495 7.3516C36.0516 7.35812 36.0553 7.36401 36.0603 7.3687C36.0653 7.37339 36.0714 7.37672 36.078 7.37838C36.0847 7.38004 36.0916 7.37998 36.0982 7.37819C36.1049 7.37641 36.1109 7.37296 36.1158 7.36818C37.5928 5.91478 39.4078 5.20753 41.3707 6.22855C41.5199 6.30543 41.4881 6.37859 41.4407 6.48787L41.4269 6.51999C41.0493 7.4226 40.6624 8.33775 40.2662 9.26544C40.2613 9.2769 40.254 9.28718 40.2449 9.29563C40.2357 9.30408 40.2248 9.3105 40.213 9.31447C40.2011 9.31844 40.1885 9.31988 40.1761 9.31868C40.1636 9.31748 40.1515 9.31368 40.1406 9.30753C39.212 8.77864 38.2826 8.73187 37.3524 9.16723C37.0042 9.32985 36.6356 9.60025 36.3097 9.84578C36.2814 9.86697 36.2584 9.89449 36.2426 9.92615C36.2268 9.95781 36.2185 9.99273 36.2185 10.0282L36.2191 18.7887C36.2191 18.7987 36.2152 18.8083 36.2081 18.8153C36.201 18.8224 36.1915 18.8264 36.1815 18.8264H32.6255C32.6089 18.8264 32.593 18.8198 32.5813 18.8081C32.5696 18.7963 32.563 18.7804 32.563 18.7639V6.10291C32.563 6.08165 32.5738 6.07103 32.5955 6.07103L35.5878 6.06401C35.6036 6.06382 35.6191 6.06874 35.632 6.07804C35.6449 6.08734 35.6544 6.10053 35.6592 6.11567L36.0495 7.3516ZM16.0884 6.07023H19.6317C19.6606 6.07023 19.684 6.09364 19.684 6.12252V18.7765C19.684 18.8053 19.6606 18.8287 19.6317 18.8287H16.0884C16.0595 18.8287 16.0361 18.8053 16.0361 18.7765V6.12252C16.0361 6.09364 16.0595 6.07023 16.0884 6.07023ZM46.0656 6.07023H42.5478C42.5122 6.07023 42.4834 6.09907 42.4834 6.13464V18.7669C42.4834 18.8025 42.5122 18.8313 42.5478 18.8313H46.0656C46.1011 18.8313 46.13 18.8025 46.13 18.7669V6.13464C46.13 6.09907 46.1011 6.07023 46.0656 6.07023ZM54.1162 14.8872C54.1277 14.8848 54.1397 14.8868 54.1499 14.8928C54.1749 14.9076 54.199 14.9308 54.2219 14.9623C55.1513 16.2229 56.0797 17.4779 57.0069 18.7275C57.0305 18.7591 57.0611 18.7848 57.0963 18.8025C57.1315 18.8203 57.1703 18.8295 57.2097 18.8295L60.8633 18.8308C60.8709 18.8307 60.8783 18.8285 60.8846 18.8243C60.891 18.8201 60.8959 18.8141 60.8989 18.8072C60.9019 18.8002 60.9028 18.7925 60.9014 18.785C60.9001 18.7775 60.8966 18.7706 60.8914 18.7651C60.6278 18.4866 60.3788 18.1884 60.1446 17.8703C58.8512 16.1157 57.5165 14.3182 56.1402 12.4777C56.1246 12.4566 56.1162 12.4311 56.1162 12.405C56.1162 12.3788 56.1246 12.3533 56.1402 12.3323C57.6457 10.3276 59.1503 8.31155 60.6541 6.28398C60.6755 6.25506 60.7045 6.22919 60.7336 6.20313C60.7611 6.17863 60.7887 6.15397 60.8104 6.12646C60.8146 6.12119 60.8172 6.11484 60.818 6.10814C60.8187 6.10144 60.8176 6.09466 60.8146 6.08859C60.8117 6.08252 60.8071 6.0774 60.8014 6.07383C60.7957 6.07027 60.7891 6.06839 60.7823 6.06842L57.0834 6.06779C57.0732 6.06779 57.0629 6.06994 57.0534 6.0741C57.0439 6.07827 57.0352 6.08437 57.028 6.09202C56.9642 6.15962 56.8864 6.25507 56.7946 6.37836C55.9421 7.52629 55.0892 8.6825 54.236 9.847C54.2277 9.8585 54.2168 9.86788 54.2042 9.87436C54.1916 9.88085 54.1776 9.88426 54.1634 9.88433C54.1492 9.88439 54.1353 9.8811 54.1226 9.87472C54.1099 9.86835 54.0989 9.85907 54.0906 9.84764L51.3419 6.12646C51.3295 6.10946 51.3132 6.09563 51.2943 6.0861C51.2755 6.07657 51.2547 6.07161 51.2335 6.07161L47.6067 6.06906C47.5975 6.06906 47.5885 6.0716 47.5807 6.07641C47.5729 6.08121 47.5665 6.08808 47.5624 6.09627C47.5582 6.10446 47.5564 6.11364 47.5571 6.1228C47.5579 6.13195 47.5611 6.14072 47.5665 6.14814L52.1238 12.3316C52.1402 12.3539 52.149 12.381 52.1489 12.4088C52.1488 12.4365 52.1398 12.4636 52.1231 12.4859L47.4269 18.737C47.419 18.7476 47.4143 18.7602 47.4133 18.7734C47.4123 18.7865 47.4151 18.7997 47.4213 18.8113C47.4275 18.823 47.4369 18.8326 47.4484 18.8391C47.4599 18.8456 47.473 18.8487 47.4862 18.848C48.2875 18.8043 49.0992 18.813 49.9084 18.8216H49.9085H49.9086H49.9087H49.9087C50.3038 18.8259 50.6982 18.8301 51.0907 18.8282C51.112 18.8282 51.1325 18.8203 51.148 18.8059C51.211 18.7477 51.2818 18.666 51.3604 18.561C52.2707 17.3446 53.1797 16.1261 54.0874 14.9055C54.0944 14.8961 54.1047 14.8896 54.1162 14.8872ZM70.7603 39.0588C69.6196 41.6471 67.794 43.537 65.2834 44.7282C63.3492 45.6466 61.1522 45.9686 59.0451 45.6702C52.3834 44.7263 48.122 38.1232 49.9408 31.6611C50.4536 29.8401 51.4006 28.2415 52.7819 26.8653C54.2241 25.4283 55.9357 24.4621 57.917 23.9668C58.2031 23.8954 58.4899 23.8269 58.7773 23.7614C59.9928 23.4853 61.2134 23.4808 62.4283 23.7653C62.6758 23.8235 62.9232 23.8822 63.1706 23.9413C67.0787 24.8775 70.106 27.7855 71.2437 31.6611C71.3105 31.8885 71.4025 32.2527 71.5199 32.7535C71.8164 34.0213 71.8336 35.4122 71.5148 36.6781L71.5056 36.7145C71.3046 37.5144 71.1228 38.2377 70.7603 39.0588ZM66.2815 27.6746C65.0558 26.6823 63.3945 25.8902 61.7855 25.7263C60.6586 25.6115 59.3047 25.6396 58.2314 25.9361C57.5486 26.1249 56.8409 26.428 56.1084 26.8455C55.7249 27.0636 55.3724 27.3004 55.051 27.556C53.6046 28.7039 52.5781 30.1526 51.9714 31.9021C51.8332 32.3001 51.7335 32.712 51.6723 33.1381C51.4644 34.5819 51.5007 36.2228 52.0071 37.6086C53.06 40.4886 55.2729 42.5855 58.2473 43.4598C58.6006 43.5635 58.9939 43.6335 59.4271 43.6696C60.6809 43.7736 61.9793 43.7704 63.1572 43.3896C64.9212 42.8199 66.3823 41.8506 67.5404 40.4816C68.3535 39.5205 68.9485 38.3547 69.3171 37.1539C69.666 36.0155 69.6896 34.6897 69.5741 33.5105C69.5291 33.0492 69.4576 32.661 69.3599 32.346C69.0665 31.3977 68.5895 30.3346 67.9977 29.5087C67.49 28.8017 66.918 28.1903 66.2815 27.6746ZM9.02345 54.0614C9.01472 54.0572 9.00708 54.0511 9.00109 54.0435C8.97558 54.01 8.97218 53.9677 8.99089 53.9166C9.71153 51.9371 11.1624 50.302 12.802 48.9366C13.8054 48.1011 14.6406 47.4377 15.3077 46.9462C16.7094 45.9135 17.9738 44.9067 19.1009 43.9259C20.1729 42.9929 21.1238 41.9591 21.9171 40.787C23.006 39.179 23.537 37.3921 23.5102 35.4262C23.4979 34.4921 23.3565 33.5895 23.0861 32.7183C22.6601 31.3464 21.8995 30.1893 20.8043 29.2471C20.1355 28.6715 19.4582 28.2327 18.7725 27.9309C17.3448 27.3016 15.8187 26.9332 14.1942 26.8257C10.077 26.5534 5.97632 27.4226 2.20858 29.0539C1.88886 29.1921 1.56829 29.3279 1.24688 29.4614C1.19841 29.4818 1.18247 29.5169 1.19905 29.5666L2.91583 34.6724C2.91811 34.6792 2.92182 34.6855 2.92671 34.6908C2.93159 34.6961 2.93754 34.7003 2.94417 34.7031C2.9508 34.7059 2.95795 34.7073 2.96516 34.7072C2.97236 34.7071 2.97946 34.7054 2.98598 34.7023C4.26358 34.1016 5.57688 33.592 6.9259 33.1737C8.51301 32.6813 10.1866 32.4552 11.9468 32.4951C12.8179 32.5147 13.6189 32.6903 14.3498 33.0219C15.6131 33.5946 16.3363 34.7412 16.3886 36.1041C16.4492 37.6812 15.5678 39.0172 14.4493 40.0478C13.8851 40.5674 13.4378 40.9492 13.1075 41.1932C12.6844 41.5056 12.2594 41.8151 11.8347 42.1244L11.8347 42.1245L11.8346 42.1245C9.81269 43.5972 7.79573 45.0663 6.00438 46.8276C3.12564 49.657 1.28918 53.0583 0.494988 57.0313C0.329602 57.8604 0.165917 58.7615 0.00393204 59.7347C-0.0147748 59.8478 0.0332675 59.9043 0.14806 59.9043L23.8743 59.905C23.9322 59.905 23.9611 59.8761 23.9611 59.8182L23.9598 54.1245C23.9598 54.0871 23.9409 54.0684 23.903 54.0684L9.05147 54.0678C9.04175 54.0678 9.03217 54.0656 9.02345 54.0614ZM37.709 52.0503C37.7037 52.043 37.6968 52.037 37.6888 52.0329C37.6808 52.0288 37.672 52.0267 37.6631 52.0267L23.0596 52.0299C23.0303 52.0299 23.0156 52.0152 23.0156 51.9859C23.0199 50.596 23.0199 49.1998 23.0156 47.7972C23.0151 47.703 23.1501 47.5447 23.2313 47.4494C23.2496 47.428 23.2652 47.4097 23.2758 47.3961C28.6443 40.5872 34.0119 33.7779 39.3786 26.9682C39.4707 26.8512 39.581 26.852 39.7425 26.8532L39.7791 26.8534C41.2957 26.8576 42.8124 26.8613 44.3294 26.8642C44.3502 26.8642 44.3606 26.8749 44.3606 26.8961V46.5218C44.3606 46.5315 44.3638 46.541 44.3697 46.5489C44.3755 46.5567 44.3838 46.5624 44.3931 46.5651C44.4433 46.5792 44.4964 46.5862 44.5526 46.5862C46.1006 46.5832 47.646 46.5796 49.1889 46.5753C49.1989 46.5753 49.2084 46.5794 49.2155 46.5865C49.2226 46.5937 49.2265 46.6035 49.2265 46.6136L49.2246 52.0152C49.2246 52.0163 49.2245 52.0173 49.2243 52.0183C49.2241 52.0194 49.2238 52.0204 49.2234 52.0215C49.2226 52.0234 49.2214 52.0252 49.2199 52.0267C49.2184 52.0282 49.2166 52.0294 49.2147 52.0301L49.2121 52.0309C49.211 52.0311 49.2098 52.0312 49.2087 52.0312L44.4142 52.0267C44.407 52.0267 44.3998 52.0281 44.3932 52.0308C44.3901 52.0321 44.3872 52.0336 44.3844 52.0354C44.3811 52.0375 44.3781 52.0399 44.3754 52.0426C44.3703 52.0476 44.3663 52.0536 44.3635 52.0602C44.3608 52.0667 44.3593 52.0738 44.3593 52.0809L44.3606 59.846C44.3606 59.8614 44.3544 59.8761 44.3434 59.887C44.3324 59.8979 44.3175 59.904 44.3019 59.904L37.7932 59.9034C37.7503 59.9034 37.7288 59.8819 37.7288 59.8389C37.7284 57.2595 37.7297 54.6912 37.7326 52.1338C37.7326 52.0994 37.7248 52.0715 37.709 52.0503ZM37.6937 37.3773C35.3677 40.466 33.0306 43.5484 30.6825 46.6244C30.6763 46.6327 30.6726 46.6425 30.6718 46.6528C30.6709 46.663 30.6731 46.6733 30.6779 46.6824C30.6827 46.6915 30.69 46.699 30.699 46.7041C30.7079 46.7092 30.7181 46.7117 30.7284 46.7112C31.9949 46.6359 33.2685 46.583 34.5401 46.5804C35.5801 46.5779 36.6164 46.5777 37.6491 46.5798C37.7039 46.5798 37.7311 46.5526 37.7307 46.4982C37.7303 44.994 37.7286 43.5085 37.7256 42.0417C37.7243 41.4061 37.786 40.0662 37.9106 38.022C37.9227 37.8245 37.9548 37.6273 37.9871 37.4286C38.0022 37.336 38.0173 37.2431 38.0305 37.1496C38.0321 37.1386 38.0306 37.1273 38.026 37.1171C38.0215 37.1069 38.0141 37.0982 38.0048 37.0921C37.9955 37.0859 37.9846 37.0825 37.9735 37.0823C37.9623 37.0821 37.9513 37.0851 37.9418 37.0909C37.8556 37.1425 37.7974 37.2278 37.7444 37.3055C37.7272 37.3307 37.7106 37.3551 37.6937 37.3773ZM65.5026 35.6181L65.5077 33.4989C65.5077 33.4859 65.5026 33.4734 65.4933 33.4642C65.4841 33.455 65.4716 33.4498 65.4586 33.4498L61.7055 33.4504C61.6925 33.4504 61.68 33.4453 61.6708 33.4361C61.6616 33.4268 61.6564 33.4144 61.6564 33.4013L61.6577 29.3498C61.6577 29.3368 61.6525 29.3243 61.6433 29.3151C61.6341 29.3059 61.6216 29.3007 61.6086 29.3007H59.3982C59.3852 29.3007 59.3727 29.3059 59.3635 29.3151C59.3543 29.3243 59.3491 29.3368 59.3491 29.3498L59.3498 35.6175C59.3498 35.6305 59.3549 35.643 59.3641 35.6522C59.3733 35.6614 59.3858 35.6666 59.3989 35.6666L65.4535 35.6672C65.4665 35.6672 65.479 35.662 65.4883 35.6528C65.4975 35.6436 65.5026 35.6311 65.5026 35.6181Z" fill="#3A77DC"/>
</svg>
