<svg width="62" height="60" viewBox="0 0 62 60" fill="none" xmlns="http://www.w3.org/2000/svg">
<path fill-rule="evenodd" clip-rule="evenodd" d="M30.5336 0C13.6493 0 0 13.7499 0 30.7605C0 44.3579 8.74559 55.8679 20.878 59.9416C22.3949 60.2479 22.9505 59.2798 22.9505 58.4654C22.9505 57.7523 22.9005 55.3079 22.9005 52.761C14.4068 54.5948 12.6381 49.0942 12.6381 49.0942C11.2731 45.5292 9.25059 44.6129 9.25059 44.6129C6.4706 42.7286 9.45308 42.7286 9.45308 42.7286C12.5368 42.9323 14.1549 45.8861 14.1549 45.8861C16.8843 50.571 21.2824 49.2473 23.0518 48.4323C23.3043 46.4461 24.1136 45.0711 24.973 44.3073C18.1987 43.5942 11.0712 40.9461 11.0712 29.1305C11.0712 25.7693 12.2837 23.0193 14.2049 20.8805C13.9018 20.1168 12.8399 16.9587 14.5087 12.7318C14.5087 12.7318 17.0868 11.9168 22.8999 15.8893C25.3887 15.216 27.9554 14.8734 30.5336 14.8706C33.1117 14.8706 35.7398 15.2274 38.1667 15.8893C43.9804 11.9168 46.5586 12.7318 46.5586 12.7318C48.2273 16.9587 47.1648 20.1168 46.8617 20.8805C48.8335 23.0193 49.996 25.7693 49.996 29.1305C49.996 40.9461 42.8686 43.5429 36.0436 44.3073C37.1561 45.2748 38.1161 47.1079 38.1161 50.011C38.1161 54.136 38.0661 57.4466 38.0661 58.4648C38.0661 59.2798 38.6223 60.2479 40.1386 59.9423C52.271 55.8673 61.0166 44.3579 61.0166 30.7605C61.0666 13.7499 47.3673 0 30.5336 0Z" fill="#3A77DC"/>
</svg>
