<svg width="51" height="60" viewBox="0 0 51 60" fill="none" xmlns="http://www.w3.org/2000/svg">
<path d="M0.574489 29.3085C0.658194 28.9223 0.817137 28.5564 1.04224 28.2317C1.26735 27.907 1.55421 27.6298 1.88644 27.4159C2.21868 27.2021 2.58979 27.0557 2.97857 26.9853C3.36736 26.9149 3.76621 26.9217 4.15236 27.0054C4.53851 27.0891 4.90439 27.2481 5.22911 27.4732C5.55383 27.6983 5.83104 27.9851 6.04489 28.3174C6.25875 28.6496 6.40508 29.0207 6.47552 29.4095C6.54596 29.7983 6.53913 30.1971 6.45543 30.5833C6.15574 31.9337 6.0065 33.3131 6.01045 34.6963C6.01045 38.5187 7.14393 42.2553 9.26755 45.4336C11.3912 48.6118 14.4096 51.0889 17.941 52.5517C21.4725 54.0145 25.3584 54.3972 29.1074 53.6515C32.8564 52.9058 36.3 51.0651 39.0029 48.3622C41.7057 45.6594 43.5464 42.2157 44.2921 38.4667C45.0378 34.7178 44.6551 30.8318 43.1923 27.3004C41.7296 23.7689 39.2524 20.7505 36.0742 18.6269C32.896 16.5033 29.1594 15.3698 25.337 15.3698V22.5857C25.3706 22.8461 25.3495 23.1107 25.2751 23.3625C25.2007 23.6143 25.0746 23.8479 24.9048 24.0482C24.735 24.2485 24.5254 24.4112 24.2892 24.5259C24.0529 24.6406 23.7954 24.7048 23.533 24.7144C22.9845 24.6941 22.4608 24.4812 22.0537 24.113L10.4121 14.4317C10.111 14.1894 9.86803 13.8827 9.7011 13.5341C9.53416 13.1854 9.44751 12.8038 9.44751 12.4173C9.44751 12.0308 9.53416 11.6492 9.7011 11.3006C9.86803 10.952 10.111 10.6452 10.4121 10.4029L22.0537 0.601323C22.4608 0.233134 22.9845 0.0202155 23.533 0C23.7948 0.0113367 24.0514 0.0767007 24.2867 0.191984C24.5221 0.307268 24.731 0.469979 24.9004 0.669893C25.0698 0.869807 25.1961 1.1026 25.2712 1.35365C25.3463 1.6047 25.3687 1.86857 25.337 2.12868V9.34456C30.5763 9.34647 35.6861 10.9732 39.9623 14.0005C44.2385 17.0278 47.4706 21.3068 49.2133 26.2478C50.956 31.1888 51.1235 36.5487 49.6927 41.5889C48.2619 46.6291 45.3033 51.1015 41.2245 54.39C37.1456 57.6784 32.1474 59.6209 26.9184 59.95C21.6894 60.279 16.487 58.9783 12.0281 56.2272C7.56923 53.476 4.07328 49.4097 2.02196 44.5886C-0.0293582 39.7676 -0.535076 34.429 0.574489 29.3085Z" fill="#3A77DC"/>
</svg>
