<svg width="91" height="44" viewBox="0 0 91 44" fill="none" xmlns="http://www.w3.org/2000/svg">
<path fill-rule="evenodd" clip-rule="evenodd" d="M20.8617 21.9875L20.8617 25.8797C20.8617 31.7457 20.8618 37.6118 20.8608 43.4779C20.8607 43.5389 20.8616 43.5922 20.8624 43.6388C20.865 43.798 20.8664 43.8795 20.8263 43.9209C20.7842 43.9643 20.6965 43.9636 20.5168 43.9621H20.5164C20.4774 43.9618 20.434 43.9614 20.3858 43.9614C19.2118 43.9626 18.038 43.9624 16.8641 43.9622L15.4624 43.962C15.4317 43.962 15.4009 43.9615 15.37 43.9609C15.3096 43.9599 15.2492 43.9588 15.1889 43.9618C15.0592 43.9683 14.9954 43.918 15.0019 43.7814C15.0056 43.7026 15.0045 43.6236 15.0033 43.5445C15.0028 43.5063 15.0022 43.468 15.0022 43.4298L15.0022 37.7045C15.0023 27.2656 15.0023 16.8268 15.001 6.38817C15.001 6.3139 15.0022 6.25 15.0033 6.19502C15.0066 6.02555 15.0082 5.94097 14.9667 5.89947C14.9254 5.85813 14.8413 5.85956 14.6733 5.86243L14.6733 5.86243H14.6733C14.6214 5.86331 14.5615 5.86433 14.4924 5.86427C12.6348 5.86215 10.7773 5.86246 8.9198 5.86278L6.91221 5.86301C6.88363 5.86301 6.85502 5.86253 6.8264 5.86205H6.82637H6.82635C6.76374 5.861 6.70109 5.85995 6.63871 5.86391C6.49167 5.87311 6.41915 5.81466 6.4298 5.66203C6.43282 5.61856 6.43187 5.57476 6.43091 5.53097V5.53096C6.43045 5.50951 6.42998 5.48806 6.42998 5.46665V0.387102C6.42998 0.365097 6.43049 0.343071 6.43101 0.321045C6.43202 0.277883 6.43303 0.234722 6.43016 0.19172C6.42168 0.0638109 6.46841 -0.00636885 6.6066 0.00102786C6.65785 0.00375646 6.70925 0.00274168 6.76066 0.00172684C6.78743 0.00119842 6.8142 0.000669992 6.84094 0.000669992L10.2797 0.000646375C13.666 0.00061149 17.0523 0.000576605 20.4384 0.000846171C20.4752 0.000846171 20.5087 0.000596368 20.5394 0.000368216C20.7013 -0.000837462 20.7821 -0.00143847 20.822 0.0386263C20.8617 0.0784472 20.8611 0.15844 20.86 0.31794V0.317965C20.8597 0.348624 20.8595 0.382221 20.8595 0.419035C20.8599 6.1351 20.8599 11.851 20.8599 17.5671V17.6376L20.8599 21.9876C20.8606 21.9875 20.8611 21.9875 20.8617 21.9875ZM63.6642 43.9953C65.1427 43.9956 66.6213 43.996 68.0998 43.996H89.6335L89.6986 43.9961H89.6996C89.7427 43.9962 89.7858 43.9963 89.8288 43.996C90.1985 43.9932 90.1987 43.9933 90.2026 43.642C90.2029 43.6196 90.203 43.5973 90.203 43.5749L90.2029 43.5048L90.2028 43.4466V38.7569C90.2028 38.1881 90.2028 38.1879 89.6528 38.1879C87.9853 38.1879 86.3178 38.188 84.6504 38.1882C81.3154 38.1886 77.9805 38.1889 74.6456 38.1874C71.5789 38.1859 68.5123 38.1836 65.4458 38.1813C59.8103 38.1771 54.1749 38.1729 48.5394 38.1739C46.9197 38.174 45.316 38.0357 43.7205 37.7652C42.2375 37.5137 40.7921 37.13 39.4347 36.4778C32.506 33.1486 28.9043 25.556 30.7353 18.088C32.6469 10.2908 40.2747 4.68662 48.9449 6.0552C52.5935 6.63106 55.6867 8.31967 58.1915 11.0341C60.6654 13.7151 62.0751 16.887 62.4114 20.5282C62.4403 20.8398 62.4628 21.1508 62.4724 21.4634C62.4805 21.7301 62.4854 21.7303 62.7644 21.7378L62.7654 21.7378C62.7786 21.7382 62.7919 21.7382 62.8052 21.7382L62.8435 21.738L64.2341 21.7381C65.4641 21.7382 66.6941 21.7383 67.9241 21.7377C68.2922 21.7375 68.2922 21.7351 68.286 21.3842L68.286 21.3828C68.2633 20.0638 68.108 18.7593 67.8372 17.4699C65.8909 8.20439 58.0793 0.958142 48.2076 0.105356C45.9473 -0.0898444 43.7044 0.0709024 41.4928 0.579471C30.7091 3.05917 23.049 13.3617 24.6565 25.0391C25.1636 28.7223 26.5614 32.0582 28.7912 35.0349C30.8226 37.7468 33.3395 39.8937 36.3622 41.4362C39.677 43.1275 43.2469 43.7652 46.9186 43.9303C48.5764 44.0049 50.2377 44.002 51.8982 43.9991L52.3891 43.9983C56.1475 43.9935 59.9058 43.9944 63.6642 43.9953ZM63.648 34.632L68.2362 34.6322H68.7446L72.8959 34.6322C78.5211 34.6322 84.1462 34.6322 89.7715 34.6318C89.813 34.6318 89.8505 34.6322 89.8844 34.6325H89.8849C90.0404 34.6341 90.12 34.6349 90.1607 34.5955C90.2033 34.5541 90.203 34.4684 90.2024 34.2927L90.2023 34.2214L90.2024 32.941C90.2025 31.7524 90.2027 30.5637 90.2017 29.3751C90.2014 29.0339 90.1981 29.0338 89.8604 29.0289C89.8083 29.0282 89.7561 29.0287 89.704 29.0287L86.1989 29.0278C83.4589 29.0271 80.7189 29.0263 77.979 29.0262C75.3702 29.0261 72.7614 29.0263 70.1525 29.0264C63.5638 29.0269 56.9749 29.0273 50.3862 29.0233C50.1743 29.0232 49.9623 29.0238 49.7503 29.0245C48.4785 29.0285 47.2063 29.0325 45.9386 28.8654C44.8832 28.7264 43.8581 28.4918 42.9278 27.9666C40.4529 26.5696 39.0822 23.7805 39.5067 20.9647C40.1078 16.9786 43.7322 14.6066 47.2103 15.0834C49.8058 15.4392 51.6377 16.8453 52.7329 19.2144C53.0638 19.9299 53.2341 20.6921 53.2803 21.4792C53.2918 21.6733 53.3568 21.7435 53.563 21.7424C54.6635 21.7369 55.7642 21.737 56.8648 21.7372C57.4448 21.7373 58.0247 21.7374 58.6046 21.7366C58.8799 21.7363 58.8861 21.73 58.879 21.455C58.8588 20.6715 58.7464 19.8997 58.5713 19.1364C57.0941 12.6986 50.683 8.18732 43.6566 9.73413C36.8129 11.2405 32.5625 18.0073 34.1849 24.8265C35.1596 28.9237 37.6799 31.8001 41.5242 33.4934C43.2648 34.26 45.1398 34.4554 47.0153 34.5627C48.3087 34.6367 49.6056 34.635 50.9019 34.6334L51.3914 34.6329C55.477 34.6316 59.5625 34.6318 63.648 34.632ZM12.0586 29.9795L12.0585 26.37L12.0585 22.5469C12.0586 18.1033 12.0587 13.6598 12.058 9.21619C12.0579 9.17273 12.0583 9.13355 12.0586 9.09822V9.09811V9.0981C12.06 8.93315 12.0608 8.85234 12.0207 8.81334C11.9823 8.77589 11.9062 8.77701 11.7572 8.77922H11.7572H11.7571C11.7164 8.77982 11.6703 8.78051 11.6179 8.78051C8.76695 8.77996 5.91606 8.78078 3.06511 8.78159H3.06501H3.06491L0.44243 8.78231C0.408545 8.78231 0.374635 8.78271 0.340719 8.78311H0.3407H0.340681H0.340614C0.283376 8.78378 0.22612 8.78446 0.168934 8.78321C0.0554579 8.78087 0.00115523 8.83283 0.00368093 8.94703C0.00479768 8.99527 0.00411731 9.04365 0.0034368 9.09204C0.00301797 9.12182 0.00259908 9.15161 0.00259908 9.18137V14.0268C0.00259908 14.0478 0.00324231 14.069 0.00388541 14.0901C0.00522804 14.1343 0.00657007 14.1784 0.00205678 14.222C-0.0150819 14.3861 0.0765654 14.422 0.214397 14.4159C0.275496 14.4132 0.336839 14.4141 0.398153 14.4149C0.428084 14.4153 0.458008 14.4157 0.487893 14.4157C0.988724 14.4157 1.48957 14.4155 1.99042 14.4154H1.99044H1.99046C3.30005 14.4149 4.60969 14.4144 5.91924 14.4172C5.99073 14.4173 6.05236 14.4162 6.10549 14.4153C6.27015 14.4125 6.35301 14.411 6.39393 14.4518C6.43538 14.493 6.43379 14.5775 6.43057 14.7476C6.42953 14.8026 6.42832 14.8666 6.42835 14.9409C6.42981 22.6625 6.42973 30.3841 6.42965 38.1058L6.42961 43.4265C6.42961 43.4651 6.43014 43.5037 6.43067 43.5424C6.43174 43.621 6.43282 43.6997 6.42943 43.7781C6.42348 43.9147 6.49131 43.9628 6.61814 43.9585C6.67783 43.9564 6.7376 43.9572 6.79735 43.958C6.82879 43.9584 6.86022 43.9589 6.89164 43.9589C7.32758 43.9589 7.7635 43.959 8.19942 43.9592C9.32648 43.9596 10.4535 43.9601 11.5806 43.9576C11.6448 43.9575 11.7006 43.9583 11.7489 43.959C11.91 43.9613 11.9892 43.9624 12.0273 43.9234C12.0642 43.8856 12.0626 43.8102 12.0595 43.6619C12.0584 43.6117 12.0572 43.5532 12.0572 43.4849C12.0588 38.9831 12.0587 34.4813 12.0586 29.9795ZM79.8619 0.408214C77.7278 0.403343 75.9923 2.09484 75.9885 4.18396C75.9846 6.32106 77.721 8.06037 79.859 8.06127C81.9824 8.06218 83.7089 6.33261 83.704 4.20741C83.7001 2.086 82.0077 0.412183 79.8619 0.408214ZM79.8207 7.43779C78.0219 7.43183 76.605 6.00625 76.6079 4.20344C76.6108 2.43473 78.0746 1.01402 79.8814 1.02683C81.6324 1.03855 83.0785 2.47406 83.0845 4.20543C83.0914 6.00734 81.6412 7.44374 79.8207 7.43779ZM80.8372 4.2604L80.8205 4.27084C81.1861 4.46333 81.3033 4.75144 81.31 5.09927C81.3158 5.42274 81.3432 5.74513 81.3998 6.06373C80.6564 6.17702 80.6181 6.14581 80.6104 5.43446C80.6035 4.71518 80.4384 4.54722 79.7065 4.54524C79.4101 4.54424 79.286 4.52795 79.2349 4.58145C79.1842 4.63446 79.2053 4.75601 79.2014 5.02891C79.1965 5.30151 79.1935 5.57518 79.2023 5.84778C79.2073 6.01881 79.1722 6.11154 78.9688 6.10666C78.6861 6.09969 78.5696 6.10793 78.5232 6.05486C78.4783 6.00358 78.4988 5.89503 78.4978 5.66015C78.4938 4.6459 78.4958 3.63165 78.4978 2.6174C78.4978 2.30169 78.5027 2.2997 78.8213 2.29682C79.0111 2.296 79.201 2.29634 79.3907 2.29668C79.617 2.29708 79.8432 2.29749 80.0692 2.29592C80.2793 2.29502 80.4864 2.32135 80.6858 2.37999C81.2515 2.54722 81.5485 3.10126 81.398 3.6699C81.3215 3.95779 81.096 4.09871 80.8372 4.2604ZM79.6132 3.9915C79.8106 3.99385 80.0082 3.9962 80.203 3.97659C80.5402 3.94141 80.7258 3.71969 80.7298 3.40993C80.7338 3.08159 80.5413 2.86962 80.1826 2.82073C80.0687 2.80502 79.9515 2.80341 79.8355 2.80181C79.8222 2.80163 79.8089 2.80145 79.7957 2.80124C79.1996 2.79439 79.1996 2.79529 79.2005 3.38648C79.2005 3.43361 79.2007 3.48085 79.2009 3.52818C79.2014 3.62307 79.2018 3.71829 79.2005 3.81351C79.1987 3.91796 79.2288 3.99121 79.35 3.99031C79.4376 3.98942 79.5254 3.99046 79.6132 3.9915Z" fill="#3A77DC"/>
</svg>
