<svg width="60" height="60" viewBox="0 0 60 60" fill="none" xmlns="http://www.w3.org/2000/svg">
<path d="M58.7605 25.0181H52.503C51.9331 22.4569 50.9233 20.014 49.5187 17.7978L54.0072 13.3093C54.2314 13.0838 54.3572 12.7788 54.3572 12.4609C54.3572 12.143 54.2314 11.838 54.0072 11.6125L48.6763 6.26955C48.4508 6.04543 48.1458 5.91962 47.8279 5.91962C47.51 5.91962 47.205 6.04543 46.9795 6.26955L42.503 10.7341C40.2588 9.29247 37.778 8.25778 35.1745 7.6775V1.20337C35.1745 0.884216 35.0477 0.578134 34.822 0.352459C34.5964 0.126783 34.2903 0 33.9711 0L26.4741 0C26.155 0 25.8489 0.126783 25.6232 0.352459C25.3975 0.578134 25.2708 0.884216 25.2708 1.20337V7.6775C22.6149 8.27282 20.0878 9.34074 17.8099 10.8303L13.1528 6.11312C13.041 6.00033 12.9079 5.9108 12.7612 5.84971C12.6146 5.78862 12.4573 5.75716 12.2984 5.75716C12.1396 5.75716 11.9823 5.78862 11.8356 5.84971C11.689 5.9108 11.5559 6.00033 11.444 6.11312L6.11312 11.444C6.00033 11.5559 5.9108 11.689 5.84971 11.8356C5.78862 11.9823 5.75716 12.1396 5.75716 12.2984C5.75716 12.4573 5.78862 12.6146 5.84971 12.7612C5.9108 12.9079 6.00033 13.041 6.11312 13.1528L10.8303 17.87C9.45311 20.0689 8.46019 22.486 7.8941 25.0181H1.20337C0.884216 25.0181 0.578134 25.1448 0.352459 25.3705C0.126783 25.5962 0 25.9023 0 26.2214L0 33.7545C0 34.0737 0.126783 34.3797 0.352459 34.6054C0.578134 34.8311 0.884216 34.9579 1.20337 34.9579H7.8941C8.47439 37.5614 9.50907 40.0422 10.9507 42.2864L6.26956 46.9314C6.15676 47.0433 6.06724 47.1764 6.00615 47.323C5.94505 47.4697 5.9136 47.6269 5.9136 47.7858C5.9136 47.9447 5.94505 48.1019 6.00615 48.2486C6.06724 48.3952 6.15676 48.5283 6.26956 48.6402L11.6005 53.9711C11.8259 54.1952 12.1309 54.321 12.4489 54.321C12.7668 54.321 13.0718 54.1952 13.2972 53.9711L18.0505 49.3381C20.2671 50.7419 22.7099 51.7516 25.2708 52.3225V58.7966C25.2708 59.1158 25.3975 59.4219 25.6232 59.6475C25.8489 59.8732 26.155 60 26.4741 60H34.0193C34.3384 60 34.6445 59.8732 34.8702 59.6475C35.0958 59.4219 35.2226 59.1158 35.2226 58.7966V52.2864C37.74 51.7154 40.1412 50.7183 42.3225 49.3381L46.8231 53.8387C47.0486 54.0629 47.3536 54.1887 47.6715 54.1887C47.9894 54.1887 48.2944 54.0629 48.5199 53.8387L53.8508 48.5078C54.0749 48.2824 54.2007 47.9774 54.2007 47.6594C54.2007 47.3415 54.0749 47.0365 53.8508 46.8111L49.3983 42.3586C50.8678 40.093 51.9193 37.5824 52.503 34.9458H58.7605C59.0797 34.9458 59.3858 34.8191 59.6114 34.5934C59.8371 34.3677 59.9639 34.0616 59.9639 33.7425V26.2214C59.9639 25.9023 59.8371 25.5962 59.6114 25.3705C59.3858 25.1448 59.0797 25.0181 58.7605 25.0181ZM30.2046 41.1673C27.9901 41.1696 25.8247 40.515 23.9825 39.2862C22.1402 38.0574 20.7039 36.3097 19.8554 34.2642C19.0069 32.2188 18.7842 29.9676 19.2157 27.7956C19.6471 25.6235 20.7132 23.6283 22.2791 22.0625C23.8449 20.4966 25.8401 19.4305 28.0122 18.9991C30.1842 18.5676 32.4354 18.7903 34.4808 19.6388C36.5263 20.4873 38.274 21.9236 39.5028 23.7659C40.7316 25.6081 41.3863 27.7735 41.3839 29.988C41.3839 32.9529 40.2061 35.7964 38.1095 37.8929C36.013 39.9894 33.1695 41.1673 30.2046 41.1673Z" fill="#3A77DC"/>
</svg>
