<svg width="22" height="18" viewBox="0 0 22 18" fill="none" xmlns="http://www.w3.org/2000/svg">
<path d="M18.7 0.000244141H3.3C2.42479 0.000244141 1.58542 0.347922 0.966548 0.966792C0.347678 1.58566 0 2.42503 0 3.30024V14.3002C0 15.1755 0.347678 16.0148 0.966548 16.6337C1.58542 17.2526 2.42479 17.6002 3.3 17.6002H18.7C19.5752 17.6002 20.4146 17.2526 21.0335 16.6337C21.6523 16.0148 22 15.1755 22 14.3002V3.30024C22 2.42503 21.6523 1.58566 21.0335 0.966792C20.4146 0.347922 19.5752 0.000244141 18.7 0.000244141ZM18.7 2.20024L11.55 7.11724C11.3828 7.21379 11.1931 7.26462 11 7.26462C10.8069 7.26462 10.6172 7.21379 10.45 7.11724L3.3 2.20024H18.7Z" fill="white"/>
</svg>
