<svg width="22" height="22" viewBox="0 0 22 22" fill="none" xmlns="http://www.w3.org/2000/svg">
<path fill-rule="evenodd" clip-rule="evenodd" d="M0 11.0061C0 4.93072 4.92462 0.00610352 11 0.00610352C17.0754 0.00610352 22 4.93072 22 11.0061C22 17.0815 17.0754 22.0061 11 22.0061C4.92462 22.0061 0 17.0815 0 11.0061ZM15.0728 8.95954C15.1405 8.86934 15.1895 8.76652 15.2169 8.65712C15.2443 8.54772 15.2495 8.43396 15.2323 8.3225C15.2151 8.21105 15.1758 8.10416 15.1167 8.00812C15.0575 7.91208 14.9798 7.82882 14.8881 7.76325C14.7963 7.69767 14.6924 7.65109 14.5824 7.62626C14.4724 7.60142 14.3585 7.59883 14.2475 7.61862C14.1365 7.63842 14.0305 7.68021 13.9359 7.74154C13.8413 7.80287 13.7598 7.8825 13.6964 7.97574L10.0455 13.0865L8.21333 11.2543C8.05293 11.1048 7.84078 11.0235 7.62156 11.0273C7.40235 11.0312 7.1932 11.12 7.03817 11.275C6.88314 11.4301 6.79434 11.6392 6.79047 11.8584C6.7866 12.0776 6.86797 12.2898 7.01744 12.4502L9.5559 14.9887C9.64276 15.0755 9.74747 15.1423 9.86276 15.1846C9.97805 15.2268 10.1012 15.2435 10.2235 15.2334C10.3459 15.2233 10.4646 15.1867 10.5714 15.1261C10.6782 15.0656 10.7706 14.9825 10.8421 14.8826L15.0728 8.95954Z" fill="#0C5ADB"/>
</svg>
