<svg width="23" height="23" viewBox="0 0 23 23" fill="none" xmlns="http://www.w3.org/2000/svg">
<path fill-rule="evenodd" clip-rule="evenodd" d="M19.3348 3.77818C15.0389 -0.517771 8.07441 -0.517771 3.77847 3.77818C-0.51748 8.07412 -0.517481 15.0386 3.77847 19.3345C8.07441 23.6305 15.0389 23.6305 19.3348 19.3345C23.6308 15.0386 23.6308 8.07412 19.3348 3.77818ZM12.4023 7.96642C12.4063 7.85286 12.3874 7.73966 12.3467 7.63356C12.306 7.52747 12.2443 7.43065 12.1654 7.3489C12.0865 7.26715 11.9919 7.20212 11.8873 7.15772C11.7827 7.11331 11.6703 7.09042 11.5566 7.09042C11.443 7.09042 11.3305 7.11331 11.2259 7.15772C11.1214 7.20212 11.0268 7.26715 10.9479 7.3489C10.8689 7.43065 10.8073 7.52747 10.7666 7.63356C10.7259 7.73966 10.707 7.85286 10.711 7.96642L10.711 10.7107H7.96671C7.85315 10.7067 7.73995 10.7256 7.63385 10.7663C7.52776 10.807 7.43094 10.8686 7.34919 10.9476C7.26744 11.0265 7.20242 11.1211 7.15801 11.2257C7.1136 11.3303 7.09071 11.4427 7.09071 11.5563C7.09071 11.67 7.1136 11.7824 7.15801 11.887C7.20242 11.9916 7.26744 12.0862 7.34919 12.1651C7.43095 12.2441 7.52776 12.3057 7.63385 12.3464C7.73995 12.3871 7.85315 12.406 7.96671 12.402L10.711 12.402V15.1463C10.707 15.2598 10.7259 15.373 10.7666 15.4791C10.8073 15.5852 10.8689 15.682 10.9479 15.7638C11.0268 15.8456 11.1214 15.9106 11.2259 15.955C11.3305 15.9994 11.443 16.0223 11.5566 16.0223C11.6703 16.0223 11.7827 15.9994 11.8873 15.955C11.9919 15.9106 12.0865 15.8456 12.1654 15.7638C12.2443 15.682 12.306 15.5852 12.3467 15.4791C12.3874 15.373 12.4063 15.2598 12.4023 15.1463V12.402L15.1466 12.402C15.2601 12.406 15.3733 12.3871 15.4794 12.3464C15.5855 12.3057 15.6823 12.2441 15.7641 12.1651C15.8458 12.0862 15.9109 11.9916 15.9553 11.887C15.9997 11.7824 16.0226 11.67 16.0226 11.5563C16.0226 11.4427 15.9997 11.3303 15.9553 11.2257C15.9109 11.1211 15.8458 11.0265 15.7641 10.9476C15.6823 10.8686 15.5855 10.807 15.4794 10.7663C15.3733 10.7256 15.2601 10.7067 15.1466 10.7107H12.4023L12.4023 7.96642Z" fill="#3A77DC"/>
</svg>
