<svg width="54" height="64" viewBox="0 0 54 64" fill="none" xmlns="http://www.w3.org/2000/svg">
<path fill-rule="evenodd" clip-rule="evenodd" d="M0 58.6644C0 60.0788 0.561882 61.4353 1.56204 62.4355C2.56219 63.4357 3.91869 63.9975 5.33313 63.9975H47.9982C49.4126 63.9975 50.7691 63.4357 51.7692 62.4355C52.7694 61.4353 53.3313 60.0788 53.3313 58.6644V31.9988C53.3313 30.5843 52.7694 29.2278 51.7692 28.2277C50.7691 27.2275 49.4126 26.6656 47.9982 26.6656H15.9994V17.3327C15.9994 14.5038 17.1231 11.7908 19.1235 9.79048C21.1238 7.79017 23.8368 6.66641 26.6656 6.66641C29.4945 6.66641 32.2075 7.79017 34.2078 9.79048C36.2081 11.7908 37.3319 14.5038 37.3319 17.3327V17.9993C37.3319 18.8833 37.6831 19.7311 38.3082 20.3562C38.9333 20.9813 39.7811 21.3325 40.6651 21.3325C41.5491 21.3325 42.3969 20.9813 43.022 20.3562C43.6471 19.7311 43.9983 18.8833 43.9983 17.9993V17.3327C43.9983 12.7358 42.1722 8.32713 38.9217 5.07662C35.6712 1.82611 31.2625 0 26.6656 0C22.0687 0 17.6601 1.82611 14.4096 5.07662C11.1591 8.32713 9.33297 12.7358 9.33297 17.3327V26.6656H5.33313C3.91869 26.6656 2.56219 27.2275 1.56204 28.2277C0.561882 29.2278 0 30.5843 0 31.9988L0 58.6644ZM21.3325 41.3317C21.3325 40.4068 21.573 39.4978 22.0304 38.6939C22.4878 37.89 23.1464 37.2189 23.9416 36.7465C24.7367 36.2741 25.6411 36.0166 26.5658 35.9992C27.4906 35.9819 28.4039 36.2054 29.2162 36.6478C30.0285 37.0901 30.7118 37.7361 31.199 38.5223C31.6861 39.3085 31.9605 40.2079 31.995 41.1322C32.0296 42.0564 31.8232 42.9738 31.3961 43.7942C30.969 44.6146 30.3358 45.3098 29.5589 45.8116C29.5589 45.8116 30.0788 48.9581 30.6655 52.6646C30.6655 53.1951 30.4548 53.7037 30.0797 54.0788C29.7047 54.4539 29.196 54.6646 28.6656 54.6646H24.6657C24.1353 54.6646 23.6266 54.4539 23.2516 54.0788C22.8765 53.7037 22.6658 53.1951 22.6658 52.6646L23.7724 45.8116C23.0238 45.3281 22.4083 44.6649 21.9821 43.8823C21.5559 43.0997 21.3326 42.2228 21.3325 41.3317Z" fill="#3A77DC"/>
</svg>
