<svg width="63" height="55" viewBox="0 0 63 55" fill="none" xmlns="http://www.w3.org/2000/svg">
<path fill-rule="evenodd" clip-rule="evenodd" d="M0 38.6652C0 40.0796 0.561877 41.4361 1.56203 42.4363C2.56219 43.4364 3.91869 43.9983 5.33313 43.9983H13.3328V52.2113C13.3328 52.9185 13.6138 53.5968 14.1138 54.0969C14.6139 54.5969 15.2922 54.8779 15.9994 54.8779C16.6989 54.8749 17.3693 54.5972 17.866 54.1046L27.9989 43.9983H57.3311C58.7456 43.9983 60.1021 43.4364 61.1022 42.4363C62.1024 41.4361 62.6643 40.0796 62.6643 38.6652V5.33313C62.6643 3.91869 62.1024 2.56219 61.1022 1.56204C60.1021 0.561881 58.7456 0 57.3311 0H5.33313C3.91869 0 2.56219 0.561881 1.56203 1.56204C0.561877 2.56219 0 3.91869 0 5.33313V38.6652ZM15.9994 23.3324C15.9994 22.6732 16.1949 22.0287 16.5611 21.4806C16.9274 20.9325 17.448 20.5052 18.057 20.253C18.6661 20.0007 19.3363 19.9347 19.9829 20.0633C20.6294 20.1919 21.2234 20.5093 21.6895 20.9755C22.1557 21.4417 22.4731 22.0356 22.6017 22.6822C22.7304 23.3287 22.6644 23.9989 22.4121 24.608C22.1598 25.2171 21.7326 25.7376 21.1844 26.1039C20.6363 26.4702 19.9918 26.6656 19.3326 26.6656C18.8944 26.6674 18.4601 26.5824 18.0549 26.4155C17.6497 26.2486 17.2816 26.0032 16.9717 25.6933C16.6619 25.3834 16.4164 25.0153 16.2495 24.6101C16.0826 24.2049 15.9976 23.7707 15.9994 23.3324ZM27.9989 23.3324C27.9989 22.6732 28.1944 22.0287 28.5607 21.4806C28.9269 20.9325 29.4475 20.5052 30.0566 20.253C30.6656 20.0007 31.3358 19.9347 31.9824 20.0633C32.629 20.1919 33.2229 20.5093 33.6891 20.9755C34.1552 21.4417 34.4727 22.0356 34.6013 22.6822C34.7299 23.3287 34.6639 23.9989 34.4116 24.608C34.1593 25.2171 33.7321 25.7376 33.184 26.1039C32.6358 26.4702 31.9914 26.6656 31.3321 26.6656C30.8939 26.6674 30.4597 26.5824 30.0545 26.4155C29.6493 26.2486 29.2811 26.0032 28.9713 25.6933C28.6614 25.3834 28.4159 25.0153 28.2491 24.6101C28.0822 24.2049 27.9972 23.7707 27.9989 23.3324ZM39.9985 23.3324C39.9985 22.6732 40.1939 22.0287 40.5602 21.4806C40.9265 20.9325 41.447 20.5052 42.0561 20.253C42.6652 20.0007 43.3354 19.9347 43.9819 20.0633C44.6285 20.1919 45.2224 20.5093 45.6886 20.9755C46.1548 21.4417 46.4722 22.0356 46.6008 22.6822C46.7294 23.3287 46.6634 23.9989 46.4111 24.608C46.1589 25.2171 45.7316 25.7376 45.1835 26.1039C44.6353 26.4702 43.9909 26.6656 43.3317 26.6656C42.8934 26.6674 42.4592 26.5824 42.054 26.4155C41.6488 26.2486 41.2807 26.0032 40.9708 25.6933C40.6609 25.3834 40.4155 25.0153 40.2486 24.6101C40.0817 24.2049 39.9967 23.7707 39.9985 23.3324Z" fill="#3A77DC"/>
</svg>
