<svg width="43" height="64" viewBox="0 0 43 64" fill="none" xmlns="http://www.w3.org/2000/svg">
<path fill-rule="evenodd" clip-rule="evenodd" d="M5.33313 0C3.91869 0 2.56221 0.561882 1.56205 1.56204C0.561898 2.56219 0 3.91869 0 5.33313V18.6659C8.69795e-05 19.5556 0.178264 20.4363 0.524028 21.2561C0.869792 22.0758 1.37616 22.8181 2.01327 23.4391L7.81303 29.2389C4.84415 31.9624 2.76706 35.5191 1.85383 39.4431C0.940605 43.3671 1.23385 47.4755 2.69511 51.23C4.15637 54.9845 6.71752 58.2102 10.0431 60.4845C13.3687 62.7587 17.3036 63.9756 21.3325 63.9756C25.3614 63.9756 29.2963 62.7587 32.6219 60.4845C35.9475 58.2102 38.5087 54.9845 39.9699 51.23C41.4312 47.4755 41.7244 43.3671 40.8112 39.4431C39.898 35.5191 37.8209 31.9624 34.852 29.2389L40.6518 23.4391C41.2889 22.8181 41.7953 22.0758 42.141 21.2561C42.4868 20.4363 42.6649 19.5556 42.665 18.6659V5.33313C42.665 3.91869 42.1031 2.56219 41.103 1.56204C40.1028 0.561882 38.7463 0 37.3319 0H5.33313ZM21.3325 33.3321C21.5507 33.3297 21.764 33.3969 21.9414 33.524C22.1188 33.651 22.2511 33.8313 22.3191 34.0387L24.7457 39.9985H30.9722C31.2539 40.0311 31.5139 40.1657 31.703 40.377C31.8922 40.5883 31.9974 40.8615 31.9988 41.1451C32.0005 41.3021 31.9638 41.4571 31.8917 41.5965C31.8197 41.736 31.7145 41.8557 31.5855 41.945L26.3457 45.5049C26.3457 45.5049 28.0923 51.838 28.0923 52.0247C28.1124 52.1259 28.1124 52.2301 28.0923 52.3313C28.0923 52.4649 28.0656 52.5972 28.0137 52.7202C27.9618 52.8433 27.8857 52.9548 27.79 53.048C27.6943 53.1412 27.5809 53.2143 27.4565 53.263C27.3321 53.3116 27.1992 53.3348 27.0656 53.3313C26.8222 53.3318 26.5863 53.2468 26.399 53.0913L21.2925 49.0914L16.1861 53.0913C15.9988 53.2468 15.7629 53.3318 15.5194 53.3313C15.3859 53.3348 15.253 53.3116 15.1285 53.263C15.0041 53.2143 14.8907 53.1412 14.795 53.048C14.6993 52.9548 14.6233 52.8433 14.5714 52.7202C14.5195 52.5972 14.4927 52.4649 14.4928 52.3313C14.4727 52.2301 14.4727 52.1259 14.4928 52.0247L16.2527 45.5316L10.9863 41.945C10.8572 41.8557 10.752 41.736 10.68 41.5965C10.6079 41.4571 10.5712 41.3021 10.5729 41.1451C10.5743 40.8615 10.6795 40.5883 10.8687 40.377C11.0579 40.1657 11.3179 40.0311 11.5996 39.9985H17.826L20.2526 34.0387C20.3246 33.8151 20.4711 33.623 20.6676 33.4944C20.8642 33.3659 21.0988 33.3085 21.3325 33.3321ZM11.9995 9.33297V18.6659C11.9995 19.3732 11.7186 20.0514 11.2185 20.5515C10.7184 21.0516 10.0402 21.3325 9.33297 21.3325C8.62576 21.3325 7.94752 21.0516 7.44745 20.5515C6.94737 20.0514 6.66641 19.3732 6.66641 18.6659V9.33297C6.66641 8.62576 6.94737 7.94751 7.44745 7.44743C7.94752 6.94735 8.62576 6.66641 9.33297 6.66641C10.0402 6.66641 10.7184 6.94735 11.2185 7.44743C11.7186 7.94751 11.9995 8.62576 11.9995 9.33297ZM23.9991 9.33297V21.3325C23.9991 22.0397 23.7181 22.718 23.2181 23.2181C22.718 23.7181 22.0397 23.9991 21.3325 23.9991C20.6253 23.9991 19.9471 23.7181 19.447 23.2181C18.9469 22.718 18.6659 22.0397 18.6659 21.3325V9.33297C18.6659 8.62576 18.9469 7.94751 19.447 7.44743C19.9471 6.94735 20.6253 6.66641 21.3325 6.66641C22.0397 6.66641 22.718 6.94735 23.2181 7.44743C23.7181 7.94751 23.9991 8.62576 23.9991 9.33297ZM35.9986 9.33297V18.6659C35.9986 19.3732 35.7177 20.0514 35.2176 20.5515C34.7175 21.0516 34.0393 21.3325 33.3321 21.3325C32.6248 21.3325 31.9466 21.0516 31.4465 20.5515C30.9464 20.0514 30.6655 19.3732 30.6655 18.6659V9.33297C30.6655 8.62576 30.9464 7.94751 31.4465 7.44743C31.9466 6.94735 32.6248 6.66641 33.3321 6.66641C34.0393 6.66641 34.7175 6.94735 35.2176 7.44743C35.7177 7.94751 35.9986 8.62576 35.9986 9.33297Z" fill="#3A77DC"/>
</svg>
