<svg width="63" height="63" viewBox="0 0 63 63" fill="none" xmlns="http://www.w3.org/2000/svg">
<path fill-rule="evenodd" clip-rule="evenodd" d="M31.5 7.5C18.2452 7.5 7.5 18.2452 7.5 31.5C7.5 44.7548 18.2452 55.5 31.5 55.5C44.7548 55.5 55.5 44.7548 55.5 31.5C55.5 18.2452 44.7548 7.5 31.5 7.5ZM0.5 31.5C0.5 14.3792 14.3792 0.5 31.5 0.5C48.6208 0.5 62.5 14.3792 62.5 31.5C62.5 48.6208 48.6208 62.5 31.5 62.5C14.3792 62.5 0.5 48.6208 0.5 31.5ZM31.5002 18.5C24.3205 18.5 18.5002 24.3203 18.5002 31.5C18.5002 38.6797 24.3205 44.5 31.5002 44.5C38.6799 44.5 44.5002 38.6797 44.5002 31.5C44.5002 24.3203 38.6799 18.5 31.5002 18.5ZM11.5002 31.5C11.5002 20.4543 20.4545 11.5 31.5002 11.5C42.5459 11.5 51.5002 20.4543 51.5002 31.5C51.5002 42.5456 42.5459 51.5 31.5002 51.5C20.4545 51.5 11.5002 42.5456 11.5002 31.5ZM29.5004 31.4999C29.5004 30.3953 30.3958 29.4999 31.5004 29.4999C32.605 29.4999 33.5004 30.3953 33.5004 31.4999C33.5004 32.6045 32.605 33.4999 31.5004 33.4999C30.3958 33.4999 29.5004 32.6045 29.5004 31.4999ZM31.5004 22.4999C26.5298 22.4999 22.5004 26.5293 22.5004 31.4999C22.5004 36.4705 26.5298 40.4999 31.5004 40.4999C36.4709 40.4999 40.5004 36.4705 40.5004 31.4999C40.5004 26.5293 36.4709 22.4999 31.5004 22.4999Z" fill="#0C5ADB"/>
</svg>
