<svg width="134" height="48" viewBox="0 0 134 48" fill="none" xmlns="http://www.w3.org/2000/svg">
<path d="M62.3555 21V3.86719H64.3477V19.1953H71.9062V21H62.3555ZM84.375 21H74.8242V3.86719H84.375V5.63672H76.8164V11.1562H83.918V12.9141H76.8164V19.2188H84.375V21ZM98.9531 21L96.8203 15.5508H89.9531L87.8438 21H85.8281L92.6016 3.79688H94.2773L101.016 21H98.9531ZM96.1992 13.7578L94.207 8.44922C93.9492 7.77734 93.6836 6.95312 93.4102 5.97656C93.2383 6.72656 92.9922 7.55078 92.6719 8.44922L90.6562 13.7578H96.1992ZM117.047 12.2695C117.047 15.0977 116.277 17.2617 114.738 18.7617C113.207 20.2539 111 21 108.117 21H103.371V3.86719H108.621C111.285 3.86719 113.355 4.60547 114.832 6.08203C116.309 7.55859 117.047 9.62109 117.047 12.2695ZM114.938 12.3398C114.938 10.1055 114.375 8.42188 113.25 7.28906C112.133 6.15625 110.469 5.58984 108.258 5.58984H105.363V19.2773H107.789C110.164 19.2773 111.949 18.6953 113.145 17.5312C114.34 16.3594 114.938 14.6289 114.938 12.3398ZM72.2695 40.2422C72.2695 41.7891 71.7109 43.0078 70.5938 43.8984C69.4844 44.7891 67.9375 45.2344 65.9531 45.2344C64.125 45.2344 62.5078 44.8906 61.1016 44.2031V40.8281C62.2578 41.3438 63.2344 41.707 64.0312 41.918C64.8359 42.1289 65.5703 42.2344 66.2344 42.2344C67.0312 42.2344 67.6406 42.082 68.0625 41.7773C68.4922 41.4727 68.707 41.0195 68.707 40.418C68.707 40.082 68.6133 39.7852 68.4258 39.5273C68.2383 39.2617 67.9609 39.0078 67.5938 38.7656C67.2344 38.5234 66.4961 38.1367 65.3789 37.6055C64.332 37.1133 63.5469 36.6406 63.0234 36.1875C62.5 35.7344 62.082 35.207 61.7695 34.6055C61.457 34.0039 61.3008 33.3008 61.3008 32.4961C61.3008 30.9805 61.8125 29.7891 62.8359 28.9219C63.8672 28.0547 65.2891 27.6211 67.1016 27.6211C67.9922 27.6211 68.8398 27.7266 69.6445 27.9375C70.457 28.1484 71.3047 28.4453 72.1875 28.8281L71.0156 31.6523C70.1016 31.2773 69.3438 31.0156 68.7422 30.8672C68.1484 30.7188 67.5625 30.6445 66.9844 30.6445C66.2969 30.6445 65.7695 30.8047 65.4023 31.125C65.0352 31.4453 64.8516 31.8633 64.8516 32.3789C64.8516 32.6992 64.9258 32.9805 65.0742 33.2227C65.2227 33.457 65.457 33.6875 65.7773 33.9141C66.1055 34.1328 66.875 34.5312 68.0859 35.1094C69.6875 35.875 70.7852 36.6445 71.3789 37.418C71.9727 38.1836 72.2695 39.125 72.2695 40.2422ZM79.0078 35.9297H80.2031C81.3203 35.9297 82.1562 35.7109 82.7109 35.2734C83.2656 34.8281 83.543 34.1836 83.543 33.3398C83.543 32.4883 83.3086 31.8594 82.8398 31.4531C82.3789 31.0469 81.6523 30.8438 80.6602 30.8438H79.0078V35.9297ZM87.2109 33.2109C87.2109 35.0547 86.6328 36.4648 85.4766 37.4414C84.3281 38.418 82.6914 38.9062 80.5664 38.9062H79.0078V45H75.375V27.8672H80.8477C82.9258 27.8672 84.5039 28.3164 85.582 29.2148C86.668 30.1055 87.2109 31.4375 87.2109 33.2109ZM100.934 45L99.6914 40.9219H93.4453L92.2031 45H88.2891L94.3359 27.7969H98.7773L104.848 45H100.934ZM98.8242 37.875C97.6758 34.1797 97.0273 32.0898 96.8789 31.6055C96.7383 31.1211 96.6367 30.7383 96.5742 30.457C96.3164 31.457 95.5781 33.9297 94.3594 37.875H98.8242ZM114.293 30.6445C112.926 30.6445 111.867 31.1602 111.117 32.1914C110.367 33.2148 109.992 34.6445 109.992 36.4805C109.992 40.3008 111.426 42.2109 114.293 42.2109C115.496 42.2109 116.953 41.9102 118.664 41.3086V44.3555C117.258 44.9414 115.688 45.2344 113.953 45.2344C111.461 45.2344 109.555 44.4805 108.234 42.9727C106.914 41.457 106.254 39.2852 106.254 36.457C106.254 34.6758 106.578 33.1172 107.227 31.7812C107.875 30.4375 108.805 29.4102 110.016 28.6992C111.234 27.9805 112.66 27.6211 114.293 27.6211C115.957 27.6211 117.629 28.0234 119.309 28.8281L118.137 31.7812C117.496 31.4766 116.852 31.2109 116.203 30.9844C115.555 30.7578 114.918 30.6445 114.293 30.6445ZM132.188 45H122.32V27.8672H132.188V30.8438H125.953V34.6055H131.754V37.582H125.953V42H132.188V45Z" fill="#232323"/>
<path d="M13.0594 47.9406L38.753 35.8846C43.5356 33.1359 43.5229 32.1591 38.643 30.4211C36.0254 28.5859 33.4163 27.2284 30.8453 28.0488L17.2754 34.5652C13.8121 36.502 12.9198 38.9208 12.9283 41.5045L13.0594 47.9406Z" fill="url(#paint0_linear_2201_3)"/>
<path d="M20.5864 11.4385C20.0705 12.0897 18.3452 14.4239 18.4213 17.8111C18.4382 18.6653 18.6116 21.2998 20.4384 23.5368C22.244 25.7484 24.3964 26.0106 29.7796 27.6302C31.9996 28.2983 35.1881 29.3217 39.032 30.7975C39.3026 30.8609 40.1103 31.085 40.7404 31.8504C41.5269 32.8019 41.4592 33.8929 41.4423 34.1255C41.658 33.9225 41.9667 33.6138 42.2881 33.1994C44.9014 29.8291 44.9564 23.9174 42.1485 21.3125C41.4888 20.7036 41.0956 20.6655 37.6196 19.4772C34.7652 18.5046 32.4902 17.6631 31.0651 17.1261C27.5722 15.2274 24.0793 13.3329 20.5864 11.4385Z" fill="url(#paint1_linear_2201_3)"/>
<path d="M3.33331 1.29402C3.72235 1.28134 4.3186 1.26865 5.05017 1.25174C6.027 1.23482 6.89811 1.22213 7.0884 1.22213C7.81151 1.21791 11.1902 1.20945 12.9282 2.8967C13.8374 3.77627 14.3322 4.95608 14.3026 7.3749C14.2264 13.1302 14.2645 16.382 14.3195 18.3188C14.3364 18.8812 14.4294 21.9766 14.514 26.1842C14.5732 27.7319 14.5732 27.3936 14.6409 29.1527C14.7762 32.6625 14.7804 34.206 14.9157 38.9083C14.9369 39.6441 14.9707 40.7309 15.013 42.0587C15.0045 42.1433 14.81 44.1139 16.2435 45.133C16.8905 45.5897 17.5798 45.6531 17.9223 45.6573C17.4191 46.0844 14.5351 48.4441 10.5602 47.9197C9.79054 47.8182 6.9996 47.4503 5.31657 45.2768C4.26363 43.9193 4.13677 41.547 3.88304 36.7982C3.82807 35.7368 3.76464 34.0284 3.73504 32.3877C3.70544 30.9161 3.70544 29.8293 3.70544 29.5502C3.69698 27.5754 3.61241 20.5346 3.33331 1.29402Z" fill="url(#paint2_linear_2201_3)"/>
<path d="M42.952 0L23.1575 9.29046C19.6984 11.6458 18.8273 12.8849 23.2674 14.7539L31.0609 17.1262L38.7318 13.3838C42.1951 11.4471 43.0873 9.02828 43.0789 6.44454L42.952 0Z" fill="url(#paint3_linear_2201_3)"/>
<defs>
<linearGradient id="paint0_linear_2201_3" x1="12.8618" y1="38.0736" x2="42.418" y2="37.4769" gradientUnits="userSpaceOnUse">
<stop stop-color="#3B7CE7"/>
<stop offset="1.38522e-07" stop-color="#1864E3"/>
<stop offset="1" stop-color="#397DEE"/>
</linearGradient>
<linearGradient id="paint1_linear_2201_3" x1="18.5262" y1="23.0315" x2="44.1605" y2="22.5139" gradientUnits="userSpaceOnUse">
<stop stop-color="#0C5ADB"/>
<stop offset="1" stop-color="#00368E"/>
</linearGradient>
<linearGradient id="paint2_linear_2201_3" x1="3.5791" y1="24.7233" x2="17.4941" y2="24.4424" gradientUnits="userSpaceOnUse">
<stop stop-color="#0C5ADB"/>
<stop offset="1" stop-color="#0440A2"/>
</linearGradient>
<linearGradient id="paint3_linear_2201_3" x1="20.1742" y1="8.90172" x2="43.1216" y2="8.43845" gradientUnits="userSpaceOnUse">
<stop stop-color="#0C5ADB"/>
<stop offset="1.38522e-07" stop-color="#4184F3"/>
<stop offset="1" stop-color="#3D81F0"/>
</linearGradient>
</defs>
</svg>
