<svg width="596" height="577" viewBox="0 0 596 577" fill="none" xmlns="http://www.w3.org/2000/svg">
<path d="M472.734 7.86516H473.731L473.73 7.85318L472.734 7.86516ZM472.734 156.124H471.738V156.249L471.768 156.368L472.734 156.124ZM472.647 1.01091L473.643 0.997964L473.63 -6.26889e-06L472.632 0.0149478L472.647 1.01091ZM472.463 1.01292L472.449 0.0169538L471.501 0.0308745L471.468 0.977053L472.463 1.01292ZM472.416 2.32857L472.457 3.32356L473.378 3.28569L473.412 2.36444L472.416 2.32857ZM318.869 8.71967L318.827 7.72474L318.703 7.72966L318.583 7.76552L318.869 8.71967ZM310.113 68.8909L311.107 68.8341V68.8281L310.113 68.8909ZM184.487 69.2703H183.491V69.2723L184.487 69.2703ZM174.767 8.71967L175.048 7.76352L174.911 7.7237H174.77L174.767 8.71967ZM1.37434 8.30533L1.37732 7.30937L0.380678 7.30742L0.377697 8.30235L1.37434 8.30533ZM0.996647 156.241L6.93075e-07 156.239V156.393L0.045806 156.541L0.996647 156.241ZM123.82 231.871L122.824 231.864V231.866L123.82 231.871ZM0.996647 300.122L0.0309026 299.877L6.93075e-07 299.999V300.126L0.996647 300.122ZM1.60957 452.92L0.612929 452.924L0.616883 453.916H1.60957V452.92ZM169.784 452.92L170.065 451.964L169.927 451.924H169.784V452.92ZM179.504 513.47H178.507V513.473L179.504 513.47ZM305.129 513.091L306.124 513.034V513.028L305.129 513.091ZM313.886 452.92V451.924H313.739L313.6 451.966L313.886 452.92ZM472.734 452.92V453.916H473.731V452.92H472.734ZM472.734 300.122L471.762 299.901L471.738 300.01V300.122H472.734ZM595.003 227.351L594.006 227.346V227.351H595.003ZM532.044 164.875L531.943 163.884L531.935 163.885L532.044 164.875ZM471.738 7.86516V156.124H473.731V7.86516H471.738ZM471.65 1.02289L471.738 7.87811L473.73 7.85318L473.643 0.997964L471.65 1.02289ZM472.478 2.00888L472.661 2.0059L472.632 0.0149478L472.449 0.0169538L472.478 2.00888ZM471.468 0.977053L471.42 2.29271L473.412 2.36444L473.46 1.04878L471.468 0.977053ZM472.375 1.33358L318.827 7.72474L318.911 9.71466L472.457 3.32356L472.375 1.33358ZM318.583 7.76552C312.006 9.73654 307.194 11.6816 303.787 13.7393C300.371 15.8 298.289 18.021 297.303 20.5677C296.317 23.1113 296.489 25.8174 297.241 28.7107C297.988 31.589 299.346 34.7771 300.849 38.3128L302.684 37.5339C301.163 33.9544 299.873 30.9158 299.17 28.2097C298.471 25.5186 298.388 23.2836 299.161 21.2867C299.935 19.2918 301.626 17.3706 304.817 15.4444C308.016 13.5133 312.642 11.6249 319.155 9.67381L318.583 7.76552ZM300.849 38.3128C304.151 46.0823 308.294 55.8427 309.118 68.9536L311.107 68.8281C310.26 55.3497 305.991 45.3164 302.684 37.5339L300.849 38.3128ZM309.118 68.9476C310.629 95.2032 299.528 110.6 285.925 119.486C272.249 128.42 255.973 130.808 247.241 130.808V132.8C256.227 132.8 272.919 130.362 287.015 121.153C301.185 111.898 312.662 95.8377 311.107 68.8341L309.118 68.9476ZM247.241 130.808C208.288 130.808 185.57 100.939 185.484 69.2673L183.491 69.2723C183.579 101.884 207.037 132.8 247.241 132.8V130.808ZM185.484 69.2703C185.484 55.4822 190.286 45.5056 194.092 37.6136L192.296 36.7481C188.482 44.6581 183.491 54.9912 183.491 69.2703H185.484ZM194.092 37.6136C195.682 34.3169 197.134 31.3131 197.935 28.5722C198.742 25.8104 198.931 23.1841 197.862 20.6782C196.799 18.1873 194.568 15.9942 190.923 13.9206C187.276 11.846 182.118 9.83911 175.048 7.76352L174.487 9.67478C181.499 11.7334 186.486 13.6896 189.937 15.6516C193.388 17.6146 195.204 19.5289 196.028 21.46C196.846 23.3763 196.761 25.4857 196.021 28.0135C195.276 30.5632 193.91 33.4047 192.296 36.7481L194.092 37.6136ZM174.77 7.7237L1.37732 7.30937L1.37234 9.30129L174.765 9.71563L174.77 7.7237ZM1.99329 156.244L2.37099 8.30734L0.377697 8.30235L6.93075e-07 156.239L1.99329 156.244ZM29.7967 172.674C26.1779 174.2 23.1471 175.476 20.4681 176.156C17.8081 176.832 15.6224 176.885 13.664 176.087C11.7026 175.286 9.80402 173.562 7.86654 170.338C5.92706 167.109 3.99952 162.46 1.94743 155.942L0.045806 156.541C2.11584 163.114 4.09919 167.936 6.15726 171.363C8.21833 174.793 10.404 176.908 12.9105 177.931C15.4211 178.955 18.0871 178.816 20.9594 178.086C23.8148 177.361 26.9982 176.017 30.5711 174.51L29.7967 172.674ZM60.9439 163.999C47.3586 165.267 37.424 169.459 29.7967 172.674L30.5711 174.51C38.1805 171.302 47.8719 167.22 61.1293 165.983L60.9439 163.999ZM124.817 231.877C124.92 216.004 120.39 198.013 110.111 184.485C99.7952 170.909 83.7203 161.881 60.9439 163.999L61.1293 165.983C83.1861 163.931 98.6042 172.635 108.524 185.69C118.479 198.792 122.924 216.325 122.824 231.864L124.817 231.877ZM61.4652 291.433C87.5564 290.151 103.418 279.813 112.744 267.453C122.038 255.135 124.772 240.904 124.817 231.876L122.824 231.866C122.781 240.572 120.13 254.356 111.152 266.254C102.207 278.109 86.9095 288.188 61.3675 289.444L61.4652 291.433ZM30.6229 282.859C38.7346 286.951 48.8147 292.054 61.4652 291.433L61.3675 289.444C49.3061 290.036 39.6635 285.188 31.5219 281.081L30.6229 282.859ZM1.96239 300.367C3.83011 293.02 5.7606 287.86 7.78977 284.346C9.81495 280.838 11.888 279.054 14.0158 278.302C16.1526 277.549 18.5306 277.768 21.3103 278.669C24.1009 279.571 27.1586 281.111 30.6229 282.859L31.5219 281.081C28.0984 279.354 24.8912 277.734 21.9242 276.774C18.9462 275.809 16.0749 275.464 13.352 276.425C10.6222 277.388 8.2293 279.599 6.06358 283.35C3.90186 287.094 1.91755 292.456 0.0309026 299.877L1.96239 300.367ZM2.60622 452.916L1.99329 300.118L6.93075e-07 300.126L0.612929 452.924L2.60622 452.916ZM169.784 451.924H1.60957V453.916H169.784V451.924ZM189.109 481.813C190.698 478.517 192.15 475.513 192.952 472.772C193.759 470.011 193.947 467.384 192.879 464.878C191.816 462.387 189.585 460.194 185.939 458.121C182.293 456.046 177.135 454.039 170.065 451.964L169.504 453.875C176.516 455.934 181.503 457.89 184.954 459.852C188.405 461.815 190.221 463.729 191.045 465.66C191.862 467.576 191.778 469.686 191.038 472.214C190.293 474.763 188.926 477.604 187.313 480.949L189.109 481.813ZM180.501 513.47C180.501 499.682 185.302 489.706 189.109 481.813L187.313 480.949C183.499 488.858 178.507 499.191 178.507 513.47H180.501ZM242.258 575.008C203.304 575.008 180.586 545.139 180.501 513.467L178.507 513.473C178.596 546.085 202.054 577 242.258 577V575.008ZM304.135 513.148C305.646 539.403 294.545 554.8 280.942 563.686C267.266 572.619 250.989 575.008 242.258 575.008V577C251.244 577 267.935 574.561 282.032 565.353C296.201 556.097 307.678 540.038 306.124 513.034L304.135 513.148ZM295.865 482.513C299.167 490.282 303.31 500.043 304.135 513.153L306.124 513.028C305.277 499.55 301.008 489.517 297.7 481.734L295.865 482.513ZM313.6 451.966C307.023 453.937 302.211 455.882 298.804 457.939C295.388 460 293.306 462.221 292.319 464.768C291.334 467.311 291.506 470.017 292.258 472.911C293.005 475.789 294.363 478.977 295.865 482.513L297.7 481.734C296.179 478.155 294.89 475.116 294.187 472.41C293.487 469.719 293.405 467.484 294.178 465.487C294.952 463.492 296.643 461.571 299.834 459.645C303.032 457.713 307.659 455.826 314.172 453.874L313.6 451.966ZM472.734 451.924H313.886V453.916H472.734V451.924ZM471.738 300.122V452.92H473.731V300.122H471.738ZM502.718 281.561C499.235 279.91 495.971 278.359 492.966 277.443C489.954 276.526 487.068 276.201 484.37 277.135C481.655 278.076 479.313 280.228 477.257 283.876C475.208 287.513 473.397 292.713 471.762 299.901L473.706 300.343C475.323 293.234 477.082 288.247 478.994 284.854C480.9 281.471 482.914 279.748 485.023 279.017C487.15 278.28 489.557 278.487 492.385 279.348C495.22 280.213 498.34 281.69 501.864 283.361L502.718 281.561ZM532.375 289.444C520.591 290.022 510.92 285.451 502.718 281.561L501.864 283.361C510.032 287.235 520.126 292.039 532.472 291.433L532.375 289.444ZM594.006 227.351C594.006 230.925 594.001 245.71 586.303 259.964C578.649 274.136 563.322 287.914 532.375 289.444L532.472 291.433C564.104 289.87 580.066 275.707 588.057 260.91C596.005 246.193 595.999 230.979 595.999 227.351H594.006ZM532.145 165.866C558.742 163.151 594.179 186.328 594.006 227.346L595.999 227.355C596.177 185.072 559.636 161.057 531.943 163.884L532.145 165.866ZM504.799 174.371C512.349 171.018 521.269 167.064 532.153 165.865L531.935 163.885C520.706 165.122 511.527 169.204 503.989 172.551L504.799 174.371ZM471.768 156.368C473.561 163.466 475.497 168.614 477.67 172.218C479.851 175.838 482.311 177.964 485.155 178.89C487.976 179.809 491.01 179.49 494.229 178.564C497.441 177.64 500.968 176.073 504.799 174.371L503.989 172.551C500.12 174.269 496.73 175.773 493.678 176.65C490.631 177.526 488.049 177.738 485.771 176.996C483.516 176.262 481.394 174.537 479.377 171.19C477.352 167.829 475.473 162.898 473.7 155.881L471.768 156.368Z" fill="#A6BDE4" fill-opacity="0.3"/>
</svg>
