<svg width="596" height="577" viewBox="0 0 596 577" fill="none" xmlns="http://www.w3.org/2000/svg">
<path d="M123.266 569.135H122.269L122.27 569.147L123.266 569.135ZM123.266 420.876H124.262V420.751L124.232 420.632L123.266 420.876ZM123.353 575.989L122.357 576.002L122.37 577L123.368 576.985L123.353 575.989ZM123.537 575.987L123.551 576.983L124.499 576.969L124.532 576.023L123.537 575.987ZM123.584 574.671L123.543 573.676L122.622 573.714L122.588 574.636L123.584 574.671ZM277.131 568.28L277.173 569.275L277.297 569.27L277.417 569.234L277.131 568.28ZM285.887 508.109L284.893 508.166V508.172L285.887 508.109ZM411.513 507.73H412.509V507.728L411.513 507.73ZM421.233 568.28L420.952 569.236L421.089 569.276H421.23L421.233 568.28ZM594.626 568.695L594.623 569.691L595.619 569.693L595.622 568.698L594.626 568.695ZM595.003 420.759L596 420.761V420.607L595.954 420.459L595.003 420.759ZM472.18 345.129L473.176 345.136V345.134L472.18 345.129ZM595.003 276.878L595.969 277.123L596 277.001V276.874L595.003 276.878ZM594.39 124.08L595.387 124.076L595.383 123.084H594.39V124.08ZM426.216 124.08L425.935 125.036L426.073 125.076H426.216V124.08ZM416.496 63.5299H417.493V63.5272L416.496 63.5299ZM290.871 63.909L289.876 63.9662V63.9715L290.871 63.909ZM282.114 124.08V125.076H282.261L282.4 125.034L282.114 124.08ZM123.266 124.08V123.084H122.269V124.08H123.266ZM123.266 276.878L124.238 277.099L124.262 276.99V276.878H123.266ZM0.997293 349.649L1.99394 349.654V349.649H0.997293ZM63.9559 412.125L64.0573 413.116L64.0652 413.115L63.9559 412.125ZM124.262 569.135V420.876H122.269V569.135H124.262ZM124.35 575.977L124.262 569.122L122.27 569.147L122.357 576.002L124.35 575.977ZM123.522 574.991L123.339 574.994L123.368 576.985L123.551 576.983L123.522 574.991ZM124.532 576.023L124.58 574.707L122.588 574.636L122.54 575.951L124.532 576.023ZM123.625 575.666L277.173 569.275L277.089 567.285L123.543 573.676L123.625 575.666ZM277.417 569.234C283.994 567.263 288.806 565.318 292.213 563.261C295.629 561.2 297.711 558.979 298.697 556.432C299.683 553.889 299.511 551.183 298.759 548.289C298.012 545.411 296.654 542.223 295.151 538.687L293.316 539.466C294.837 543.046 296.127 546.084 296.83 548.79C297.529 551.481 297.612 553.716 296.839 555.713C296.065 557.708 294.374 559.629 291.183 561.556C287.984 563.487 283.358 565.375 276.845 567.326L277.417 569.234ZM295.151 538.687C291.849 530.918 287.706 521.157 286.882 508.046L284.893 508.172C285.74 521.65 290.009 531.684 293.316 539.466L295.151 538.687ZM286.882 508.052C285.371 481.797 296.472 466.4 310.075 457.514C323.751 448.58 340.027 446.192 348.759 446.192V444.2C339.773 444.2 323.081 446.638 308.985 455.847C294.815 465.102 283.338 481.162 284.893 508.166L286.882 508.052ZM348.759 446.192C387.712 446.192 410.43 476.061 410.516 507.733L412.509 507.728C412.421 475.116 388.963 444.2 348.759 444.2V446.192ZM410.516 507.73C410.516 521.518 405.714 531.494 401.908 539.386L403.704 540.252C407.518 532.342 412.509 522.009 412.509 507.73H410.516ZM401.908 539.386C400.318 542.683 398.866 545.687 398.065 548.428C397.258 551.19 397.069 553.816 398.138 556.322C399.201 558.813 401.432 561.006 405.077 563.079C408.724 565.154 413.882 567.161 420.952 569.236L421.513 567.325C414.501 565.267 409.514 563.31 406.063 561.348C402.612 559.385 400.796 557.471 399.972 555.54C399.154 553.624 399.239 551.514 399.979 548.987C400.724 546.437 402.09 543.595 403.704 540.252L401.908 539.386ZM421.23 569.276L594.623 569.691L594.628 567.699L421.235 567.284L421.23 569.276ZM594.007 420.756L593.629 568.693L595.622 568.698L596 420.761L594.007 420.756ZM566.203 404.326C569.822 402.8 572.853 401.524 575.532 400.844C578.192 400.168 580.378 400.115 582.336 400.913C584.297 401.714 586.196 403.438 588.133 406.662C590.073 409.891 592 414.54 594.053 421.058L595.954 420.459C593.884 413.886 591.901 409.064 589.843 405.637C587.782 402.207 585.596 400.092 583.089 399.069C580.579 398.045 577.913 398.184 575.041 398.914C572.185 399.639 569.002 400.983 565.429 402.49L566.203 404.326ZM535.056 413.001C548.641 411.733 558.576 407.541 566.203 404.326L565.429 402.49C557.819 405.698 548.128 409.78 534.871 411.017L535.056 413.001ZM471.183 345.123C471.08 360.996 475.61 378.987 485.889 392.515C496.205 406.091 512.28 415.119 535.056 413.001L534.871 411.017C512.814 413.069 497.396 404.365 487.476 391.31C477.521 378.208 473.076 360.675 473.176 345.136L471.183 345.123ZM534.535 285.567C508.444 286.849 492.582 297.187 483.256 309.547C473.962 321.865 471.228 336.096 471.183 345.124L473.176 345.134C473.219 336.428 475.87 322.644 484.848 310.746C493.793 298.891 509.09 288.812 534.633 287.556L534.535 285.567ZM565.377 294.141C557.265 290.049 547.185 284.946 534.535 285.567L534.633 287.556C546.694 286.964 556.336 291.812 564.478 295.919L565.377 294.141ZM594.038 276.633C592.17 283.98 590.239 289.14 588.21 292.654C586.185 296.162 584.112 297.946 581.984 298.698C579.847 299.451 577.469 299.232 574.69 298.331C571.899 297.429 568.841 295.889 565.377 294.141L564.478 295.919C567.902 297.646 571.109 299.266 574.076 300.226C577.054 301.191 579.925 301.536 582.648 300.575C585.378 299.612 587.771 297.401 589.936 293.65C592.098 289.906 594.082 284.544 595.969 277.123L594.038 276.633ZM593.394 124.084L594.007 276.882L596 276.874L595.387 124.076L593.394 124.084ZM426.216 125.076H594.39V123.084H426.216V125.076ZM406.891 95.1866C405.302 98.4833 403.85 101.487 403.048 104.228C402.241 106.989 402.053 109.616 403.121 112.122C404.184 114.613 406.415 116.806 410.061 118.879C413.707 120.954 418.865 122.961 425.935 125.036L426.496 123.125C419.484 121.066 414.497 119.11 411.046 117.148C407.595 115.185 405.779 113.271 404.955 111.34C404.138 109.424 404.222 107.314 404.962 104.786C405.707 102.237 407.074 99.3957 408.687 96.0513L406.891 95.1866ZM415.499 63.5299C415.499 77.3181 410.698 87.2939 406.891 95.1866L408.687 96.0513C412.501 88.1422 417.493 77.8088 417.493 63.5299H415.499ZM353.742 1.99193C392.696 1.99193 415.414 31.8606 415.499 63.5326L417.493 63.5272C417.404 30.9152 393.946 0 353.742 0V1.99193ZM291.865 63.8519C290.354 37.5969 301.455 22.2003 315.058 13.3141C328.734 4.38052 345.011 1.99193 353.742 1.99193V0C344.756 0 328.065 2.43854 313.968 11.6468C299.799 20.9025 288.322 36.9624 289.876 63.9662L291.865 63.8519ZM300.135 94.4871C296.833 86.718 292.69 76.9573 291.865 63.8467L289.876 63.9715C290.723 77.4498 294.992 87.483 298.3 95.2658L300.135 94.4871ZM282.4 125.034C288.977 123.063 293.789 121.118 297.196 119.061C300.612 117 302.694 114.779 303.681 112.232C304.666 109.689 304.494 106.983 303.742 104.089C302.995 101.211 301.637 98.0232 300.135 94.4871L298.3 95.2658C299.821 98.8452 301.11 101.884 301.813 104.59C302.513 107.281 302.595 109.516 301.822 111.513C301.048 113.508 299.357 115.429 296.166 117.355C292.968 119.287 288.341 121.174 281.828 123.126L282.4 125.034ZM123.266 125.076H282.114V123.084H123.266V125.076ZM124.262 276.878V124.08H122.269V276.878H124.262ZM93.2817 295.439C96.765 297.09 100.029 298.641 103.034 299.557C106.046 300.474 108.932 300.799 111.63 299.865C114.345 298.924 116.687 296.772 118.743 293.124C120.792 289.487 122.603 284.287 124.238 277.099L122.294 276.657C120.677 283.766 118.918 288.753 117.006 292.146C115.1 295.529 113.086 297.252 110.977 297.983C108.85 298.72 106.443 298.513 103.615 297.652C100.78 296.787 97.6595 295.31 94.1363 293.639L93.2817 295.439ZM63.6254 287.556C75.4091 286.978 85.0798 291.549 93.2817 295.439L94.1363 293.639C85.9676 289.765 75.8737 284.961 63.5277 285.567L63.6254 287.556ZM1.99394 349.649C1.99394 346.075 1.99936 331.29 9.69679 317.036C17.3507 302.864 32.6778 289.086 63.6254 287.556L63.5277 285.567C31.896 287.13 15.9335 301.293 7.94262 316.09C-0.00477044 330.807 0.000647403 346.021 0.000646406 349.649H1.99394ZM63.8547 411.134C37.2583 413.849 1.82142 390.672 1.99394 349.654L0.000646406 349.645C-0.17716 391.928 36.3638 415.943 64.0573 413.116L63.8547 411.134ZM91.2015 402.629C83.6507 405.982 74.731 409.936 63.8467 411.135L64.0652 413.115C75.2939 411.878 84.4728 407.796 92.0109 404.449L91.2015 402.629ZM124.232 420.632C122.439 413.534 120.503 408.386 118.33 404.782C116.149 401.162 113.689 399.036 110.845 398.11C108.024 397.191 104.99 397.51 101.771 398.436C98.5585 399.36 95.0322 400.927 91.2015 402.629L92.0109 404.449C95.8799 402.731 99.2696 401.227 102.322 400.35C105.369 399.474 107.951 399.262 110.229 400.004C112.484 400.738 114.606 402.463 116.623 405.81C118.648 409.171 120.527 414.102 122.3 421.119L124.232 420.632Z" fill="white"/>
</svg>
