<svg width="151" height="105" viewBox="0 0 151 105" fill="none" xmlns="http://www.w3.org/2000/svg">
<path d="M31.082 103.627H30.8286L30.8289 103.629L31.082 103.627ZM31.082 76.5848H31.3353V76.5621L31.3277 76.5403L31.082 76.5848ZM31.1043 104.877L30.8509 104.879L30.8542 105.061L31.1081 105.059L31.1043 104.877ZM31.1509 104.877L31.1544 105.058L31.3954 105.056L31.404 104.883L31.1509 104.877ZM31.1628 104.637L31.1524 104.455L30.9183 104.462L30.9097 104.63L31.1628 104.637ZM70.1958 103.471L70.2064 103.652L70.2381 103.652L70.2685 103.645L70.1958 103.471ZM72.4218 92.4959L72.1689 92.5063V92.5074L72.4218 92.4959ZM104.357 92.4267H104.61V92.4264L104.357 92.4267ZM106.828 103.471L106.756 103.645L106.791 103.653H106.827L106.828 103.471ZM150.906 103.547L150.905 103.728L151.158 103.729L151.159 103.547L150.906 103.547ZM151.002 76.5636L151.255 76.5639V76.5358L151.243 76.5089L151.002 76.5636ZM119.779 62.7688L120.032 62.77V62.7697L119.779 62.7688ZM151.002 50.3201L151.247 50.3648L151.255 50.3424V50.3194L151.002 50.3201ZM150.846 22.4502L151.099 22.4495L151.098 22.2686H150.846V22.4502ZM108.095 22.4502L108.023 22.6246L108.058 22.6319H108.095V22.4502ZM105.624 11.406H105.877V11.4055L105.624 11.406ZM73.6886 11.4752L73.4357 11.4856V11.4866L73.6886 11.4752ZM71.4626 22.4502V22.6319H71.4998L71.5353 22.6243L71.4626 22.4502ZM31.082 22.4502V22.2686H30.8286V22.4502H31.082ZM31.082 50.3201L31.3292 50.3604L31.3353 50.3404V50.3201H31.082ZM0.000346305 63.5933L0.253703 63.5942V63.5933H0.000346305ZM16.005 74.9887L16.0307 75.1695L16.0327 75.1693L16.005 74.9887ZM31.3353 103.627V76.5848H30.8286V103.627H31.3353ZM31.3576 104.875L31.3353 103.624L30.8289 103.629L30.8509 104.879L31.3576 104.875ZM31.1471 104.695L31.1007 104.696L31.1081 105.059L31.1544 105.058L31.1471 104.695ZM31.404 104.883L31.4161 104.643L30.9097 104.63L30.8975 104.87L31.404 104.883ZM31.1734 104.818L70.2064 103.652L70.1851 103.29L31.1524 104.455L31.1734 104.818ZM70.2685 103.645C71.9404 103.286 73.1636 102.931 74.0298 102.555C74.8981 102.18 75.4273 101.774 75.6782 101.31C75.9287 100.846 75.8849 100.352 75.6939 99.8247C75.5038 99.2997 75.1588 98.7182 74.7767 98.0733L74.3103 98.2153C74.6969 98.8682 75.0248 99.4225 75.2034 99.9161C75.3812 100.407 75.4023 100.815 75.2056 101.179C75.009 101.543 74.5791 101.893 73.7679 102.244C72.9548 102.597 71.7788 102.941 70.1231 103.297L70.2685 103.645ZM74.7767 98.0733C73.9373 96.6562 72.8841 94.8759 72.6746 92.4845L72.1689 92.5074C72.3843 94.9658 73.4694 96.7958 74.3103 98.2153L74.7767 98.0733ZM72.6746 92.4856C72.2905 87.6966 75.1124 84.8883 78.5705 83.2676C82.047 81.6381 86.1846 81.2024 88.4042 81.2024V80.8391C86.12 80.8391 81.8768 81.2838 78.2933 82.9635C74.6913 84.6516 71.7737 87.5809 72.1689 92.5063L72.6746 92.4856ZM88.4042 81.2024C98.3064 81.2024 104.082 86.6505 104.103 92.4273L104.61 92.4264C104.588 86.4781 98.6243 80.8391 88.4042 80.8391V81.2024ZM104.103 92.4267C104.103 94.9416 102.883 96.7613 101.915 98.2008L102.372 98.3587C103.341 96.9159 104.61 95.0312 104.61 92.4267H104.103ZM101.915 98.2008C101.511 98.8021 101.142 99.35 100.938 99.8499C100.733 100.354 100.685 100.833 100.957 101.29C101.227 101.744 101.794 102.144 102.721 102.522C103.648 102.901 104.959 103.267 106.756 103.645L106.899 103.297C105.116 102.921 103.849 102.564 102.971 102.207C102.094 101.849 101.632 101.499 101.423 101.147C101.215 100.798 101.237 100.413 101.425 99.9518C101.614 99.4868 101.962 98.9685 102.372 98.3587L101.915 98.2008ZM106.827 103.653L150.905 103.728L150.906 103.365L106.828 103.289L106.827 103.653ZM150.748 76.563L150.652 103.546L151.159 103.547L151.255 76.5639L150.748 76.563ZM143.68 73.5661C144.6 73.2878 145.371 73.0551 146.052 72.9311C146.728 72.8077 147.284 72.7981 147.781 72.9438C148.28 73.0898 148.763 73.4043 149.255 73.9923C149.748 74.5813 150.238 75.4293 150.76 76.6181L151.243 76.5089C150.717 75.3099 150.213 74.4305 149.69 73.8054C149.166 73.1798 148.61 72.7939 147.973 72.6073C147.335 72.4206 146.657 72.4458 145.927 72.579C145.201 72.7113 144.392 72.9565 143.483 73.2313L143.68 73.5661ZM135.762 75.1484C139.216 74.9172 141.741 74.1525 143.68 73.5661L143.483 73.2313C141.549 73.8165 139.085 74.5609 135.715 74.7865L135.762 75.1484ZM119.525 62.7677C119.499 65.663 120.651 68.9445 123.264 71.4118C125.886 73.8881 129.973 75.5348 135.762 75.1484L135.715 74.7865C130.108 75.1609 126.189 73.5732 123.667 71.1922C121.137 68.8025 120.007 65.6043 120.032 62.77L119.525 62.7677ZM135.63 51.9049C128.997 52.1387 124.965 54.0243 122.595 56.2787C120.232 58.5255 119.537 61.1213 119.525 62.7679L120.032 62.7697C120.043 61.1818 120.717 58.6676 122.999 56.4975C125.273 54.3352 129.162 52.4968 135.655 52.2677L135.63 51.9049ZM143.47 53.4688C141.408 52.7224 138.846 51.7917 135.63 51.9049L135.655 52.2677C138.721 52.1598 141.172 53.0439 143.242 53.7931L143.47 53.4688ZM150.756 50.2754C150.281 51.6155 149.791 52.5567 149.275 53.1976C148.76 53.8374 148.233 54.1628 147.692 54.2999C147.149 54.4373 146.544 54.3973 145.838 54.2331C145.128 54.0685 144.351 53.7876 143.47 53.4688L143.242 53.7931C144.112 54.1081 144.927 54.4036 145.682 54.5788C146.439 54.7546 147.169 54.8177 147.861 54.6423C148.555 54.4667 149.163 54.0634 149.714 53.3793C150.263 52.6964 150.767 51.7183 151.247 50.3648L150.756 50.2754ZM150.592 22.4509L150.748 50.3208L151.255 50.3194L151.099 22.4495L150.592 22.4509ZM108.095 22.6319H150.846V22.2686H108.095V22.6319ZM103.182 17.1801C102.778 17.7814 102.409 18.3292 102.205 18.8292C102 19.3329 101.952 19.812 102.223 20.269C102.494 20.7234 103.061 21.1234 103.988 21.5016C104.915 21.88 106.226 22.246 108.023 22.6246L108.166 22.276C106.383 21.9005 105.115 21.5437 104.238 21.1859C103.361 20.8278 102.899 20.4787 102.69 20.1264C102.482 19.7769 102.503 19.3921 102.691 18.9311C102.881 18.466 103.228 17.9478 103.638 17.3378L103.182 17.1801ZM105.37 11.406C105.37 13.921 104.15 15.7405 103.182 17.1801L103.638 17.3378C104.608 15.8952 105.877 14.0105 105.877 11.406H105.37ZM89.671 0.181681C99.5734 0.181681 105.348 5.62964 105.37 11.4065L105.877 11.4055C105.854 5.45721 99.8911 -0.181641 89.671 -0.181641V0.181681ZM73.9414 11.4648C73.5573 6.67592 76.3792 3.86762 79.8372 2.2468C83.3138 0.617353 87.4513 0.181681 89.671 0.181681V-0.181641C87.3867 -0.181641 83.1435 0.263141 79.5601 1.9427C75.9581 3.63091 73.0407 6.5602 73.4357 11.4856L73.9414 11.4648ZM76.0435 17.0525C75.2041 15.6355 74.1509 13.8551 73.9414 11.4638L73.4357 11.4866C73.6511 13.945 74.7362 15.775 75.5771 17.1946L76.0435 17.0525ZM71.5353 22.6243C73.2072 22.2647 74.4304 21.91 75.2966 21.5347C76.1648 21.1588 76.6941 20.7537 76.9449 20.2892C77.1955 19.8252 77.1517 19.3316 76.9606 18.8039C76.7706 18.2789 76.4256 17.6975 76.0435 17.0525L75.5771 17.1946C75.9637 17.8474 76.2915 18.4017 76.4701 18.8953C76.648 19.3861 76.669 19.7938 76.4724 20.158C76.2758 20.5219 75.8459 20.8723 75.0346 21.2236C74.2216 21.5759 73.0455 21.9201 71.3899 22.2762L71.5353 22.6243ZM31.082 22.6319H71.4626V22.2686H31.082V22.6319ZM31.3353 50.3201V22.4502H30.8286V50.3201H31.3353ZM23.4598 53.7055C24.3453 54.0067 25.1751 54.2896 25.9389 54.4567C26.7045 54.624 27.4382 54.6832 28.124 54.5128C28.8142 54.3412 29.4096 53.9488 29.9322 53.2833C30.4531 52.6199 30.9135 51.6715 31.3292 50.3604L30.835 50.2798C30.424 51.5765 29.9768 52.486 29.4906 53.105C29.0062 53.7219 28.4942 54.0361 27.9581 54.1695C27.4174 54.3039 26.8056 54.2663 26.0866 54.1092C25.366 53.9515 24.5727 53.6821 23.677 53.3773L23.4598 53.7055ZM15.9209 52.2677C18.9164 52.1623 21.3748 52.996 23.4598 53.7055L23.677 53.3773C21.6005 52.6706 19.0346 51.7945 15.8961 51.9049L15.9209 52.2677ZM0.253703 63.5933C0.253703 62.9413 0.255079 60.2446 2.21183 57.6448C4.15751 55.0598 8.05379 52.5467 15.9209 52.2677L15.8961 51.9049C7.85506 52.1899 3.79726 54.7733 1.7659 57.4723C-0.254387 60.1565 -0.253009 62.9315 -0.25301 63.5933H0.253703ZM15.9792 74.808C9.21819 75.3032 0.209847 71.0758 0.253703 63.5942L-0.25301 63.5926C-0.298209 71.3048 8.9908 75.685 16.0307 75.1695L15.9792 74.808ZM22.931 73.2566C21.0115 73.8683 18.7441 74.5894 15.9772 74.8082L16.0327 75.1693C18.8872 74.9437 21.2205 74.1991 23.1368 73.5887L22.931 73.2566ZM31.3277 76.5403C30.8719 75.2458 30.3797 74.3068 29.8274 73.6493C29.2728 72.9892 28.6475 72.6013 27.9247 72.4324C27.2074 72.2647 26.4362 72.323 25.6178 72.4918C24.8012 72.6604 23.9048 72.9463 22.931 73.2566L23.1368 73.5887C24.1203 73.2753 24.982 73.001 25.758 72.841C26.5325 72.6813 27.1889 72.6426 27.7678 72.7779C28.3412 72.9118 28.8806 73.2264 29.3934 73.8368C29.9082 74.4499 30.3858 75.3493 30.8365 76.6291L31.3277 76.5403Z" fill="white"/>
</svg>
