<svg width="32" height="33" viewBox="0 0 32 33" fill="none" xmlns="http://www.w3.org/2000/svg">
<path d="M32 16.1221C32 7.28551 24.8366 0.12207 16 0.12207C7.16344 0.12207 0 7.28551 0 16.1221C0 24.9586 7.16344 32.1221 16 32.1221C24.8366 32.1221 32 24.9586 32 16.1221Z" fill="url(#paint0_linear_1_1830)"/>
<path d="M7.39974 15.6657C12.1103 13.6263 15.2514 12.2818 16.8232 11.6321C21.3106 9.77735 22.2431 9.45515 22.8508 9.44444C22.9845 9.44221 23.2833 9.47512 23.477 9.63119C23.6405 9.76303 23.6854 9.94112 23.7069 10.0661C23.7285 10.1911 23.7553 10.4758 23.7339 10.6982C23.4908 13.2372 22.4386 19.3988 21.9032 22.2425C21.6767 23.4458 21.2307 23.8493 20.799 23.8888C19.8606 23.9746 19.148 23.2726 18.2392 22.6805C16.817 21.7541 16.0136 21.1774 14.6331 20.2734C13.0377 19.2287 14.0719 18.6545 14.9811 17.7161C15.219 17.4706 19.3535 13.7335 19.4336 13.3945C19.4435 13.3521 19.4529 13.194 19.3584 13.1106C19.2639 13.0272 19.1244 13.0557 19.0238 13.0784C18.8812 13.1106 16.6092 14.6028 12.2079 17.5552C11.563 17.9952 10.9789 18.2096 10.4556 18.1983C9.87866 18.186 8.76886 17.8742 7.94381 17.6077C6.93188 17.2808 6.12758 17.108 6.19761 16.5529C6.23409 16.2637 6.63479 15.968 7.39974 15.6657Z" fill="white"/>
<defs>
<linearGradient id="paint0_linear_1_1830" x1="16" y1="0.12207" x2="16" y2="31.8847" gradientUnits="userSpaceOnUse">
<stop stop-color="#2AABEE"/>
<stop offset="1" stop-color="#229ED9"/>
</linearGradient>
</defs>
</svg>
