<svg width="32" height="33" viewBox="0 0 32 33" fill="none" xmlns="http://www.w3.org/2000/svg">
<path d="M32 16.1221C32 7.28551 24.8366 0.12207 16 0.12207C7.16344 0.12207 0 7.28551 0 16.1221C0 24.9586 7.16344 32.1221 16 32.1221C24.8366 32.1221 32 24.9586 32 16.1221Z" fill="#0DC143"/>
<path d="M23.1239 9.02721C21.4025 7.26955 19.023 6.31543 16.5928 6.31543C11.4287 6.31543 7.27721 10.4835 7.32785 15.5555C7.32785 17.1625 7.78352 18.7193 8.54292 20.1254L7.22656 24.8961L12.1376 23.6406C13.5045 24.3939 15.0234 24.7454 16.5422 24.7454C21.6557 24.7454 25.8072 20.5773 25.8072 15.5053C25.8072 13.0446 24.8453 10.7346 23.1239 9.02721ZM16.5928 23.1886C15.2259 23.1886 13.8589 22.8371 12.6944 22.1341L12.3906 21.9834L9.45426 22.7367L10.2137 19.8743L10.0112 19.573C7.78352 16.0075 8.84666 11.287 12.4919 9.07744C16.1371 6.86783 20.8456 7.92239 23.0733 11.5381C25.3009 15.1538 24.2378 19.8241 20.5925 22.0337C19.4281 22.7869 18.0104 23.1886 16.5928 23.1886ZM21.0481 17.6145L20.4913 17.3633C20.4913 17.3633 19.6811 17.0118 19.1749 16.7607C19.1242 16.7607 19.0736 16.7106 19.023 16.7106C18.8711 16.7106 18.7699 16.7607 18.6686 16.811C18.6686 16.811 18.618 16.8612 17.9092 17.6647C17.8585 17.7652 17.7573 17.8153 17.656 17.8153H17.6054C17.5548 17.8153 17.4535 17.7652 17.4029 17.7149L17.1498 17.6145C16.5928 17.3633 16.0866 17.0621 15.6815 16.6603C15.5803 16.5599 15.4284 16.4595 15.3271 16.359C14.9727 16.0075 14.6183 15.6058 14.3652 15.1538L14.3145 15.0534C14.2639 15.0031 14.2639 14.9529 14.2133 14.8525C14.2133 14.752 14.2133 14.6516 14.2639 14.6014C14.2639 14.6014 14.4664 14.3503 14.6183 14.1997C14.7196 14.0992 14.7702 13.9486 14.8715 13.8482C14.9727 13.6975 15.0234 13.4966 14.9727 13.3459C14.9221 13.0948 14.3145 11.739 14.1627 11.4376C14.0614 11.287 13.9602 11.2368 13.8083 11.1865H13.6564C13.5551 11.1865 13.4033 11.1865 13.2513 11.1865C13.1501 11.1865 13.0488 11.2368 12.9476 11.2368L12.897 11.287C12.7957 11.3372 12.6944 11.4376 12.5932 11.4879C12.4919 11.5883 12.4413 11.6888 12.3401 11.7892C11.9856 12.2411 11.7831 12.7936 11.7831 13.3459C11.7831 13.7477 11.8844 14.1494 12.0363 14.5009L12.0869 14.6516C12.5426 15.6058 13.1501 16.4595 13.9602 17.2127L14.1627 17.4136C14.3145 17.5643 14.4664 17.6647 14.5677 17.8153C15.6309 18.7193 16.846 19.3721 18.2129 19.7236C18.3648 19.7739 18.5674 19.7739 18.7192 19.8241C18.8711 19.8241 19.0736 19.8241 19.2255 19.8241C19.4786 19.8241 19.7824 19.7236 19.9849 19.6232C20.1368 19.5228 20.2381 19.5228 20.3393 19.4223L20.4406 19.3219C20.5418 19.2214 20.6431 19.1712 20.7443 19.0708C20.8456 18.9704 20.9469 18.8699 20.9975 18.7695C21.0988 18.5686 21.1494 18.3175 21.2 18.0664C21.2 17.966 21.2 17.8153 21.2 17.7149C21.2 17.7149 21.1494 17.6647 21.0481 17.6145Z" fill="white"/>
</svg>
