<svg width="61" height="60" viewBox="0 0 61 60" fill="none" xmlns="http://www.w3.org/2000/svg">
<path d="M60.0283 9.2639C59.8605 9.70962 59.5485 10.0864 59.1419 10.3344C58.7352 10.5823 58.2574 10.6871 57.7843 10.6322C55.6224 10.6322 53.4468 10.6322 51.2849 10.6322C51.0258 10.6581 50.7641 10.6259 50.519 10.5379C50.2739 10.4499 50.0514 10.3083 49.8679 10.1235C49.6844 9.93866 49.5445 9.71524 49.4582 9.4695C49.3719 9.22375 49.3416 8.96186 49.3693 8.7029V7.07463H42.2953L42.7058 7.38934C45.3578 9.16422 47.6042 11.4802 49.2975 14.1851C50.9907 16.89 52.0923 19.9226 52.5301 23.0836C52.5431 23.1422 52.5431 23.2029 52.5301 23.2615C52.4924 23.7884 52.6232 24.3136 52.9036 24.7612C53.184 25.2089 53.5994 25.5558 54.0899 25.7518C54.9847 26.3154 55.675 27.1513 56.0593 28.1365C56.4435 29.1218 56.5014 30.2043 56.2245 31.2249C55.9796 32.2557 55.4296 33.1886 54.6464 33.902C53.8631 34.6154 52.883 35.076 51.8339 35.2238C50.7848 35.3716 49.7156 35.1996 48.7657 34.7303C47.8159 34.261 47.0296 33.5162 46.5096 32.5932C46.1498 31.9695 45.9235 31.2777 45.845 30.5619C45.7665 29.8461 45.8376 29.1218 46.0537 28.4349C46.2698 27.7479 46.6262 27.1134 47.1004 26.5715C47.5746 26.0295 48.1562 25.592 48.8083 25.2866C48.9341 25.2484 49.0402 25.1628 49.104 25.0479C49.1678 24.933 49.1845 24.7978 49.1504 24.6708C48.9242 22.0481 48.1599 19.5001 46.9051 17.186C45.6503 14.8718 43.932 12.8411 41.8574 11.2205C39.8432 9.61445 37.5115 8.45329 35.016 7.81351C34.9213 7.80424 34.8257 7.81807 34.7376 7.85381C34.6494 7.88956 34.5712 7.94616 34.5097 8.01875C34.0452 8.79234 33.3884 9.43251 32.6031 9.87696C31.8178 10.3214 30.9309 10.555 30.0286 10.555C29.1262 10.555 28.2393 10.3214 27.454 9.87696C26.6687 9.43251 26.0119 8.79234 25.5474 8.01875C25.4803 7.94127 25.3955 7.88097 25.3003 7.84289C25.2051 7.8048 25.1022 7.79004 25.0001 7.79983C22.0726 8.56679 19.3723 10.0262 17.1268 12.055C14.8812 14.0839 13.1562 16.6227 12.0971 19.4576C11.4353 21.1263 11.0205 22.8825 10.8657 24.6708C10.8359 24.7905 10.8534 24.917 10.9146 25.024C10.9758 25.1311 11.0759 25.2104 11.1941 25.2455C12.0825 25.6685 12.8342 26.3324 13.3638 27.1617C13.8934 27.991 14.1794 28.9523 14.1894 29.9362C14.1994 30.9201 13.9329 31.887 13.4203 32.7269C12.9076 33.5668 12.1695 34.2458 11.2898 34.6867C10.095 35.2728 8.72226 35.3836 7.44885 34.9968C6.17545 34.61 5.09627 33.7544 4.42926 32.6028C3.76225 31.4512 3.55711 30.0893 3.85527 28.7923C4.15343 27.4953 4.93266 26.3597 6.03561 25.615C6.20339 25.479 6.39311 25.3725 6.59662 25.3002C7.23971 25.1634 7.33549 24.7119 7.4039 24.1509C7.70091 20.7543 8.76383 17.4692 10.5128 14.5424C12.2618 11.6156 14.6513 9.12318 17.5019 7.25251L17.7345 7.06095H10.6878C10.6878 7.62195 10.6878 8.18295 10.6878 8.74395C10.6974 8.98371 10.6573 9.22288 10.57 9.44637C10.4826 9.66987 10.3499 9.87285 10.1802 10.0425C10.0106 10.2122 9.80757 10.3449 9.58408 10.4323C9.36059 10.5196 9.12142 10.5597 8.88166 10.5501H1.73919C1.50945 10.5557 1.28097 10.5146 1.06759 10.4293C0.854215 10.3439 0.6604 10.2161 0.497901 10.0537C0.335403 9.89115 0.207603 9.69734 0.122267 9.48396C0.0369305 9.27059 -0.00416441 9.0421 0.00146439 8.81236C0.00146439 6.4589 0.00146439 4.11913 0.00146439 1.77935C-0.00832915 1.54377 0.0310836 1.30874 0.117194 1.08924C0.203303 0.869745 0.33422 0.670605 0.501586 0.504525C0.668953 0.338446 0.869096 0.209074 1.08925 0.124661C1.30941 0.0402488 1.54474 0.00264953 1.78023 0.0142619C4.18842 0.0142619 6.58293 0.0142619 8.99112 0.0142619C9.44474 0.0142619 9.87977 0.19446 10.2005 0.515215C10.5213 0.83597 10.7015 1.27101 10.7015 1.72462C10.7015 2.2993 10.7015 2.8603 10.7015 3.51708H24.5075C24.6743 3.53727 24.843 3.5011 24.9868 3.41431C25.1306 3.32753 25.2413 3.19512 25.3011 3.03818C25.7207 2.13423 26.3899 1.36906 27.2299 0.832847C28.0699 0.296638 29.0457 0.0117427 30.0422 0.0117427C31.0388 0.0117427 32.0146 0.296638 32.8546 0.832847C33.6946 1.36906 34.3638 2.13423 34.7834 3.03818C34.9339 3.32552 35.0297 3.5034 35.4128 3.5034H49.0957H49.4104C49.4104 2.96977 49.4104 2.42245 49.4104 1.88882C49.3869 1.6356 49.4198 1.38033 49.5066 1.1413C49.5934 0.902272 49.732 0.685404 49.9124 0.506242C50.0929 0.327079 50.3108 0.190059 50.5504 0.105002C50.7901 0.0199451 51.0456 -0.0110419 51.2986 0.0142619C53.4742 0.0142619 55.6635 0.0142619 57.8527 0.0142619C58.3258 -0.0406945 58.8037 0.0641379 59.2103 0.31208C59.6169 0.560022 59.9289 0.936829 60.0967 1.38255L60.0283 9.2639Z" fill="#DDE9FF"/>
<path d="M19.253 60L18.7878 59.6853C18.4625 59.4844 18.2176 59.1763 18.0952 58.8141C17.9728 58.4519 17.9806 58.0583 18.1173 57.7013C18.5937 56.2871 19.5027 55.0584 20.7158 54.1892C21.9288 53.3199 23.3844 52.8541 24.8767 52.8576C28.3157 52.8576 31.7501 52.8576 35.1799 52.8576C36.6741 52.8533 38.1318 53.3186 39.3471 54.1878C40.5625 55.0569 41.474 56.286 41.9529 57.7013C42.0896 58.0583 42.0975 58.4519 41.9751 58.8141C41.8527 59.1763 41.6077 59.4844 41.2825 59.6853L40.8173 60H19.253Z" fill="#DDE9FF"/>
<path d="M39.2301 50.1347C36.8766 49.1085 34.4137 49.3548 31.9918 49.3274C30.3225 49.3274 28.6669 49.3274 27.0112 49.3274C24.9247 49.1518 22.8247 49.4271 20.8539 50.1347C20.635 49.2727 20.4435 48.4791 20.2108 47.6854C19.2602 44.3098 17.5041 41.2155 15.0934 38.6684L14.8882 38.4632C14.6864 38.3026 14.5201 38.1017 14.4 37.8734C14.2799 37.6451 14.2086 37.3944 14.1906 37.137C14.1726 36.8797 14.2082 36.6214 14.2954 36.3786C14.3825 36.1358 14.5191 35.9138 14.6966 35.7266C18.1812 30.4724 21.6749 25.2273 25.1777 19.9913C25.9166 18.883 26.6555 17.761 27.4354 16.6116C27.4855 16.5327 27.5595 16.4718 27.6467 16.438C27.7338 16.4042 27.8295 16.3991 27.9197 16.4236C28.0099 16.4481 28.09 16.5008 28.1481 16.574C28.2062 16.6472 28.2394 16.7371 28.2427 16.8305C28.2427 19.9502 28.2427 27.4621 28.2427 31.5396C28.2392 31.6951 28.1908 31.8463 28.1034 31.9749C28.016 32.1036 27.8934 32.2042 27.7501 32.2648C26.8147 32.6912 26.0288 33.3888 25.4945 34.2671C24.9602 35.1454 24.7021 36.1639 24.7536 37.1907C24.7918 38.35 25.2166 39.4633 25.9604 40.3534C26.7042 41.2434 27.7243 41.8593 28.8584 42.1028C30.1135 42.366 31.4214 42.1586 32.5335 41.5201C33.6456 40.8816 34.4841 39.8566 34.8896 38.6401C35.2951 37.4236 35.2393 36.1004 34.7327 34.9224C34.2262 33.7444 33.3042 32.7937 32.1423 32.2511C32.0134 32.2161 31.9013 32.1362 31.826 32.0258C31.7508 31.9155 31.7174 31.7819 31.7318 31.6491C31.7318 27.5442 31.7318 19.9776 31.7318 16.8579C31.7337 16.766 31.7644 16.677 31.8197 16.6035C31.875 16.53 31.952 16.4758 32.0398 16.4486C32.1276 16.4213 32.2218 16.4224 32.309 16.4517C32.3961 16.4809 32.4719 16.5369 32.5254 16.6116L45.1821 35.5761C46.2631 37.1907 45.8936 37.7517 43.8138 39.681C41.2 42.2686 39.5942 45.7034 39.2848 49.3684C39.2831 49.6248 39.2648 49.8807 39.2301 50.1347Z" fill="#DDE9FF"/>
<path d="M30.0214 38.778C29.6739 38.7752 29.3351 38.6691 29.048 38.4731C28.761 38.2772 28.5388 38.0002 28.4096 37.6776C28.2805 37.3549 28.2502 37.0012 28.3227 36.6613C28.3952 36.3214 28.5672 36.0107 28.8168 35.7689C29.0664 35.5271 29.3823 35.3649 29.7243 35.3032C30.0663 35.2414 30.419 35.2828 30.7374 35.422C31.0558 35.5613 31.3256 35.7921 31.5124 36.0852C31.6992 36.3782 31.7947 36.7202 31.7865 37.0677C31.783 37.2959 31.7345 37.5212 31.6438 37.7306C31.5532 37.9401 31.4222 38.1296 31.2583 38.2885C31.0944 38.4473 30.9008 38.5723 30.6885 38.6563C30.4763 38.7403 30.2496 38.7817 30.0214 38.778Z" fill="#DDE9FF"/>
</svg>
