<svg width="60" height="60" viewBox="0 0 60 60" fill="none" xmlns="http://www.w3.org/2000/svg">
<path d="M39.896 20.3738C39.8981 19.5652 39.853 18.7571 39.7608 17.9538C39.7813 17.5525 39.7356 17.1505 39.6256 16.7641V16.3585C39.4335 15.2068 39.1671 14.0688 38.8279 12.9515C38.386 11.578 37.8297 10.2439 37.165 8.96326C35.3177 10.855 32.7949 11.9362 30.1509 11.9691C27.507 12.0021 24.958 10.9842 23.0641 9.13901L22.8883 8.96326C22.2201 10.2657 21.6638 11.6225 21.2254 13.0191C20.8863 14.1364 20.6198 15.2744 20.4278 16.4261V16.8317C20.4043 17.2304 20.3591 17.6275 20.2926 18.0214C20.1327 18.8207 20.0198 19.6288 19.9546 20.4414V27.9988H39.896V20.3738Z" fill="#DDE9FF"/>
<path d="M49.8735 7.97644H41.0452C41.5243 8.99398 41.9486 10.0365 42.316 11.0995L50.901 16.2234C51.196 16.403 51.4403 16.655 51.6107 16.9555C51.781 17.256 51.8718 17.595 51.8744 17.9404V21.9963C51.8744 22.5269 51.6636 23.0359 51.2883 23.4111C50.9131 23.7864 50.4042 23.9972 49.8735 23.9972H43.8978V29.9863C43.8978 30.2485 43.846 30.508 43.7453 30.75C43.6445 30.992 43.4969 31.2117 43.311 31.3964C43.125 31.5812 42.9043 31.7273 42.6616 31.8263C42.4189 31.9254 42.159 31.9755 41.8969 31.9737H36.9082V41.9106C38.2349 41.6922 39.5965 41.9254 40.7748 42.5731C41.6665 41.5982 42.7859 40.8596 44.033 40.4235C44.267 38.8651 44.8677 37.3847 45.7858 36.1039C46.7038 34.8231 47.9129 33.7787 49.3135 33.0566C50.7141 32.3345 52.2662 31.9554 53.842 31.9505C55.4178 31.9456 56.9722 32.3149 58.3773 33.0282H59.8509V17.9539C59.8509 16.6436 59.5929 15.3462 59.0915 14.1357C58.59 12.9252 57.8551 11.8253 56.9286 10.8988C56.0021 9.97228 54.9022 9.23734 53.6917 8.73593C52.4812 8.23451 51.1837 7.97644 49.8735 7.97644Z" fill="#DDE9FF"/>
<path d="M47.8864 19.9549V19.0897L43.6142 16.548C43.7089 17.2375 43.7494 17.8999 43.79 18.6706C43.8305 19.4412 43.8981 19.5358 43.8981 19.9549H47.8864ZM56.8634 36.7598C55.964 36.2097 54.9298 35.9195 53.8756 35.9216C53.0886 35.9198 52.309 36.0735 51.5815 36.3738C50.8541 36.6742 50.1931 37.1153 49.6366 37.6718C49.0801 38.2283 48.639 38.8892 48.3387 39.6167C48.0383 40.3441 47.8846 41.1237 47.8864 41.9107C47.8895 42.3874 47.7223 42.8495 47.415 43.2138C47.1076 43.5782 46.6803 43.8208 46.21 43.8981C45.5256 43.9882 44.8764 44.255 44.3264 44.6722C43.7764 45.0894 43.3446 45.6427 43.0734 46.2776C42.9325 46.6067 42.7069 46.8927 42.4195 47.1065C42.1322 47.3202 41.7934 47.454 41.4376 47.4943H41.2348C40.9126 47.4925 40.5956 47.4128 40.3108 47.2622C40.026 47.1115 39.7818 46.8943 39.5989 46.6291C39.2995 46.2138 38.8523 45.929 38.3493 45.8335C37.8463 45.7379 37.3258 45.8388 36.895 46.1153C36.7533 46.2094 36.6259 46.3232 36.5164 46.4533C36.2482 46.7625 35.8911 46.9814 35.4938 47.08C35.0966 47.1786 34.6786 47.1521 34.2969 47.0041C33.9153 46.8562 33.5886 46.5941 33.3615 46.2535C33.1345 45.9129 33.0181 45.5105 33.0284 45.1014V31.9198H26.931V45.196C26.931 45.4581 26.8792 45.7177 26.7785 45.9597C26.6778 46.2017 26.5302 46.4214 26.3442 46.6061C26.1582 46.7908 25.9375 46.9369 25.6948 47.036C25.4521 47.1351 25.1923 47.1852 24.9301 47.1834C24.6484 47.1834 24.3699 47.123 24.1133 47.0064C23.8568 46.8899 23.6283 46.7197 23.443 46.5074C23.2712 46.3097 23.062 46.1479 22.8275 46.0313C22.5929 45.9147 22.3376 45.8456 22.0763 45.828C21.815 45.8105 21.5527 45.8447 21.3047 45.9288C21.0566 46.0129 20.8277 46.1452 20.6309 46.3181C20.4978 46.4244 20.3835 46.5524 20.2929 46.6967C20.107 46.9578 19.8618 47.1712 19.5774 47.3193C19.2931 47.4673 18.9776 47.5458 18.6571 47.5484H18.4543C18.0976 47.5108 17.7575 47.3781 17.4697 47.164C17.1819 46.9499 16.957 46.6625 16.8184 46.3316C16.548 45.6912 16.1175 45.131 15.5682 44.7049C15.0189 44.2787 14.3694 44.0009 13.6818 43.8981C13.2041 43.8296 12.7672 43.5908 12.4516 43.2256C12.1361 42.8603 11.9632 42.3934 11.9648 41.9107C11.9648 41.1249 11.8098 40.3467 11.5087 39.6208C11.2075 38.8949 10.7662 38.2356 10.2098 37.6805C9.65352 37.1254 8.99317 36.6856 8.26661 36.3861C7.54005 36.0865 6.76154 35.9333 5.97567 35.9351C4.92141 35.9331 3.88721 36.2232 2.98784 36.7733C2.68059 36.94 2.33694 37.0282 1.98739 37.0302H9.18527e-06V41.9107C-0.00177053 43.2215 0.255092 44.5197 0.755876 45.731C1.25666 46.9424 1.99152 48.043 2.91837 48.9698C3.84522 49.8967 4.94583 50.6315 6.15716 51.1323C7.36848 51.6331 8.66671 51.89 9.97747 51.8882H21.9423V55.9441H9.97747C9.43963 55.9441 8.92381 56.1577 8.5435 56.538C8.16319 56.9184 7.94953 57.4342 7.94953 57.972C7.94953 58.5099 8.16319 59.0257 8.5435 59.406C8.92381 59.7863 9.43963 59.9999 9.97747 59.9999H49.8738C50.4116 59.9999 50.9274 59.7863 51.3078 59.406C51.6881 59.0257 51.9017 58.5099 51.9017 57.972C51.9017 57.4342 51.6881 56.9184 51.3078 56.538C50.9274 56.1577 50.4116 55.9441 49.8738 55.9441H37.909V51.8882H49.8738C51.1845 51.89 52.4828 51.6331 53.6941 51.1323C54.9054 50.6315 56.006 49.8967 56.9329 48.9698C57.8597 48.043 58.5946 46.9424 59.0954 45.731C59.5962 44.5197 59.853 43.2215 59.8512 41.9107V37.0166H57.8639C57.5143 37.0147 57.1707 36.9265 56.8634 36.7598ZM33.8801 55.863H25.9306V51.8071H33.9207L33.8801 55.863ZM15.9531 19.9549C15.9365 19.524 15.9728 19.0926 16.0613 18.6706C16.1559 18.2379 16.0613 17.2375 16.237 16.548L11.9648 19.0897V19.9549H15.9531Z" fill="#DDE9FF"/>
<path d="M5.97566 31.9198C8.36318 31.9245 10.6703 32.783 12.4802 34.34C14.2902 35.8971 15.4836 38.05 15.845 40.4101C17.0772 40.8603 18.1847 41.5971 19.0761 42.5597C20.256 41.9167 21.6176 41.6882 22.9427 41.9107V31.9198H17.954C17.6919 31.9215 17.432 31.8715 17.1893 31.7724C16.9466 31.6733 16.726 31.5272 16.54 31.3425C16.354 31.1577 16.2064 30.9381 16.1057 30.6961C16.005 30.454 15.9531 30.1945 15.9531 29.9324V23.9432H9.97746C9.44679 23.9432 8.93785 23.7324 8.56261 23.3571C8.18737 22.9819 7.97656 22.473 7.97656 21.9423V17.8864C7.98818 17.5503 8.08322 17.2223 8.25315 16.932C8.42307 16.6417 8.66253 16.3982 8.94997 16.2235L17.5349 11.0861C17.9024 10.0231 18.3266 8.98058 18.8058 7.96304H9.97746C7.33127 7.96304 4.79347 9.01423 2.92233 10.8854C1.05119 12.7565 0 15.2943 0 17.9405V33.0284H1.47364C2.86697 32.3119 4.40894 31.9322 5.97566 31.9198ZM29.9865 7.54393C30.9461 7.53187 31.8889 7.28986 32.7358 6.83821C33.5827 6.38655 34.3089 5.73842 34.8535 4.94817V4.82649C34.1764 3.96012 33.4543 3.12979 32.6904 2.33889L32.5281 2.19017C31.7332 1.40158 30.8839 0.669726 29.9865 0C29.0831 0.672946 28.225 1.40458 27.4177 2.19017L27.2825 2.33889C26.515 3.12652 25.7928 3.95706 25.1194 4.82649L25.0248 4.94817C25.5777 5.75235 26.3188 6.40923 27.1836 6.86163C28.0483 7.31404 29.0105 7.54826 29.9865 7.54393Z" fill="#DDE9FF"/>
</svg>
