<svg width="60" height="55" viewBox="0 0 60 55" fill="none" xmlns="http://www.w3.org/2000/svg">
<path d="M55.0054 0H4.99461C3.66995 0 2.39956 0.526216 1.46289 1.46289C0.526216 2.39956 0 3.66995 0 4.99461L0 15.7861H60V4.99461C60 4.33871 59.8708 3.68923 59.6198 3.08325C59.3688 2.47728 59.0009 1.92668 58.5371 1.46289C58.0733 0.999094 57.5227 0.631194 56.9167 0.380192C56.3107 0.129189 55.6613 0 55.0054 0ZM9.38106 12.4995C8.7612 12.502 8.15452 12.3205 7.63787 11.978C7.12123 11.6355 6.71786 11.1474 6.47888 10.5754C6.23989 10.0035 6.17603 9.37347 6.29539 8.7652C6.41474 8.15693 6.71195 7.59777 7.14935 7.15855C7.58676 6.71933 8.14468 6.41981 8.75245 6.29794C9.36022 6.17606 9.99049 6.23731 10.5634 6.47393C11.1364 6.71055 11.6262 7.11189 11.9708 7.62711C12.3155 8.14233 12.4994 8.74825 12.4995 9.36812C12.4995 10.1964 12.1713 10.9909 11.5869 11.5777C11.0024 12.1646 10.2093 12.496 9.38106 12.4995ZM20.6254 12.4995C20.0055 12.502 19.3989 12.3205 18.8822 11.978C18.3656 11.6355 17.9622 11.1474 17.7232 10.5754C17.4842 10.0035 17.4204 9.37347 17.5397 8.7652C17.6591 8.15693 17.9563 7.59777 18.3937 7.15855C18.8311 6.71933 19.389 6.41981 19.9968 6.29794C20.6046 6.17606 21.2348 6.23731 21.8078 6.47393C22.3807 6.71055 22.8705 7.11189 23.2152 7.62711C23.5598 8.14233 23.7438 8.74825 23.7438 9.36812C23.7404 10.1953 23.4112 10.9879 22.8275 11.574C22.2438 12.1602 21.4526 12.4927 20.6254 12.4995ZM31.8697 12.4995C31.2504 12.4995 30.645 12.3158 30.1301 11.9717C29.6151 11.6277 29.2138 11.1386 28.9768 10.5664C28.7397 9.99426 28.6777 9.36465 28.7986 8.75723C28.9194 8.14981 29.2176 7.59186 29.6555 7.15393C30.0935 6.71601 30.6514 6.41778 31.2588 6.29696C31.8663 6.17613 32.4959 6.23814 33.068 6.47515C33.6402 6.71215 34.1293 7.1135 34.4733 7.62845C34.8174 8.14339 35.0011 8.7488 35.0011 9.36812C35.0011 10.1986 34.6712 10.9951 34.0839 11.5823C33.4967 12.1695 32.7002 12.4995 31.8697 12.4995Z" fill="#DDE9FF"/>
<path d="M1.67624e-05 49.2987C-0.00168529 49.9557 0.126248 50.6066 0.376488 51.214C0.626729 51.8215 0.994359 52.3736 1.45832 52.8388C1.92228 53.3039 2.47346 53.673 3.08028 53.9248C3.68709 54.1766 4.33763 54.3062 4.99462 54.3062H55.0054C55.6624 54.3062 56.3129 54.1766 56.9197 53.9248C57.5265 53.673 58.0777 53.3039 58.5417 52.8388C59.0056 52.3736 59.3733 51.8215 59.6235 51.214C59.8738 50.6066 60.0017 49.9557 60 49.2987V20.1592H1.67624e-05V49.2987ZM39.3746 30.6142C39.5414 30.4388 39.7421 30.2992 39.9645 30.2037C40.187 30.1083 40.4265 30.0591 40.6685 30.0591C40.9106 30.0591 41.1501 30.1083 41.3725 30.2037C41.595 30.2992 41.7957 30.4388 41.9625 30.6142L47.3582 36.0099C47.5336 36.1767 47.6732 36.3774 47.7687 36.5999C47.8641 36.8223 47.9133 37.0618 47.9133 37.3039C47.9133 37.5459 47.8641 37.7854 47.7687 38.0079C47.6732 38.2303 47.5336 38.431 47.3582 38.5978L42.0919 43.8642C41.7507 44.1548 41.3128 44.3065 40.8649 44.2893C40.4171 44.272 39.9922 44.0869 39.6744 43.7708C39.3567 43.4547 39.1695 43.0307 39.1499 42.583C39.1303 42.1353 39.2798 41.6965 39.5687 41.3539L43.5928 37.3427L39.3746 33.0986C39.0521 32.7655 38.8717 32.32 38.8717 31.8564C38.8717 31.3927 39.0521 30.9473 39.3746 30.6142ZM25.8788 43.7865L30.6793 29.4755C30.8548 29.0624 31.1795 28.7305 31.5887 28.546C31.9979 28.3614 32.4616 28.3378 32.8875 28.4797C33.3133 28.6217 33.6701 28.9188 33.8867 29.312C34.1034 29.7051 34.164 30.1654 34.0565 30.6013L29.2819 44.9122C29.1326 45.3635 28.8102 45.737 28.3855 45.9505C27.9608 46.1641 27.4687 46.2002 27.0175 46.0509C26.5662 45.9016 26.1927 45.5792 25.9792 45.1545C25.7656 44.7299 25.7295 44.2378 25.8788 43.7865ZM12.6806 36.0229L18.1152 30.6013C18.2694 30.3993 18.465 30.2326 18.6888 30.1123C18.9127 29.992 19.1596 29.9208 19.4132 29.9036C19.6667 29.8864 19.921 29.9234 20.1591 30.0124C20.3971 30.1013 20.6135 30.24 20.7936 30.4192C20.9738 30.5985 21.1136 30.8141 21.2037 31.0517C21.2939 31.2893 21.3323 31.5434 21.3164 31.797C21.3004 32.0506 21.2306 32.2979 21.1114 32.5224C20.9923 32.7468 20.8266 32.9433 20.6254 33.0986L16.4719 37.2392L20.5348 41.3022C20.8677 41.635 21.0547 42.0865 21.0547 42.5573C21.0547 43.028 20.8677 43.4795 20.5348 43.8124C20.202 44.1453 19.7505 44.3323 19.2797 44.3323C18.809 44.3323 18.3575 44.1453 18.0246 43.8124L12.7065 38.5072C12.5398 38.3435 12.4075 38.1481 12.3171 37.9326C12.2267 37.7171 12.1802 37.4858 12.1802 37.2521C12.1802 37.0184 12.2267 36.7871 12.3171 36.5716C12.4075 36.3561 12.5398 36.1608 12.7065 35.997L12.6806 36.0229Z" fill="#DDE9FF"/>
</svg>
