<svg width="30" height="30" viewBox="0 0 30 30" fill="none" xmlns="http://www.w3.org/2000/svg">
<path d="M28.4821 29.197C29.0803 28.9485 29.5557 28.4731 29.8041 27.8749C29.9296 27.5806 29.9961 27.2645 30 26.9446L30 2.46241C30 1.81311 29.7421 1.19039 29.2829 0.731263C28.8238 0.272133 28.2011 0.0141955 27.5518 0.0141955C26.9025 0.0141955 26.2798 0.272133 25.8206 0.731263C25.3615 1.19039 25.1036 1.81311 25.1036 2.46241L25.1036 21.0444L4.80783 0.724178C4.58023 0.49471 4.30946 0.312577 4.01112 0.188284C3.71279 0.0639916 3.39279 -1.16304e-06 3.0696 -1.17717e-06C2.7464 -1.19129e-06 2.4264 0.0639915 2.12807 0.188284C1.82973 0.312577 1.55896 0.49471 1.33136 0.724178C1.10189 0.951771 0.919758 1.22255 0.795465 1.52088C0.671171 1.81922 0.607181 2.13922 0.607181 2.46241C0.607181 2.78561 0.671171 3.1056 0.795465 3.40394C0.919758 3.70228 1.10189 3.97305 1.33136 4.20065L21.6516 24.4964L3.06959 24.4964C2.42029 24.4964 1.79757 24.7543 1.33844 25.2134C0.879311 25.6726 0.621375 26.2953 0.621375 26.9446C0.621375 27.5939 0.879311 28.2166 1.33844 28.6758C1.79757 29.1349 2.42029 29.3928 3.06959 29.3928L27.5518 29.3928C27.8717 29.389 28.1878 29.3224 28.4821 29.197Z" fill="white"/>
</svg>
