<svg width="59" height="49" viewBox="0 0 59 49" fill="none" xmlns="http://www.w3.org/2000/svg">
<path d="M10.9629 21.9906V14.5712C10.9629 13.5862 11.3533 12.6414 12.0487 11.9438C12.7441 11.2462 13.6876 10.8527 14.6726 10.8496H18.3823C18.8758 10.8497 19.349 11.0458 19.6979 11.3948C20.0447 11.7451 20.2404 12.2174 20.2431 12.7104C20.2379 13.2028 20.0426 13.6742 19.6979 14.026C19.349 14.375 18.8758 14.5711 18.3823 14.5712H14.6726V21.9906H18.3823C18.6271 21.988 18.8697 22.0349 19.0958 22.1286C19.3219 22.2223 19.5267 22.3608 19.6979 22.5358C19.954 22.7966 20.1276 23.1271 20.1971 23.486C20.2666 23.8449 20.2288 24.2163 20.0884 24.5539C19.9481 24.8914 19.7114 25.1802 19.408 25.3841C19.1046 25.5879 18.7479 25.6979 18.3823 25.7003H14.6726C13.6897 25.6972 12.7479 25.3053 12.0529 24.6103C11.3579 23.9153 10.966 22.9735 10.9629 21.9906Z" fill="#3A77DC"/>
<path d="M30.0564 19.8928C31.0954 19.5383 31.9754 18.8274 32.5403 17.8861C33.1051 16.9448 33.3184 15.8338 33.1423 14.7503C32.9662 13.6667 32.4121 12.6804 31.5782 11.9664C30.7443 11.2524 29.6845 10.8568 28.5868 10.8496H23.9526C23.4591 10.8496 22.9858 11.0457 22.6368 11.3946C22.2879 11.7436 22.0918 12.2169 22.0918 12.7104V23.8395C22.0919 24.333 22.288 24.8062 22.637 25.1551C22.9874 25.5019 23.4596 25.6976 23.9526 25.7003C24.445 25.6951 24.9164 25.4998 25.2682 25.1551C25.6172 24.8062 25.8133 24.333 25.8134 23.8395V20.9002L30.0683 25.1551C30.4142 25.496 30.8804 25.6871 31.3661 25.6871C31.8518 25.6871 32.318 25.496 32.6639 25.1551C33.0048 24.8092 33.1959 24.343 33.1959 23.8573C33.1959 23.3716 33.0048 22.9054 32.6639 22.5595L30.0564 19.8928ZM29.2505 16.1475C29.1632 16.2343 29.0597 16.3031 28.9458 16.3499C28.8319 16.3967 28.7099 16.4205 28.5868 16.4201H25.8134V14.5712H28.5868C28.8331 14.5708 29.0703 14.664 29.2505 14.8319C29.4217 15.0109 29.519 15.248 29.5231 15.4956C29.5184 15.7397 29.4209 15.9728 29.2505 16.1475Z" fill="#3A77DC"/>
<path d="M35.0821 23.8402V12.7111C35.0803 12.3349 35.1927 11.9671 35.4043 11.656C35.6159 11.345 35.9168 11.1054 36.2673 10.9688C36.6292 10.8503 37.0195 10.8503 37.3814 10.9688C37.7505 11.064 38.079 11.276 38.3177 11.5733L41.5296 15.4252L44.7771 11.5259C45.0227 11.2308 45.3541 11.0196 45.7252 10.9214C46.0871 10.8029 46.4774 10.8029 46.8393 10.9214C47.1957 11.0542 47.5049 11.2892 47.7282 11.597C47.9434 11.9112 48.0591 12.2829 48.0601 12.6637V23.7928C48.0627 24.0375 48.0158 24.2803 47.9221 24.5064C47.8284 24.7325 47.6899 24.9372 47.5149 25.1084C47.2541 25.3645 46.9236 25.5382 46.5647 25.6076C46.2058 25.6771 45.8344 25.6393 45.4968 25.4989C45.1593 25.3586 44.8705 25.122 44.6666 24.8185C44.4628 24.5151 44.3528 24.1584 44.3504 23.7928V17.8312L42.9992 19.4668C42.8166 19.6646 42.5945 19.8221 42.3474 19.929C42.1025 20.0426 41.8351 20.0993 41.5652 20.095C41.2953 20.0981 41.0282 20.0415 40.7829 19.929C40.5393 19.8219 40.3212 19.6643 40.1429 19.4668L38.851 17.8312V23.8402C38.8541 24.332 38.6623 24.805 38.3177 25.1558C37.9659 25.5005 37.4945 25.6958 37.0021 25.701C36.5091 25.6983 36.0368 25.5026 35.6865 25.1558C35.5029 24.988 35.3549 24.7852 35.2511 24.5592C35.1473 24.3332 35.0898 24.0888 35.0821 23.8402Z" fill="#3A77DC"/>
<path d="M57.3405 0.457319H1.63564C1.41985 0.457314 1.20619 0.500009 1.00697 0.582945C0.807757 0.665882 0.626914 0.787419 0.47488 0.940556C0.322845 1.09369 0.202635 1.2754 0.121139 1.47521C0.0396435 1.67502 -0.00152076 1.88898 4.2934e-05 2.10476V36.4759C4.2934e-05 36.9097 0.172379 37.3257 0.479111 37.6324C0.785844 37.9391 1.20185 38.1115 1.63564 38.1115H57.3405C57.5553 38.1146 57.7686 38.0754 57.9683 37.9961C58.1679 37.9168 58.35 37.7989 58.504 37.6492C58.6581 37.4995 58.7812 37.321 58.8663 37.1237C58.9514 36.9264 58.9967 36.7144 58.9998 36.4996V2.12847C59.003 1.90913 58.9623 1.69138 58.8802 1.48797C58.7981 1.28457 58.6762 1.09961 58.5216 0.943953C58.3671 0.788295 58.183 0.665068 57.9802 0.581504C57.7774 0.497939 57.5599 0.455718 57.3405 0.457319ZM53.7019 33.6432H5.33349V4.98482H53.7019V33.6432ZM36.2556 45.3531H42.4069V48.3043H16.593V45.3175H22.7798V41.3826H36.2556V45.3531Z" fill="#3A77DC"/>
</svg>
