<svg width="59" height="60" viewBox="0 0 59 60" fill="none" xmlns="http://www.w3.org/2000/svg">
<path d="M29.5 0.457275C13.2109 0.457275 0 13.6681 0 29.9573C0 46.2464 13.2109 59.4573 29.5 59.4573C45.7891 59.4573 59 46.2464 59 29.9573C59 13.6681 45.7891 0.457275 29.5 0.457275ZM31.8728 54.1986C31.7446 54.1986 31.6163 54.1986 31.4239 54.2627V40.3464C34.7587 40.2823 37.7728 40.2181 40.5304 40.0258C38.0935 47.529 33.5402 52.5312 31.8728 54.1986ZM27.1272 54.1986C25.3957 52.4671 20.9065 47.4649 18.4696 40.0258C21.163 40.2181 24.2413 40.3464 27.5761 40.3464V54.2627C27.4478 54.2627 27.3196 54.1986 27.1272 54.1986ZM5.13043 29.9573C5.13043 28.354 5.32283 26.7508 5.57935 25.2116C6.99022 24.9551 9.6837 24.5703 13.4674 24.1855C13.1467 26.0453 12.9543 27.9692 12.9543 30.0214C12.9543 32.0736 13.1467 33.9975 13.4033 35.7931C9.6837 35.4084 6.92609 35.0236 5.51522 34.7671C5.32283 33.1638 5.13043 31.5605 5.13043 29.9573ZM16.8663 29.9573C16.8663 27.7768 17.1228 25.7247 17.5076 23.8008C20.4576 23.6084 23.7924 23.416 27.5761 23.416V36.4986C23.8565 36.4345 20.4576 36.3062 17.4435 36.0497C17.1228 34.1899 16.8663 32.1377 16.8663 29.9573ZM31.8087 5.71597C33.5402 7.44749 37.9652 12.5779 40.4663 19.8888C37.7728 19.6964 34.7587 19.5681 31.4239 19.5681V5.65184C31.5522 5.65184 31.6804 5.71597 31.8087 5.71597ZM27.5761 5.65184V19.5681C24.2413 19.6323 21.2272 19.6964 18.5337 19.8888C20.9707 12.5779 25.4598 7.44749 27.1272 5.71597C27.3196 5.71597 27.4478 5.65184 27.5761 5.65184ZM31.4239 36.4986V23.416C35.1435 23.4801 38.5424 23.6084 41.4924 23.8008C41.8772 25.7247 42.1337 27.7768 42.1337 29.9573C42.1337 32.1377 41.9413 34.1899 41.5565 36.1138C38.6065 36.3062 35.2076 36.4345 31.4239 36.4986ZM45.4685 24.1855C49.2522 24.5703 51.9457 24.9551 53.3565 25.2116C53.6772 26.7508 53.8696 28.354 53.8696 29.9573C53.8696 31.5605 53.6772 33.1638 53.4207 34.7029C52.0098 34.9595 49.3163 35.3442 45.5326 35.729C45.8533 33.8692 45.9815 31.9453 45.9815 29.8931C45.9815 27.9692 45.7891 25.9812 45.4685 24.1855ZM52.2022 21.1073C50.4065 20.8508 47.8413 20.5301 44.5707 20.2094C43.0315 14.6942 40.338 10.2692 38.0935 7.12684C44.5707 9.5638 49.7011 14.6942 52.2022 21.1073ZM20.9065 7.12684C18.5978 10.2051 15.9685 14.6301 14.4293 20.1453C11.2228 20.4018 8.65761 20.7866 6.79783 21.0431C9.29891 14.6942 14.4935 9.5638 20.9065 7.12684ZM6.79783 38.8073C8.59348 39.0638 11.1587 39.3845 14.3652 39.7051C15.9043 45.2203 18.4696 49.6453 20.7783 52.7236C14.3652 50.2225 9.29891 45.1562 6.79783 38.8073ZM38.2217 52.7236C40.5304 49.6453 43.0957 45.2845 44.6348 39.7692C47.8413 39.5127 50.4065 39.1279 52.2022 38.8714C49.7011 45.1562 44.6348 50.2225 38.2217 52.7236Z" fill="#3A77DC"/>
</svg>
