<svg width="56" height="60" viewBox="0 0 56 60" fill="none" xmlns="http://www.w3.org/2000/svg">
<path d="M26.1275 54.5043C26.2868 55.1088 26.197 55.7513 25.8778 56.2903C25.5586 56.8293 25.0361 57.2208 24.4253 57.3786L16.724 59.3812C16.1131 59.5389 15.464 59.4501 14.9193 59.1342C14.3746 58.8182 13.9791 58.3012 13.8196 57.6967L7.98701 35.6916C7.95163 35.5524 7.92775 35.4105 7.91559 35.2675H6.59436C5.98823 35.2675 5.4069 35.0292 4.97831 34.605C4.54971 34.1809 4.30897 33.6056 4.30897 33.0057V32.2636H2.72583C2.00181 32.2605 1.30852 31.9736 0.797673 31.4659C0.286821 30.9581 -6.84331e-06 30.2707 1.224e-10 29.5542V20.3422C0.00313223 19.6277 0.291373 18.9434 0.801886 18.4381C1.3124 17.9329 2.00386 17.6477 2.72583 17.6446H4.30897V16.8907C4.30897 16.2908 4.54971 15.7155 4.97831 15.2913C5.4069 14.8672 5.98823 14.6289 6.59436 14.6289H24.7705V35.2675H21.0329L21.8066 38.2243L22.485 38.0476C22.6224 38.0117 22.7685 38.0312 22.8913 38.1019C23.0141 38.1726 23.1034 38.2886 23.1398 38.4245L24.461 43.3957C24.4973 43.5316 24.4775 43.6762 24.4061 43.7977C24.3346 43.9192 24.2174 44.0077 24.0801 44.0436L23.4016 44.2203L26.1275 54.5043ZM51.8382 17.7742V2.18918C51.8382 1.72992 51.6539 1.28946 51.3258 0.964712C50.9976 0.639962 50.5525 0.45752 50.0885 0.45752C49.6244 0.45752 49.1793 0.639962 48.8512 0.964712C48.5231 1.28946 48.3387 1.72992 48.3387 2.18918V2.36588C48.0061 2.47601 47.6867 2.62218 47.3865 2.80174L35.4 10.2938C33.4836 11.4718 30.4602 13.3684 28.3534 14.6996V35.2086L35.4 39.6025L47.3865 47.0946C47.6843 47.2786 48.0042 47.425 48.3387 47.5305V47.7072C48.3387 48.1665 48.5231 48.6069 48.8512 48.9317C49.1793 49.2564 49.6244 49.4389 50.0885 49.4389C50.5525 49.4389 50.9976 49.2564 51.3258 48.9317C51.6539 48.6069 51.8382 48.1665 51.8382 47.7072V32.0869C52.9219 31.2329 53.797 30.1481 54.3985 28.9132C55.0001 27.6783 55.3125 26.325 55.3125 24.9541C55.3125 23.5832 55.0001 22.2299 54.3985 20.995C53.797 19.76 52.9219 18.6752 51.8382 17.8213V17.7742Z" fill="#3A77DC"/>
</svg>
