<svg width="30" height="29" viewBox="0 0 30 29" fill="none" xmlns="http://www.w3.org/2000/svg">
<path d="M29.197 1.76772C28.9485 1.18352 28.4731 0.719277 27.8749 0.476667C27.5806 0.354158 27.2645 0.289178 26.9446 0.2854L2.46241 0.2854C1.81311 0.2854 1.19039 0.537292 0.731263 0.985661C0.272133 1.43403 0.0141956 2.04215 0.0141956 2.67624C0.0141956 3.31033 0.272133 3.91845 0.731263 4.36682C1.19039 4.81519 1.81311 5.06708 2.46241 5.06708L21.0444 5.06708L0.724179 24.8871C0.494711 25.1094 0.312578 25.3738 0.188286 25.6652C0.0639927 25.9565 0 26.269 0 26.5846C0 26.9002 0.0639927 27.2127 0.188286 27.5041C0.312578 27.7954 0.494711 28.0599 0.724179 28.2821C0.951773 28.5062 1.22255 28.6841 1.52089 28.8055C1.81922 28.9268 2.13922 28.9893 2.46241 28.9893C2.78561 28.9893 3.1056 28.9268 3.40394 28.8055C3.70228 28.6841 3.97306 28.5062 4.20065 28.2821L24.4964 8.43816V26.5846C24.4964 27.2187 24.7543 27.8268 25.2134 28.2752C25.6726 28.7236 26.2953 28.9755 26.9446 28.9755C27.5939 28.9755 28.2166 28.7236 28.6758 28.2752C29.1349 27.8268 29.3928 27.2187 29.3928 26.5846V2.67624C29.389 2.36381 29.3224 2.05515 29.197 1.76772Z" fill="#0C5ADB"/>
</svg>
