<svg width="73" height="50" viewBox="0 0 73 50" fill="none" xmlns="http://www.w3.org/2000/svg">
<path d="M64.7493 31.8581C64.0827 32.0391 63.3724 31.9444 62.7747 31.5947C62.1771 31.2451 61.7409 30.6693 61.5623 29.9939C61.3837 29.3184 61.4772 28.5988 61.8222 27.9932C62.1673 27.3876 62.7356 26.9457 63.4022 26.7647L70.8686 24.7376C68.527 17.9137 64.2638 11.9343 58.6057 7.53799C52.9475 3.1417 46.1423 0.521129 39.0306 0V7.81628C39.0306 8.51552 38.7565 9.18612 38.2685 9.68055C37.7805 10.175 37.1187 10.4528 36.4286 10.4528C35.7385 10.4528 35.0766 10.175 34.5886 9.68055C34.1007 9.18612 33.8265 8.51552 33.8265 7.81628V0.00386204C19.1424 1.07156 6.82686 11.108 2.08749 24.7645L9.45496 26.7647C9.78539 26.854 10.0952 27.0084 10.3667 27.2191C10.6382 27.4298 10.866 27.6927 11.0372 27.9926C11.2083 28.2926 11.3195 28.6238 11.3642 28.9674C11.4089 29.3109 11.3864 29.66 11.2979 29.9947C11.2093 30.3294 11.0566 30.6431 10.8483 30.9179C10.64 31.1928 10.3803 31.4233 10.0841 31.5964C9.78781 31.7694 9.46078 31.8816 9.12169 31.9265C8.7826 31.9714 8.4381 31.9482 8.10788 31.8581L0.712131 29.8502C0.237906 32.2671 -0.000618458 34.7254 1.20424e-06 37.1896V44.727C0.00157914 46.125 0.550372 47.4653 1.52598 48.4538C2.5016 49.4423 3.82436 49.9984 5.20408 50H23.1657L48.6204 16.3877C49.0407 15.8335 49.661 15.471 50.3449 15.38C51.0289 15.289 51.7205 15.4769 52.2678 15.9024C52.8151 16.3279 53.1732 16.9562 53.2634 17.6491C53.3537 18.342 53.1687 19.0429 52.7491 19.5977L29.7253 50H67.6531C69.0328 49.9984 70.3555 49.4423 71.3312 48.4538C72.3068 47.4653 72.8556 46.125 72.8571 44.727V36.8176C72.8576 34.4739 72.6402 32.1354 72.2077 29.8331L64.7493 31.8581Z" fill="#0C5ADB"/>
</svg>
