<svg width="57" height="50" viewBox="0 0 57 50" fill="none" xmlns="http://www.w3.org/2000/svg">
<path d="M16.0328 34.8276C16.0333 36.2763 15.6411 37.698 14.8979 38.9416C14.1547 40.1851 13.0883 41.204 11.8121 41.8897V46.2069C11.8121 47.2129 11.4125 48.1777 10.7011 48.889C9.9898 49.6004 9.02501 50 8.01901 50C7.01302 50 6.04823 49.6004 5.33688 48.889C4.62554 48.1777 4.22591 47.2129 4.22591 46.2069V41.8897C2.94878 41.2046 1.88132 40.1861 1.13716 38.9425C0.392999 37.6989 0 36.2768 0 34.8276C0 33.3783 0.392999 31.9562 1.13716 30.7126C1.88132 29.469 2.94878 28.4505 4.22591 27.7655V3.7931C4.22591 2.78711 4.62554 1.82232 5.33688 1.11097C6.04823 0.399629 7.01302 0 8.01901 0C9.02501 0 9.9898 0.399629 10.7011 1.11097C11.4125 1.82232 11.8121 2.78711 11.8121 3.7931V27.7655C13.0873 28.4524 14.1529 29.4715 14.8959 30.7147C15.639 31.958 16.0318 33.3792 16.0328 34.8276ZM31.8949 7.62759V3.7931C31.8949 2.78711 31.4952 1.82232 30.7839 1.11097C30.0726 0.399629 29.1078 0 28.1018 0C27.0958 0 26.131 0.399629 25.4196 1.11097C24.7083 1.82232 24.3087 2.78711 24.3087 3.7931V7.62759C23.035 8.31375 21.9708 9.33192 21.229 10.5741C20.4872 11.8162 20.0956 13.236 20.0956 14.6828C20.0956 16.1295 20.4872 17.5493 21.229 18.7915C21.9708 20.0336 23.035 21.0518 24.3087 21.7379V46.2069C24.3087 47.2129 24.7083 48.1777 25.4196 48.889C26.131 49.6004 27.0958 50 28.1018 50C29.1078 50 30.0726 49.6004 30.7839 48.889C31.4952 48.1777 31.8949 47.2129 31.8949 46.2069V21.7379C33.1686 21.0518 34.2328 20.0336 34.9745 18.7915C35.7163 17.5493 36.108 16.1295 36.108 14.6828C36.108 13.236 35.7163 11.8162 34.9745 10.5741C34.2328 9.33192 33.1686 8.31375 31.8949 7.62759ZM51.9776 22.2483V3.7931C51.9776 2.78711 51.578 1.82232 50.8667 1.11097C50.1553 0.399629 49.1905 0 48.1845 0C47.1785 0 46.2137 0.399629 45.5024 1.11097C44.791 1.82232 44.3914 2.78711 44.3914 3.7931V22.2483C43.1143 22.9333 42.0468 23.9518 41.3027 25.1954C40.5585 26.439 40.1655 27.8611 40.1655 29.3103C40.1655 30.7596 40.5585 32.1817 41.3027 33.4253C42.0468 34.6689 43.1143 35.6874 44.3914 36.3724V46.2069C44.3914 47.2129 44.791 48.1777 45.5024 48.889C46.2137 49.6004 47.1785 50 48.1845 50C49.1905 50 50.1553 49.6004 50.8667 48.889C51.578 48.1777 51.9776 47.2129 51.9776 46.2069V36.3724C53.2548 35.6874 54.3222 34.6689 55.0664 33.4253C55.8105 32.1817 56.2035 30.7596 56.2035 29.3103C56.2035 27.8611 55.8105 26.439 55.0664 25.1954C54.3222 23.9518 53.2548 22.9333 51.9776 22.2483Z" fill="#0C5ADB"/>
</svg>
