<svg width="53" height="50" viewBox="0 0 53 50" fill="none" xmlns="http://www.w3.org/2000/svg">
<path fill-rule="evenodd" clip-rule="evenodd" d="M26.0876 0C25.628 0.000332736 25.1813 0.151542 24.8161 0.430394C24.4508 0.709246 24.1872 1.10031 24.0658 1.54351L18.9352 17.3917H2.087C1.52564 17.4142 0.994769 17.6531 0.605694 18.0584C0.216618 18.4637 -0.000448928 19.0038 6.97111e-07 19.5657C0.00377033 19.9059 0.0873685 20.2406 0.244067 20.5426C0.400766 20.8447 0.626189 21.1058 0.902195 21.3048C1.23916 21.5331 14.5112 31.229 14.5112 31.229C14.5112 31.229 9.41326 46.8924 9.31543 47.1424C9.2326 47.3802 9.18856 47.6297 9.18499 47.8815C9.18321 48.2678 9.28757 48.6472 9.48669 48.9782C9.6858 49.3092 9.97202 49.5792 10.3141 49.7586C10.6562 49.9381 11.041 50.0201 11.4265 49.9958C11.812 49.9715 12.1835 49.8417 12.5003 49.6207L26.0876 39.7292L39.6748 49.6207C39.9911 49.8271 40.357 49.9447 40.7342 49.9614C41.1115 49.978 41.4863 49.893 41.8195 49.7153C42.1528 49.5376 42.4321 49.2737 42.6285 48.9511C42.8248 48.6285 42.931 48.2591 42.9358 47.8815C42.9322 47.6297 42.8882 47.3802 42.8053 47.1424C42.7075 46.8924 37.6096 31.2398 37.6096 31.2398C37.6096 31.2398 50.8816 21.544 51.2186 21.3157C51.5775 21.0541 51.8477 20.6888 51.9928 20.2691C52.1379 19.8493 52.1509 19.3952 52.0301 18.9678C51.9094 18.5404 51.6606 18.1602 51.3173 17.8784C50.974 17.5967 50.5526 17.4268 50.1098 17.3917H33.2616L28.1093 1.54351C27.9879 1.10031 27.7243 0.709246 27.3591 0.430394C26.9938 0.151542 26.5471 0.000332736 26.0876 0Z" fill="#0C5ADB"/>
</svg>
