<svg width="59" height="50" viewBox="0 0 59 50" fill="none" xmlns="http://www.w3.org/2000/svg">
<path fill-rule="evenodd" clip-rule="evenodd" d="M0 45.122C0 46.4157 0.513932 47.6564 1.42874 48.5713C2.34356 49.4861 3.58431 50 4.87805 50H53.6585C54.9523 50 56.193 49.4861 57.1078 48.5713C58.0227 47.6564 58.5366 46.4157 58.5366 45.122V4.87805C58.5366 3.58431 58.0227 2.34356 57.1078 1.42875C56.193 0.513936 54.9523 0 53.6585 0H15.8537C14.5599 0 13.3192 0.513936 12.4044 1.42875C11.4895 2.34356 10.9756 3.58431 10.9756 4.87805V41.4634C10.9756 42.1103 10.7186 42.7307 10.2612 43.1881C9.80383 43.6455 9.18346 43.9024 8.53659 43.9024C7.88972 43.9024 7.26934 43.6455 6.81193 43.1881C6.35453 42.7307 6.09756 42.1103 6.09756 41.4634V9.14634C6.09756 8.33776 5.77634 7.56229 5.20459 6.99053C4.63283 6.41877 3.85737 6.09756 3.04878 6.09756C2.24019 6.09756 1.46473 6.41877 0.892974 6.99053C0.321217 7.56229 0 8.33776 0 9.14634V45.122ZM34.1463 8.78049V18.0488C34.148 18.4016 34.0797 18.7512 33.9454 19.0774C33.8112 19.4036 33.6136 19.7 33.3641 19.9495C33.1147 20.199 32.8183 20.3965 32.492 20.5308C32.1658 20.665 31.8162 20.7333 31.4634 20.7317H19.7561C19.0445 20.7317 18.3621 20.449 17.859 19.9459C17.3558 19.4428 17.0732 18.7603 17.0732 18.0488V8.78049C17.0732 8.06893 17.3558 7.38652 17.859 6.88337C18.3621 6.38023 19.0445 6.09756 19.7561 6.09756H31.4634C31.8162 6.09595 32.1658 6.16424 32.492 6.2985C32.8183 6.43276 33.1147 6.63032 33.3641 6.87977C33.6136 7.12923 33.8112 7.42563 33.9454 7.75187C34.0797 8.0781 34.148 8.42771 34.1463 8.78049ZM50 30.4878H19.5122C18.8653 30.4878 18.2449 30.2308 17.7875 29.7734C17.3301 29.316 17.0732 28.6957 17.0732 28.0488C17.0732 27.4019 17.3301 26.7815 17.7875 26.3241C18.2449 25.8667 18.8653 25.6098 19.5122 25.6098H50C50.6469 25.6098 51.2672 25.8667 51.7247 26.3241C52.1821 26.7815 52.439 27.4019 52.439 28.0488C52.439 28.6957 52.1821 29.316 51.7247 29.7734C51.2672 30.2308 50.6469 30.4878 50 30.4878ZM50 40.2439H19.5122C18.8653 40.2439 18.2449 39.9869 17.7875 39.5295C17.3301 39.0721 17.0732 38.4517 17.0732 37.8049C17.0732 37.158 17.3301 36.5376 17.7875 36.0802C18.2449 35.6228 18.8653 35.3659 19.5122 35.3659H50C50.6469 35.3659 51.2672 35.6228 51.7247 36.0802C52.1821 36.5376 52.439 37.158 52.439 37.8049C52.439 38.4517 52.1821 39.0721 51.7247 39.5295C51.2672 39.9869 50.6469 40.2439 50 40.2439ZM50 10.9756H41.4634C40.8165 10.9756 40.1962 10.7186 39.7388 10.2612C39.2814 9.80383 39.0244 9.18346 39.0244 8.53659C39.0244 7.88972 39.2814 7.26934 39.7388 6.81194C40.1962 6.35453 40.8165 6.09756 41.4634 6.09756H50C50.6469 6.09756 51.2672 6.35453 51.7247 6.81194C52.1821 7.26934 52.439 7.88972 52.439 8.53659C52.439 9.18346 52.1821 9.80383 51.7247 10.2612C51.2672 10.7186 50.6469 10.9756 50 10.9756ZM50 20.7317H41.4634C40.8165 20.7317 40.1962 20.4747 39.7388 20.0173C39.2814 19.5599 39.0244 18.9396 39.0244 18.2927C39.0244 17.6458 39.2814 17.0254 39.7388 16.568C40.1962 16.1106 40.8165 15.8537 41.4634 15.8537H50C50.6469 15.8537 51.2672 16.1106 51.7247 16.568C52.1821 17.0254 52.439 17.6458 52.439 18.2927C52.439 18.9396 52.1821 19.5599 51.7247 20.0173C51.2672 20.4747 50.6469 20.7317 50 20.7317Z" fill="#0C5ADB"/>
</svg>
