<svg width="162" height="50" viewBox="0 0 162 50" fill="none" xmlns="http://www.w3.org/2000/svg">
<path fill-rule="evenodd" clip-rule="evenodd" d="M48.8636 31.8182V4.54545C48.8636 3.33992 48.3847 2.18377 47.5323 1.33133C46.6799 0.478895 45.5237 0 44.3182 0H10.2273C9.02174 0 7.86559 0.478895 7.01315 1.33133C6.16071 2.18377 5.68182 3.33992 5.68182 4.54545V31.8182L0 43.1818V45.4545C0 46.6601 0.478891 47.8162 1.33133 48.6687C2.18377 49.5211 3.33993 50 4.54545 50H50C51.2055 50 52.3617 49.5211 53.2141 48.6687C54.0666 47.8162 54.5455 46.6601 54.5455 45.4545V43.1818L48.8636 31.8182ZM13.8636 5.68182H40.6818C41.0105 5.68031 41.3363 5.74395 41.6403 5.86906C41.9443 5.99416 42.2205 6.17825 42.4529 6.4107C42.6854 6.64314 42.8695 6.91934 42.9946 7.22333C43.1197 7.52733 43.1833 7.85309 43.1818 8.18182V25.9091C43.1833 26.2378 43.1197 26.5636 42.9946 26.8676C42.8695 27.1716 42.6854 27.4478 42.4529 27.6802C42.2205 27.9127 41.9443 28.0968 41.6403 28.2219C41.3363 28.347 41.0105 28.4106 40.6818 28.4091H13.8636C13.5349 28.4106 13.2091 28.347 12.9052 28.2219C12.6012 28.0968 12.325 27.9127 12.0925 27.6802C11.8601 27.4478 11.676 27.1716 11.5509 26.8676C11.4258 26.5636 11.3621 26.2378 11.3636 25.9091V8.18182C11.3621 7.85309 11.4258 7.52733 11.5509 7.22333C11.676 6.91934 11.8601 6.64314 12.0925 6.4107C12.325 6.17825 12.6012 5.99416 12.9052 5.86906C13.2091 5.74395 13.5349 5.68031 13.8636 5.68182ZM20.4545 38.6364H34.0909L35.2273 43.1818H19.3182L20.4545 38.6364Z" fill="#0C5ADB"/>
<path fill-rule="evenodd" clip-rule="evenodd" d="M80.8949 40.625C81.4474 40.625 81.9773 40.8445 82.368 41.2352C82.7587 41.6259 82.9782 42.1558 82.9782 42.7083C82.9782 43.2609 82.7587 43.7908 82.368 44.1815C81.9773 44.5722 81.4474 44.7917 80.8949 44.7917H73.0824C72.3917 44.7917 71.7293 45.066 71.2409 45.5544C70.7526 46.0428 70.4782 46.7052 70.4782 47.3958C70.4782 48.0865 70.7526 48.7489 71.2409 49.2373C71.7293 49.7256 72.3917 50 73.0824 50H102.249C102.94 50 103.602 49.7256 104.09 49.2373C104.579 48.7489 104.853 48.0865 104.853 47.3958C104.853 46.7052 104.579 46.0428 104.09 45.5544C103.602 45.066 102.94 44.7917 102.249 44.7917H94.4365C93.884 44.7917 93.3541 44.5722 92.9634 44.1815C92.5727 43.7908 92.3532 43.2609 92.3532 42.7083C92.3532 42.1558 92.5727 41.6259 92.9634 41.2352C93.3541 40.8445 93.884 40.625 94.4365 40.625H107.978C109.083 40.625 110.143 40.186 110.925 39.4046C111.706 38.6232 112.145 37.5634 112.145 36.4583V4.16667C112.145 3.0616 111.706 2.00179 110.925 1.22039C110.143 0.438987 109.083 0 107.978 0L67.3532 0C66.2481 0 65.1883 0.438987 64.4069 1.22039C63.6255 2.00179 63.1865 3.0616 63.1865 4.16667V36.4583C63.1865 37.5634 63.6255 38.6232 64.4069 39.4046C65.1883 40.186 66.2481 40.625 67.3532 40.625H80.8949ZM85.0615 32.8125C85.0615 32.2974 85.2143 31.794 85.5004 31.3657C85.7866 30.9374 86.1933 30.6037 86.6691 30.4066C87.145 30.2095 87.6686 30.1579 88.1737 30.2584C88.6789 30.3589 89.1429 30.6069 89.5071 30.9711C89.8713 31.3353 90.1193 31.7993 90.2198 32.3045C90.3203 32.8096 90.2687 33.3332 90.0716 33.8091C89.8745 34.2849 89.5408 34.6916 89.1125 34.9778C88.6843 35.2639 88.1807 35.4167 87.6657 35.4167C86.975 35.4167 86.3127 35.1423 85.8243 34.6539C85.3359 34.1656 85.0615 33.5032 85.0615 32.8125ZM70.6865 5.20833H104.645C104.946 5.20695 105.245 5.26529 105.523 5.37997C105.802 5.49465 106.055 5.6634 106.268 5.87647C106.481 6.08955 106.65 6.34273 106.765 6.62139C106.88 6.90005 106.938 7.19867 106.937 7.5V23.75C106.938 24.0513 106.88 24.35 106.765 24.6286C106.65 24.9073 106.481 25.1605 106.268 25.3735C106.055 25.5866 105.802 25.7554 105.523 25.87C105.245 25.9847 104.946 26.043 104.645 26.0417H70.6865C70.3852 26.043 70.0866 25.9847 69.8079 25.87C69.5293 25.7554 69.2761 25.5866 69.063 25.3735C68.8499 25.1605 68.6812 24.9073 68.5665 24.6286C68.4518 24.35 68.3935 24.0513 68.3949 23.75V7.5C68.3935 7.19867 68.4518 6.90005 68.5665 6.62139C68.6812 6.34273 68.8499 6.08955 69.063 5.87647C69.2761 5.6634 69.5293 5.49465 69.8079 5.37997C70.0866 5.26529 70.3852 5.20695 70.6865 5.20833Z" fill="#0C5ADB"/>
<path fill-rule="evenodd" clip-rule="evenodd" d="M125.187 45.8333C125.187 46.9384 125.626 47.9982 126.407 48.7796C127.188 49.561 128.248 50 129.353 50H157.478C158.583 50 159.643 49.561 160.424 48.7796C161.206 47.9982 161.645 46.9384 161.645 45.8333V4.16667C161.645 3.0616 161.206 2.00179 160.424 1.22039C159.643 0.438987 158.583 0 157.478 0L129.353 0C128.248 0 127.188 0.438987 126.407 1.22039C125.626 2.00179 125.187 3.0616 125.187 4.16667V45.8333ZM132.687 5.20833H154.145C154.446 5.20695 154.745 5.26529 155.023 5.37997C155.302 5.49465 155.555 5.6634 155.768 5.87647C155.981 6.08955 156.15 6.34273 156.265 6.62139C156.38 6.90005 156.438 7.19867 156.437 7.5V33.125C156.438 33.4263 156.38 33.7249 156.265 34.0036C156.15 34.2823 155.981 34.5354 155.768 34.7485C155.555 34.9616 155.302 35.1304 155.023 35.245C154.745 35.3597 154.446 35.418 154.145 35.4167H132.687C132.385 35.418 132.087 35.3597 131.808 35.245C131.529 35.1304 131.276 34.9616 131.063 34.7485C130.85 34.5354 130.681 34.2823 130.566 34.0036C130.452 33.7249 130.393 33.4263 130.395 33.125V7.5C130.393 7.19867 130.452 6.90005 130.566 6.62139C130.681 6.34273 130.85 6.08955 131.063 5.87647C131.276 5.6634 131.529 5.49465 131.808 5.37997C132.087 5.26529 132.385 5.20695 132.687 5.20833ZM140.812 42.1875C140.812 41.6724 140.964 41.169 141.25 40.7407C141.537 40.3124 141.943 39.9787 142.419 39.7816C142.895 39.5845 143.419 39.5329 143.924 39.6334C144.429 39.7339 144.893 39.9819 145.257 40.3461C145.621 40.7103 145.869 41.1743 145.97 41.6795C146.07 42.1846 146.019 42.7082 145.822 43.1841C145.625 43.6599 145.291 44.0666 144.863 44.3528C144.434 44.6389 143.931 44.7917 143.416 44.7917C142.725 44.7917 142.063 44.5173 141.574 44.0289C141.086 43.5405 140.812 42.8782 140.812 42.1875Z" fill="#0C5ADB"/>
</svg>
