<svg width="47" height="46" viewBox="0 0 47 46" fill="none" xmlns="http://www.w3.org/2000/svg">
<path d="M3.24162 6.68201L6.91691 10.359H2.18754C1.91937 10.406 1.64418 10.3937 1.38126 10.323C1.11834 10.2523 0.874081 10.1248 0.665621 9.94964C0.457162 9.77444 0.289551 9.55572 0.174561 9.30884C0.0595712 9.06195 0 8.79287 0 8.5205C0 8.24812 0.0595712 7.97904 0.174561 7.73216C0.289551 7.48527 0.457162 7.26655 0.665621 7.09135C0.874081 6.91616 1.11834 6.78873 1.38126 6.71801C1.64418 6.6473 1.91937 6.63501 2.18754 6.68201H3.24162ZM5.63896 6.68201L9.30492 10.359H13.6332L9.96721 6.68201H5.63896ZM38.1382 36.2191C38.1382 35.9716 38.0399 35.7342 37.865 35.5592C37.6901 35.3842 37.4528 35.2859 37.2054 35.2859H35.1252C34.8778 35.2859 34.6406 35.3842 34.4656 35.5592C34.2907 35.7342 34.1924 35.9716 34.1924 36.2191V37.619H24.0527V44.6556C24.0514 44.8348 24.0862 45.0125 24.155 45.178C24.2238 45.3435 24.3252 45.4934 24.4532 45.6188C24.5811 45.7442 24.7331 45.8426 24.8998 45.908C25.0666 45.9734 25.2449 46.0045 25.424 45.9995H45.6567C45.8335 46.0007 46.0087 45.9668 46.1722 45.8997C46.3358 45.8326 46.4843 45.7337 46.6093 45.6086C46.7343 45.4836 46.8332 45.335 46.9002 45.1713C46.9673 45.0077 47.0012 44.8324 47 44.6556V37.619H38.1755L38.1382 36.2191ZM45.097 17.0317H39.7613L43.5859 31.8049H45.6194C45.9756 31.8049 46.3173 31.9465 46.5692 32.1985C46.8211 32.4505 46.9626 32.7923 46.9626 33.1487V35.7525H39.9665C39.8553 35.0934 39.512 34.4959 38.9987 34.068C38.4855 33.6401 37.8361 33.41 37.1681 33.4194H35.1252C34.4572 33.41 33.8079 33.6401 33.2946 34.068C32.7814 34.4959 32.4381 35.0934 32.3268 35.7525H24.0154V33.1487C24.0152 32.9666 24.052 32.7864 24.1235 32.6189C24.1951 32.4515 24.2999 32.3003 24.4316 32.1746C24.5634 32.0489 24.7193 31.9514 24.8899 31.8878C25.0604 31.8242 25.2421 31.796 25.424 31.8049H33.2036L32.0936 27.512L27.7933 25.7388C27.7425 25.7174 27.6963 25.6861 27.6576 25.6468C27.6188 25.6075 27.5882 25.561 27.5674 25.5099C27.5466 25.4588 27.5361 25.404 27.5364 25.3488C27.5368 25.2936 27.548 25.239 27.5694 25.1882C27.5909 25.1373 27.6221 25.0912 27.6614 25.0524C27.7006 25.0136 27.7471 24.983 27.7982 24.9622C27.8493 24.9414 27.904 24.9308 27.9592 24.9312C28.0144 24.9315 28.069 24.9428 28.1198 24.9642L28.4836 25.1135L30.3492 20.662L29.4164 17.0317H27.4109V0H45.1343C45.6291 0 46.1037 0.196647 46.4535 0.54668C46.8034 0.896714 47 1.37146 47 1.86648V15.1652C47 15.4135 46.9506 15.6593 46.8545 15.8882C46.7584 16.1171 46.6176 16.3245 46.4404 16.4984C46.2632 16.6722 46.0531 16.8089 45.8224 16.9004C45.5917 16.992 45.3451 17.0366 45.097 17.0317ZM43.6325 11.6935C43.6325 11.4658 43.5421 11.2474 43.3812 11.0864C43.2202 10.9254 43.0019 10.8349 42.7743 10.8349H31.9537C31.7261 10.8349 31.5078 10.9254 31.3468 11.0864C31.1859 11.2474 31.0955 11.4658 31.0955 11.6935C31.0955 11.9212 31.1859 12.1396 31.3468 12.3006C31.5078 12.4616 31.7261 12.5521 31.9537 12.5521H42.7743C43.0019 12.5521 43.2202 12.4616 43.3812 12.3006C43.5421 12.1396 43.6325 11.9212 43.6325 11.6935ZM43.6325 8.5205C43.6325 8.29279 43.5421 8.0744 43.3812 7.91339C43.2202 7.75237 43.0019 7.66191 42.7743 7.66191H31.9537C31.8341 7.64939 31.7132 7.66214 31.5989 7.69935C31.4845 7.73656 31.3793 7.79739 31.2899 7.8779C31.2006 7.95841 31.1292 8.0568 31.0803 8.16669C31.0314 8.27659 31.0061 8.39554 31.0061 8.51583C31.0061 8.63612 31.0314 8.75507 31.0803 8.86496C31.1292 8.97486 31.2006 9.07325 31.2899 9.15376C31.3793 9.23427 31.4845 9.2951 31.5989 9.33231C31.7132 9.36951 31.8341 9.38227 31.9537 9.36975H42.7743C43.0003 9.36976 43.2172 9.28058 43.3779 9.12158C43.5386 8.96258 43.63 8.74658 43.6325 8.5205ZM43.6325 5.33814C43.63 5.11205 43.5386 4.89606 43.3779 4.73706C43.2172 4.57805 43.0003 4.48888 42.7743 4.48889H31.9537C31.8341 4.47637 31.7132 4.48912 31.5989 4.52633C31.4845 4.56354 31.3793 4.62437 31.2899 4.70488C31.2006 4.78538 31.1292 4.88378 31.0803 4.99367C31.0314 5.10357 31.0061 5.22252 31.0061 5.34281C31.0061 5.4631 31.0314 5.58205 31.0803 5.69194C31.1292 5.80184 31.2006 5.90023 31.2899 5.98074C31.3793 6.06125 31.4845 6.12208 31.5989 6.15929C31.7132 6.19649 31.8341 6.20925 31.9537 6.19672H42.7743C42.8878 6.19673 43.0002 6.17422 43.1049 6.13049C43.2096 6.08676 43.3046 6.02268 43.3845 5.94196C43.4643 5.86124 43.5273 5.76549 43.5699 5.66024C43.6124 5.55499 43.6337 5.44234 43.6325 5.32881V5.33814ZM25.7971 16.5277V0.531948L17.4017 3.47166V6.68201H12.3645L16.0398 10.359H17.3924V13.5973L25.7971 16.5277Z" fill="white"/>
</svg>
