<svg width="49" height="48" viewBox="0 0 49 48" fill="none" xmlns="http://www.w3.org/2000/svg">
<path d="M24.1236 6.3192L14.7624 12.6972L6.47217 18.3457V48H25.3003V31.5254C25.3003 30.8782 25.8299 30.3486 26.4771 30.3486H37.0679C37.7151 30.3486 38.2447 30.8782 38.2447 31.5254V48H41.7749V18.3457L33.4847 12.6972L24.1236 6.3192ZM21.77 40.9394C21.77 41.5867 21.2405 42.1162 20.5933 42.1162H11.1792C10.532 42.1162 10.0025 41.5867 10.0025 40.9394V31.5254C10.0025 30.8782 10.532 30.3486 11.1792 30.3486H20.5933C21.2405 30.3486 21.77 30.8782 21.77 31.5254V40.9394ZM21.77 25.6416C21.77 26.2888 21.2405 26.8183 20.5933 26.8183H11.1792C10.532 26.8183 10.0025 26.2888 10.0025 25.6416V18.581C10.0025 17.9338 10.532 17.4043 11.1792 17.4043H20.5933C21.2405 17.4043 21.77 17.9338 21.77 18.581V25.6416ZM38.2447 18.581V25.6416C38.2447 26.2888 37.7151 26.8183 37.0679 26.8183H27.6538C27.0066 26.8183 26.4771 26.2888 26.4771 25.6416V18.581C26.4771 17.9338 27.0066 17.4043 27.6538 17.4043H37.0679C37.7151 17.4043 38.2447 17.9338 38.2447 18.581ZM27.6538 32.7021H35.8912V48H27.6538V32.7021ZM12.356 37.4092H19.4165V39.7627H12.356V37.4092ZM12.356 32.7021H19.4165V35.0557H12.356V32.7021ZM12.356 19.7578H19.4165V24.4648H12.356V19.7578ZM35.8912 24.4648H28.8306V19.7578H35.8912V24.4648ZM48.2471 17.163C48.2471 17.9162 47.7117 18.281 47.4822 18.3986C46.9762 18.6693 46.3878 18.6399 45.9113 18.3163L24.7884 3.92449C24.3883 3.64795 23.8588 3.64795 23.4587 3.92449L2.33587 18.3163C1.85928 18.6399 1.2709 18.6693 0.764893 18.3986C0.535425 18.281 0 17.9162 0 17.163C0 16.7041 0.229468 16.2746 0.623682 16.0098L24.1236 0L47.6234 16.0098C48.0177 16.2746 48.2471 16.7041 48.2471 17.163Z" fill="white"/>
</svg>
