<svg width="63" height="48" viewBox="0 0 63 48" fill="none" xmlns="http://www.w3.org/2000/svg">
<path d="M60.7627 0H2.02085C0.912324 0 0 0.912324 0 2.02085V36.5322C0 37.6505 0.912324 38.553 2.02085 38.553H27.9877V45.2532H19.0607C18.3053 45.2532 17.6873 45.8712 17.6873 46.6266C17.6873 47.382 18.3053 48 19.0607 48H43.7425C44.4979 48 45.1159 47.382 45.1159 46.6266C45.1159 45.8712 44.4979 45.2532 43.7425 45.2532H34.8155V38.553H60.7725C61.9007 38.553 62.7934 37.6407 62.7934 36.5322V2.02085C62.7836 0.912324 61.8811 0 60.7627 0ZM60.2526 35.0117C60.2526 35.5708 59.8112 36.0221 59.2422 36.0221H3.54139C2.98222 36.0221 2.53096 35.5708 2.53096 35.0117V3.54139C2.53096 2.98222 2.98222 2.53096 3.54139 2.53096H59.2324C59.8013 2.53096 60.2428 2.98222 60.2428 3.54139V35.0117H60.2526Z" fill="white"/>
<path d="M4.56134 34.0002H58.2315V4.55078H4.56134V34.0002ZM30.3124 30.7139C28.9194 30.7139 27.7913 29.5857 27.7913 28.1927C27.7913 26.8095 28.9194 25.6814 30.3124 25.6814C31.6956 25.6814 32.8238 26.8095 32.8238 28.1927C32.8238 29.5857 31.6956 30.7139 30.3124 30.7139ZM37.3167 30.7139C35.9335 30.7139 34.8054 29.5857 34.8054 28.1927C34.8054 26.8095 35.9335 25.6814 37.3167 25.6814C38.6999 25.6814 39.8379 26.8095 39.8379 28.1927C39.8379 29.5857 38.6999 30.7139 37.3167 30.7139ZM20.5515 7.85673L23.0433 7.84692C23.8379 7.8273 24.5344 8.34722 24.7796 9.09278L25.4957 11.3393H41.4369C42.0255 11.3393 42.5748 11.6336 42.9084 12.1044C43.2517 12.5851 43.3302 13.1933 43.134 13.7525L40.8875 20.1093C40.6227 20.8255 39.936 21.316 39.1806 21.316H28.7036L29.0862 22.5226H39.4062C39.9654 22.5226 40.4166 22.9738 40.4166 23.533C40.4166 24.102 39.9654 24.5434 39.4062 24.5434H28.9292C28.1542 24.5434 27.4577 24.0431 27.2223 23.2976L22.9059 9.85795L20.5712 9.86776C20.0316 9.89719 19.5607 9.41651 19.5607 8.85734C19.5411 8.30798 20.0022 7.85673 20.5515 7.85673Z" fill="white"/>
<path d="M39.0139 19.2963L41.1231 13.3613H26.1433L28.0562 19.2963H39.0139Z" fill="white"/>
<path d="M30.3126 27.2031C29.7633 27.2031 29.312 27.6446 29.312 28.1841C29.312 28.7335 29.7633 29.1847 30.3126 29.1847C30.8522 29.1847 31.3034 28.7335 31.3034 28.1841C31.2936 27.6544 30.8424 27.2031 30.3126 27.2031ZM37.3169 27.2031C36.7872 27.2031 36.3359 27.6544 36.3359 28.1841C36.3359 28.7335 36.7774 29.1847 37.3169 29.1847C37.8663 29.1847 38.3175 28.7335 38.3175 28.1841C38.3077 27.6446 37.8663 27.2031 37.3169 27.2031Z" fill="white"/>
</svg>
