<svg width="49" height="48" viewBox="0 0 49 48" fill="none" xmlns="http://www.w3.org/2000/svg">
<path d="M18.1402 0.130226C17.2451 0.415012 16.6142 0.892982 15.9431 1.81904C15.1599 2.90741 14.2443 3.46703 13.2575 3.48694C12.5963 3.4974 12.1079 3.21261 11.7928 2.64254C10.9991 1.2186 9.09724 2.18498 9.83958 3.63929C10.8772 5.67363 13.2879 6.26362 15.5866 5.04332C16.197 4.72816 17.2346 3.77173 18.0178 2.80534C18.445 2.28655 18.9842 2.0625 19.5438 2.17453C20.0322 2.2761 20.2861 2.47973 20.673 3.06972C21.1106 3.74086 21.9241 4.52452 22.2801 4.60568C23.2873 4.83968 23.9684 3.50735 23.2361 2.7441C23.0937 2.60171 22.7377 2.14416 22.4325 1.73689C21.8017 0.882526 21.1305 0.353279 20.3877 0.139687C19.7783 -0.0430336 18.6999 -0.0430374 18.1402 0.130226ZM35.9415 0.130226C34.9547 0.445385 34.7003 0.658978 33.3475 2.23577C32.1979 3.57855 30.5708 3.92458 29.8181 2.97811C29.1364 2.12374 28.9024 1.92011 28.5669 1.92011C27.9161 1.92011 27.4481 2.39808 27.4481 3.0493C27.4481 3.78168 28.3737 4.90043 29.3605 5.35848C29.8693 5.60244 30.0625 5.63331 30.9577 5.62285C31.7409 5.62285 32.1173 5.57206 32.5853 5.3993C33.7448 4.97212 34.7924 4.09734 35.7284 2.78493C35.942 2.47973 36.6236 2.12374 37.0099 2.12374C37.4675 2.12374 38.0884 2.48969 38.3323 2.89695C38.77 3.60892 39.5631 4.45333 39.9091 4.56535C40.7127 4.82972 41.3634 4.22978 41.3027 3.28381C41.2922 3.17178 41.0687 2.8158 40.8043 2.50064C40.5295 2.18548 40.1735 1.72743 40.0107 1.49342C39.5934 0.913391 38.8511 0.364231 38.1899 0.161095C37.5586 -0.0430374 36.521 -0.0529938 35.9415 0.130226ZM7.18537 8.28801C7.03302 8.36916 6.85976 8.52201 6.79902 8.63403C6.73778 8.74606 6.69745 9.60042 6.69745 10.6584V12.4996H11.1221H15.5468V10.8207C15.5468 9.00994 15.4656 8.59321 15.028 8.28801C14.8144 8.14561 14.3569 8.1252 11.1221 8.1252C8.09052 8.13516 7.40892 8.15557 7.18537 8.28801ZM20.3274 8.41994L20.0222 8.71519V10.6071V12.4991H24.3961H28.77V10.6276C28.77 8.78639 28.7601 8.74556 28.526 8.46077L28.2821 8.17598L24.4474 8.14561L20.6227 8.11525L20.3274 8.41994ZM33.7643 8.28801C33.3266 8.59321 33.2455 9.01043 33.2455 10.8207V12.4991H37.6701H42.0948V10.6579C42.0948 9.59993 42.054 8.74556 41.9932 8.62358C41.7388 8.14561 41.5252 8.1252 37.6497 8.1252C34.4459 8.1252 33.9783 8.14561 33.7643 8.28801ZM6.67654 19.1821L6.64617 23.6377L3.63548 23.6681L0.614339 23.6885L0.349964 23.9528C0.207072 24.1052 0.064678 24.3596 0.0343072 24.5428C0.00393651 24.7156 -0.00651899 29.9339 0.00393651 36.129L0.0343072 47.41L0.369879 47.7048L0.695493 48H24.3961H48.0968L48.4224 47.7048L48.7579 47.41L48.7883 36.129C48.7988 29.9344 48.7883 24.7161 48.7579 24.5428C48.7276 24.3596 48.5852 24.1057 48.4428 23.9528L48.1784 23.6885L45.1573 23.6681L42.1466 23.6377L42.1162 19.1821L42.0958 14.7371L37.6915 14.7575L33.2972 14.7878L33.2669 19.2434L33.2465 23.6885L31.0289 23.6681L28.8218 23.6377L28.7914 19.1821L28.771 14.7371H24.3961H20.0222L20.0018 19.1821L19.9715 23.6377L17.7643 23.6681L15.5468 23.6885L15.5264 19.2434L15.496 14.7878L11.1017 14.7575L6.69745 14.7371L6.67654 19.1821ZM45.1368 30.6155C45.5745 31.0526 45.5844 31.6735 45.1573 32.1514L44.8625 32.487H24.3961H3.93023L3.63548 32.1514C3.40148 31.8871 3.34074 31.7243 3.34074 31.3578C3.34074 30.961 3.39152 30.839 3.65589 30.5951L3.97105 30.3003H24.3961H44.8212L45.1368 30.6155ZM44.8416 34.8266C45.2588 35.0402 45.452 35.3658 45.452 35.8741C45.452 36.2301 45.3913 36.3725 45.1573 36.6164L44.8625 36.9117H24.3961H3.93023L3.63548 36.6164C3.09628 36.0673 3.2795 35.1313 3.99147 34.8161C4.25584 34.7041 7.70417 34.6837 24.427 34.6737C42.0853 34.6742 44.5872 34.6946 44.8416 34.8266ZM45.106 39.4957C45.3908 39.7805 45.452 39.9229 45.452 40.2689C45.452 40.6149 45.3913 40.7573 45.106 41.0421L44.76 41.3881H24.4464C5.67928 41.3881 4.11245 41.3782 3.84808 41.2154C3.50205 41.0117 3.33924 40.6866 3.33924 40.2087C3.33924 39.9239 3.4204 39.7611 3.68527 39.4967L4.0313 39.1507H24.3961H44.7605L45.106 39.4957Z" fill="white"/>
</svg>
