<svg width="61" height="48" viewBox="0 0 61 48" fill="none" xmlns="http://www.w3.org/2000/svg">
<path d="M59.478 4.17383H57.3911V39.6519C57.3911 40.4822 57.0613 41.2784 56.4742 41.8655C55.8871 42.4526 55.0909 42.7824 54.2606 42.7824H41.4468C38.6934 42.7845 35.9783 43.4275 33.5164 44.6606L31.659 45.5789C31.2264 45.8005 30.7468 45.915 30.2607 45.9128C29.5186 45.8687 28.8001 45.6352 28.1738 45.2345C27.8921 45.078 27.5581 44.9006 27.1303 44.7024H27.026C24.5641 43.4693 21.849 42.8262 19.0956 42.8241H6.26084C5.4306 42.8241 4.63437 42.4943 4.0473 41.9072C3.46023 41.3202 3.13042 40.5239 3.13042 39.6937V4.17383H1.04347C0.766727 4.17383 0.501316 4.28377 0.305626 4.47945C0.109937 4.67514 0 4.94056 0 5.2173V46.9563C0 47.233 0.109937 47.4984 0.305626 47.6941C0.501316 47.8898 0.766727 47.9997 1.04347 47.9997H59.478C59.7548 47.9997 60.0202 47.8898 60.2159 47.6941C60.4116 47.4984 60.5215 47.233 60.5215 46.9563V5.2173C60.5215 4.94056 60.4116 4.67514 60.2159 4.47945C60.0202 4.28377 59.7548 4.17383 59.478 4.17383Z" fill="white"/>
<path d="M28.8731 2.31651C26.0582 0.905399 22.973 0.115409 19.8262 0V23.9999C19.8253 24.1878 19.7736 24.372 19.6766 24.5329C19.5796 24.6939 19.441 24.8257 19.2754 24.9144C19.1097 25.0031 18.9232 25.0454 18.7354 25.0369C18.5477 25.0284 18.3658 24.9693 18.2088 24.866L15.6523 23.1651L13.0958 24.866C12.9389 24.9693 12.7569 25.0284 12.5692 25.0369C12.3815 25.0454 12.195 25.0031 12.0293 24.9144C11.8637 24.8257 11.725 24.6939 11.6281 24.5329C11.5311 24.372 11.4794 24.1878 11.4784 23.9999V0H6.26106C5.98432 0 5.71891 0.109937 5.52322 0.305627C5.32753 0.501316 5.21759 0.766728 5.21759 1.04347V39.652C5.21759 39.9288 5.32753 40.1942 5.52322 40.3899C5.71891 40.5856 5.98432 40.6955 6.26106 40.6955H19.0749C22.1534 40.6931 25.1901 41.4076 27.9445 42.7824C28.4871 43.012 28.8836 43.2311 29.2175 43.4085V2.48347L28.8731 2.31651ZM54.2609 0H41.447C38.0459 0.00576372 34.6924 0.798624 31.6488 2.31651L31.3044 2.48347V43.4294L32.5775 42.7824C35.3319 41.4076 38.3686 40.6931 41.447 40.6955H54.2609C54.5376 40.6955 54.803 40.5856 54.9987 40.3899C55.1944 40.1942 55.3043 39.9288 55.3043 39.652V1.04347C55.3043 0.766728 55.1944 0.501316 54.9987 0.305627C54.803 0.109937 54.5376 0 54.2609 0ZM36.5218 18.7825H45.0053V20.8695H36.5218V18.7825ZM36.5218 27.1303H45.0053V29.2173H36.5218V27.1303ZM49.0435 33.3912H36.5218V31.3042H49.0435V33.3912ZM49.0435 25.0434H36.5218V22.9564H49.0435V25.0434ZM49.0435 16.6956H36.5218V14.6086H49.0435V16.6956Z" fill="white"/>
</svg>
