<svg width="45" height="50" viewBox="0 0 45 50" fill="none" xmlns="http://www.w3.org/2000/svg">
<path fill-rule="evenodd" clip-rule="evenodd" d="M6.25793 0.00118931L0.857693 0.311386C0.739834 0.314536 0.623805 0.341305 0.516478 0.390106C0.409151 0.438908 0.312708 0.50875 0.23286 0.595497C0.153012 0.682244 0.0913829 0.784132 0.0516225 0.895126C0.0118621 1.00612 -0.00522119 1.12397 0.00138412 1.24168C0.00798943 1.3594 0.038149 1.47459 0.090077 1.58044C0.142005 1.68629 0.214646 1.78064 0.303697 1.85791C0.392748 1.93518 0.496399 1.9938 0.608512 2.03029C0.720625 2.06678 0.83892 2.0804 0.956392 2.07034L5.64106 1.80068C7.16266 7.58338 8.72367 13.3556 10.324 19.117L8.07857 23.0016C8.02074 23.103 7.98363 23.2149 7.96941 23.3308C7.95519 23.4466 7.96414 23.5642 7.99574 23.6766L9.99615 30.9909C10.0023 31.1195 10.0366 31.2453 10.0966 31.3592L12.3032 39.4243L12.4407 39.9372C12.0424 40.7673 11.7939 41.6821 11.7357 42.6462C11.4943 46.5483 14.4235 49.86 18.278 49.9957C22.1326 50.1314 25.4566 47.0418 25.6981 43.1396C25.7215 42.6983 25.7038 42.2558 25.6452 41.8178L42.7289 37.1419L43.6595 36.8917C43.8499 36.8452 44.0165 36.7299 44.1269 36.568C44.2374 36.4061 44.2839 36.209 44.2577 36.0148C44.2314 35.8205 44.1341 35.6429 43.9846 35.5161C43.8351 35.3894 43.6439 35.3225 43.448 35.3283C43.3771 35.3289 43.3065 35.339 43.2383 35.3583L42.3095 35.6139L25.2733 40.2756C24.6811 38.6541 23.5108 37.3252 21.9951 36.5427L38.4849 32.0307L33.8337 15.0316L33.1252 15.2325C33.0352 15.2713 32.9403 15.2974 32.8432 15.3101H32.8714L28.7401 16.4398L31.2869 25.7651L31.294 25.7898C31.5724 26.7133 30.3739 27.3478 29.7659 26.5988L27.4218 24.7059L26.1546 27.7444C25.8285 28.6873 24.4344 28.4494 24.4397 27.4518L21.937 18.3028L17.7176 19.4554H17.6823L17.6206 19.4695L16.8328 19.6863L21.3694 36.2783C20.664 35.9883 19.9141 35.8214 19.1522 35.7848C18.3747 35.7684 17.5999 35.884 16.861 36.1267C14.1204 26.211 9.64366 10.2888 7.1568 0.660357C7.10589 0.463726 6.98861 0.290719 6.82482 0.170604C6.66103 0.0504896 6.46077 -0.0093569 6.25793 0.00118931ZM27.9488 0.200349L24.5472 1.12389L26.5599 8.48577C26.6514 8.61007 26.7086 8.7562 26.7259 8.90956C26.7431 9.06292 26.7198 9.21811 26.6582 9.35962C26.5967 9.50114 26.499 9.624 26.3751 9.71592C26.2511 9.80784 26.1052 9.8656 25.9519 9.88341C25.7855 9.91357 25.6139 9.89521 25.4576 9.83052C25.3014 9.76583 25.167 9.65754 25.0706 9.51858L22.723 7.70851L21.5175 10.7276C21.5122 10.7365 21.5087 10.7382 21.5034 10.7558C21.4311 10.9233 21.3086 11.0643 21.1528 11.1592C20.997 11.2541 20.8156 11.2983 20.6336 11.2857C20.4516 11.2732 20.278 11.2044 20.1367 11.089C19.9954 10.9736 19.8935 10.8171 19.8449 10.6413L17.7475 2.97802L14.346 3.90861L18.0683 17.5061L27.4006 14.9541H27.4429L31.6694 13.7979L27.9488 0.200349ZM22.8464 1.59447L19.4483 2.52506L20.8495 7.65035L21.5192 5.976C21.5702 5.84993 21.6496 5.73734 21.7513 5.647C21.8529 5.55667 21.9741 5.49103 22.1052 5.45521C22.2364 5.41938 22.3741 5.41434 22.5076 5.44048C22.641 5.46661 22.7666 5.52322 22.8746 5.60588L24.2317 6.65103L22.8464 1.59447ZM27.0393 16.9069L23.6377 17.8357L25.5148 24.7006L26.2445 22.9487C26.3082 22.7893 26.4177 22.6523 26.5591 22.5551C26.7006 22.4578 26.8677 22.4047 27.0393 22.4023C27.2469 22.3991 27.4491 22.4689 27.6104 22.5997L28.8741 23.6184L27.0393 16.9069ZM10.9814 21.5087C11.6934 24.0872 12.275 26.1846 12.9465 28.601L11.4308 29.558L9.7917 23.5673L10.9814 21.5087ZM13.4347 30.3758C14.0287 32.5137 14.7319 35.0428 15.229 36.8441C14.6826 37.1807 14.1997 37.6019 13.759 38.0708L11.9173 31.3381L13.4347 30.3758ZM19.043 37.5473C21.9246 37.6495 24.1171 40.1064 23.9338 43.078C23.7523 46.0513 21.2707 48.3407 18.3891 48.2385C15.5074 48.1363 13.3131 45.6829 13.4964 42.7096C13.6797 39.7381 16.1613 37.4468 19.043 37.5473ZM18.8843 39.3715C17.9513 39.3302 17.0398 39.6594 16.3485 40.2874C15.6572 40.9153 15.2421 41.791 15.1937 42.7237C15.1515 43.6564 15.4799 44.5679 16.1073 45.2593C16.7346 45.9507 17.61 46.366 18.5424 46.4143C19.4758 46.4556 20.3877 46.1265 21.0796 45.4987C21.7714 44.8708 22.1873 43.9951 22.2366 43.0621C22.2778 42.1291 21.9486 41.2176 21.3207 40.5263C20.6927 39.8349 19.817 39.4199 18.8843 39.3715Z" fill="white"/>
</svg>
