<svg width="60" height="48" viewBox="0 0 60 48" fill="none" xmlns="http://www.w3.org/2000/svg">
<path d="M58.6265 10.8406H12.0839C12.051 10.8406 12.0208 10.8493 11.9886 10.852L11.6975 9.45756C11.1863 7.02795 9.93587 4.81603 8.11776 3.12521C6.29966 1.4344 4.00294 0.347527 1.54268 0.0136901C1.35123 -0.0137747 1.15613 0.000189788 0.970545 0.0546384C0.784964 0.109087 0.613238 0.20275 0.46698 0.329295C0.320723 0.45584 0.203343 0.612315 0.122779 0.78814C0.0422146 0.963965 0.000344676 1.15504 0 1.34844V1.71064C0.00362439 2.04105 0.12752 2.35883 0.348503 2.60451C0.569486 2.85018 0.872415 3.00692 1.20061 3.04539C3.02637 3.29348 4.73163 4.09717 6.08507 5.34742C7.43852 6.59768 8.37463 8.23399 8.76644 10.0344L14.5615 37.8697C13.6447 38.6076 12.9796 39.6121 12.6582 40.7444C12.3368 41.8766 12.375 43.0807 12.7675 44.1904C13.1599 45.3 13.8873 46.2603 14.849 46.9387C15.8108 47.6172 16.9596 47.9801 18.1365 47.9776C19.384 47.9788 20.597 47.5679 21.5868 46.8085C22.5766 46.0492 23.2878 44.9841 23.6097 43.7788H40.3511C40.7098 45.1131 41.5408 46.2717 42.6896 47.0393C43.8385 47.8069 45.227 48.1311 46.5969 47.9517C47.9669 47.7724 49.2251 47.1016 50.1376 46.0642C51.0502 45.0268 51.5549 43.6933 51.558 42.3116C51.5611 40.9299 51.0624 39.5942 50.1545 38.5526C49.2467 37.5111 47.9915 36.8347 46.6223 36.6492C45.2532 36.4637 43.8632 36.7817 42.711 37.5441C41.5587 38.3065 40.7225 39.4614 40.3578 40.7941H23.5963C23.2452 39.4615 22.4179 38.3038 21.2709 37.5399C20.124 36.7761 18.7368 36.4591 17.3719 36.6489L16.7126 33.4885H53.3793C53.6758 33.4884 53.9639 33.39 54.1986 33.2089C54.4333 33.0277 54.6014 32.7739 54.6765 32.4871L55.5559 29.1334C55.6074 28.9354 55.613 28.7283 55.5722 28.5278C55.5314 28.3273 55.4452 28.1388 55.3204 27.9767C55.1955 27.8146 55.0352 27.6832 54.8518 27.5926C54.6684 27.502 54.4666 27.4546 54.262 27.4539H15.5609C15.524 27.4539 15.4898 27.4633 15.4536 27.4667L14.9472 25.0406H55.5934C55.8899 25.0405 56.178 24.9422 56.4127 24.761C56.6474 24.5799 56.8155 24.326 56.8906 24.0392L57.7116 20.9116C57.7636 20.7132 57.7694 20.5054 57.7285 20.3044C57.6877 20.1033 57.6012 19.9143 57.4759 19.7519C57.3505 19.5895 57.1896 19.458 57.0055 19.3675C56.8213 19.2771 56.6189 19.2301 56.4137 19.2301H13.864C13.8211 19.2301 13.7815 19.2402 13.7399 19.2442L13.2456 16.8752H57.7498C58.0464 16.8752 58.3347 16.777 58.5695 16.5958C58.8043 16.4146 58.9725 16.1607 59.0477 15.8738L59.927 12.5201C59.9787 12.3216 59.9842 12.1138 59.943 11.9128C59.9018 11.7118 59.8151 11.523 59.6895 11.3607C59.5639 11.1985 59.4027 11.0673 59.2184 10.9771C59.0341 10.8869 58.8316 10.8402 58.6265 10.8406ZM45.8175 40.0495C46.2264 40.0472 46.6283 40.1546 46.9815 40.3606C47.3347 40.5665 47.6261 40.8634 47.8255 41.2203C48.0249 41.5773 48.1248 41.9812 48.1149 42.3899C48.1051 42.7986 47.9857 43.1972 47.7694 43.544C47.686 43.7034 47.5693 43.8429 47.4273 43.9532C46.9595 44.355 46.3548 44.5611 45.739 44.5287C45.1232 44.4962 44.5435 44.2276 44.1206 43.7788C43.7494 43.3704 43.5437 42.8383 43.5437 42.2864C43.5437 41.7345 43.7494 41.2024 44.1206 40.7941C44.3362 40.5588 44.5984 40.3711 44.8906 40.2429C45.1828 40.1147 45.4985 40.0489 45.8175 40.0495ZM18.0829 40.0495H18.1365C18.4319 40.0465 18.7249 40.1023 18.9984 40.2137C19.272 40.3252 19.5206 40.49 19.7297 40.6985C19.9389 40.9071 20.1044 41.1552 20.2167 41.4284C20.3289 41.7016 20.3856 41.9944 20.3835 42.2898C20.3835 44.0605 18.3914 45.2745 16.5737 44.0001C16.4186 43.891 16.292 43.746 16.2048 43.5776C16.1401 43.4644 16.0862 43.3454 16.0439 43.2221V43.2154C15.8941 42.8739 15.8313 42.5006 15.8609 42.1289C15.8905 41.7572 16.0117 41.3986 16.2136 41.0852C16.4155 40.7717 16.6919 40.513 17.018 40.3323C17.3442 40.1516 17.71 40.0545 18.0829 40.0495Z" fill="white"/>
</svg>
