<svg width="62" height="38" viewBox="0 0 62 38" fill="none" xmlns="http://www.w3.org/2000/svg">
<path d="M21.7 6.975C21.7 10.8286 18.5786 13.95 14.725 13.95C10.8714 13.95 7.75 10.8286 7.75 6.975C7.75 3.12139 10.8714 0 14.725 0C18.5786 0 21.7 3.12139 21.7 6.975ZM0 25.3166C0 19.8194 9.81057 17.05 14.725 17.05C19.6394 17.05 29.45 19.8194 29.45 25.3166V37.2H0V25.3166ZM54.25 6.975C54.25 10.8286 51.1288 13.95 47.275 13.95C43.4214 13.95 40.3 10.8286 40.3 6.975C40.3 3.12139 43.4214 0 47.275 0C51.1288 0 54.25 3.12139 54.25 6.975ZM35.65 4.65C35.65 7.21913 33.5691 9.3 31 9.3C28.4309 9.3 26.35 7.21913 26.35 4.65C26.35 2.08088 28.4309 0 31 0C33.5691 0 35.65 2.08088 35.65 4.65ZM32.55 25.3166C32.55 19.8194 42.3606 17.05 47.275 17.05C52.1894 17.05 62 19.8194 62 25.3166V37.2H32.55V25.3166Z" fill="white"/>
<path fill-rule="evenodd" clip-rule="evenodd" d="M38.3637 15.7867C37.95 15.9388 37.5419 16.1003 37.1419 16.2711C35.3267 17.0469 33.4936 18.0948 32.0695 19.4966C31.6882 19.8722 31.3263 20.2839 31 20.7312C30.6737 20.2839 30.3118 19.8722 29.9303 19.4966C28.5064 18.0948 26.6732 17.0469 24.858 16.2711C24.4581 16.1003 24.05 15.9388 23.6361 15.7867C25.9961 14.5639 29.0312 13.95 31 13.95C32.9687 13.95 36.0037 14.5639 38.3637 15.7867Z" fill="white"/>
</svg>
