<svg width="46" height="48" viewBox="0 0 46 48" fill="none" xmlns="http://www.w3.org/2000/svg">
<path d="M29.3699 18.1141L27.6701 19.7832C28.3485 21.0142 28.5392 22.4528 28.2048 23.8163C27.8704 25.1799 27.0351 26.3701 25.8628 27.1532C24.6905 27.9363 23.266 28.2558 21.8687 28.049C20.4715 27.8421 19.2026 27.1239 18.311 26.0353C17.4194 24.9467 16.9696 23.5662 17.0499 22.1651C17.1302 20.7639 17.7347 19.4431 18.7448 18.462C19.755 17.4809 21.0977 16.9103 22.5096 16.8623C23.9214 16.8143 25.3003 17.2923 26.3756 18.2025L27.9271 16.6905C28.1122 16.5077 28.3627 16.405 28.6238 16.405C28.8848 16.405 29.1353 16.5077 29.3204 16.6905C29.4209 16.7789 29.5022 16.8866 29.5593 17.0072C29.6165 17.1277 29.6484 17.2586 29.653 17.3918C29.6576 17.525 29.6349 17.6577 29.5862 17.7819C29.5375 17.9061 29.4639 18.0191 29.3699 18.1141ZM45.2308 1.96359V42.9732C45.2308 43.494 45.0225 43.9934 44.6519 44.3617C44.2812 44.7299 43.7785 44.9368 43.2543 44.9368H40.8628V47.0182C40.8628 47.2786 40.7587 47.5283 40.5734 47.7124C40.3881 47.8966 40.1367 48 39.8746 48H34.1133C33.8512 48 33.5999 47.8966 33.4145 47.7124C33.2292 47.5283 33.1251 47.2786 33.1251 47.0182V44.9368H12.1057V47.0182C12.1057 47.2786 12.0016 47.5283 11.8162 47.7124C11.6309 47.8966 11.3796 48 11.1175 48H5.35615C5.09405 48 4.8427 47.8966 4.65737 47.7124C4.47204 47.5283 4.36793 47.2786 4.36793 47.0182V44.9368H1.97644C1.45225 44.9368 0.949539 44.7299 0.578885 44.3617C0.208231 43.9934 0 43.494 0 42.9732V1.96359C0 1.44281 0.208231 0.943368 0.578885 0.575123C0.949539 0.206878 1.45225 0 1.97644 0L43.2543 0C43.7785 0 44.2812 0.206878 44.6519 0.575123C45.0225 0.943368 45.2308 1.44281 45.2308 1.96359ZM42.2661 4.73226C42.2661 4.21148 42.0579 3.71203 41.6872 3.34379C41.3166 2.97554 40.8139 2.76866 40.2897 2.76866H4.94109C4.41691 2.76866 3.91419 2.97554 3.54354 3.34379C3.17289 3.71203 2.96466 4.21148 2.96466 4.73226V8.33545H2.5496C2.28751 8.33545 2.03615 8.43889 1.85083 8.62301C1.6655 8.80713 1.56139 9.05685 1.56139 9.31724V15.4142C1.56139 15.6746 1.6655 15.9243 1.85083 16.1084C2.03615 16.2926 2.28751 16.396 2.5496 16.396H2.96466V28.8255H2.5496C2.28751 28.8255 2.03615 28.929 1.85083 29.1131C1.6655 29.2972 1.56139 29.5469 1.56139 29.8073V35.8945C1.56139 36.1549 1.6655 36.4046 1.85083 36.5887C2.03615 36.7728 2.28751 36.8763 2.5496 36.8763H2.96466V40.2536C2.96466 40.7744 3.17289 41.2739 3.54354 41.6421C3.91419 42.0103 4.41691 42.2172 4.94109 42.2172H40.3193C40.8435 42.2172 41.3462 42.0103 41.7169 41.6421C42.0875 41.2739 42.2958 40.7744 42.2958 40.2536L42.2661 4.73226ZM40.2897 40.1751L4.94109 40.2536V36.8763H5.0498C5.31189 36.8763 5.56325 36.7728 5.74857 36.5887C5.9339 36.4046 6.03802 36.1549 6.03802 35.8945V29.8073C6.03802 29.5469 5.9339 29.2972 5.74857 29.1131C5.56325 28.929 5.31189 28.8255 5.0498 28.8255H4.94109V16.396H5.0498C5.31189 16.396 5.56325 16.2926 5.74857 16.1084C5.9339 15.9243 6.03802 15.6746 6.03802 15.4142V9.31724C6.03802 9.05685 5.9339 8.80713 5.74857 8.62301C5.56325 8.43889 5.31189 8.33545 5.0498 8.33545H4.94109V4.75189H40.349L40.2897 40.1751ZM32.1665 22.5028C32.1743 20.6396 31.625 18.8161 30.5882 17.2636C29.5514 15.711 28.0738 14.4994 26.3429 13.7824C24.612 13.0653 22.7057 12.8752 20.8658 13.236C19.026 13.5969 17.3355 14.4925 16.0087 15.8093C14.6819 17.1261 13.7787 18.8047 13.4135 20.6322C13.0484 22.4597 13.2378 24.3538 13.9577 26.0742C14.6776 27.7946 15.8956 29.2639 17.4572 30.2955C19.0188 31.3272 20.8537 31.8749 22.729 31.8691C23.9731 31.8704 25.2052 31.6281 26.355 31.156C27.5047 30.6839 28.5495 29.9913 29.4297 29.1177C30.3098 28.2442 31.0081 27.2069 31.4845 26.0651C31.9608 24.9233 32.206 23.6995 32.206 22.4635L32.1665 22.5028Z" fill="white"/>
</svg>
