<svg width="51" height="48" viewBox="0 0 51 48" fill="none" xmlns="http://www.w3.org/2000/svg">
<path d="M50.2233 22.1911V38.1878C50.2233 39.1821 49.8283 40.1357 49.1252 40.8388C48.4221 41.5418 47.4685 41.9368 46.4742 41.9368H45.3424V48L36.6216 41.9368H22.7673C21.7729 41.9368 20.8194 41.5418 20.1163 40.8388C19.4132 40.1357 19.0182 39.1821 19.0182 38.1878V32.5693H34.5096C36.5644 32.5666 38.5342 31.7491 39.9872 30.2962C41.4402 28.8432 42.2576 26.8733 42.2603 24.8185V18.4421H46.4742C46.9666 18.4421 47.454 18.5391 47.9089 18.7275C48.3638 18.9159 48.7771 19.192 49.1252 19.5402C49.4733 19.8883 49.7495 20.3016 49.9379 20.7565C50.1263 21.2113 50.2233 21.6988 50.2233 22.1911ZM34.5096 29.5377H17.0477L6.08349 37.1065L6.14411 29.5377H4.70915C4.08772 29.5364 3.47266 29.4123 2.89929 29.1727C2.32591 28.933 1.80553 28.5825 1.36798 28.1412C0.930443 27.6999 0.584364 27.1765 0.349625 26.6011C0.114885 26.0257 -0.00389605 25.4096 9.74521e-05 24.7882V4.71916C9.45866e-05 3.46931 0.495917 2.2705 1.37875 1.38577C2.26158 0.501049 3.45931 0.00267634 4.70915 0H34.5096C35.7603 0.00266976 36.9591 0.500721 37.8436 1.38516C38.728 2.26959 39.2261 3.46838 39.2287 4.71916V24.7882C39.2314 25.4101 39.1114 26.0264 38.8755 26.6019C38.6397 27.1773 38.2927 27.7006 37.8543 28.1418C37.416 28.583 36.8949 28.9333 36.321 29.1729C35.747 29.4124 35.1315 29.5364 34.5096 29.5377ZM13.9757 14.2989C13.9657 13.8355 13.8192 13.3854 13.5546 13.0049C13.2899 12.6244 12.9187 12.3305 12.4877 12.16C12.0567 11.9895 11.585 11.95 11.1316 12.0465C10.6783 12.143 10.2635 12.3711 9.93923 12.7023C9.61498 13.0335 9.39569 13.4531 9.30886 13.9084C9.22203 14.3637 9.27152 14.8345 9.45111 15.2618C9.63071 15.6891 9.93243 16.0539 10.3185 16.3104C10.7045 16.567 11.1576 16.7039 11.6212 16.704C11.9346 16.7041 12.245 16.6415 12.534 16.5201C12.823 16.3986 13.0849 16.2206 13.3042 15.9966C13.5235 15.7726 13.6959 15.507 13.8112 15.2155C13.9265 14.924 13.9824 14.6124 13.9757 14.2989ZM21.969 14.2989C21.971 13.8304 21.8337 13.3718 21.5747 12.9814C21.3156 12.591 20.9464 12.2864 20.5139 12.1062C20.0814 11.9259 19.6051 11.8783 19.1455 11.9692C18.6859 12.0601 18.2636 12.2855 17.9323 12.6168C17.601 12.9481 17.3756 13.3704 17.2846 13.83C17.1937 14.2897 17.2414 14.7659 17.4216 15.1984C17.6018 15.6309 17.9065 16.0001 18.2969 16.2592C18.6873 16.5182 19.1459 16.6555 19.6144 16.6535C20.2389 16.6535 20.8378 16.4054 21.2793 15.9638C21.7209 15.5223 21.969 14.9234 21.969 14.2989ZM29.9622 14.5516C29.9622 14.0839 29.8235 13.6267 29.5637 13.2379C29.3039 12.849 28.9346 12.5459 28.5025 12.3669C28.0704 12.188 27.5949 12.1411 27.1363 12.2324C26.6776 12.3236 26.2562 12.5488 25.9255 12.8795C25.5948 13.2102 25.3696 13.6316 25.2784 14.0903C25.1871 14.549 25.234 15.0244 25.4129 15.4565C25.5919 15.8886 25.895 16.2579 26.2839 16.5177C26.6727 16.7775 27.1299 16.9162 27.5976 16.9162C28.2247 16.9162 28.8262 16.6671 29.2696 16.2236C29.7131 15.7802 29.9622 15.1787 29.9622 14.5516Z" fill="white"/>
</svg>
