<svg width="55" height="50" viewBox="0 0 55 50" fill="none" xmlns="http://www.w3.org/2000/svg">
<path d="M49.5566 0H15.6553C12.9641 0 10.7614 2.35165 10.7614 5.19907V26.1972C10.7614 29.0445 12.9641 31.4181 15.6553 31.4181H30.4052C30.5452 31.4136 30.6845 31.4395 30.8134 31.4942C30.9424 31.5488 31.058 31.6307 31.1522 31.7344L40.3527 42.3042L42.5734 32.1704C42.6229 31.9526 42.7462 31.7588 42.9224 31.6216C43.0986 31.4845 43.3168 31.4126 43.54 31.4181H49.5566C52.248 31.4181 54.425 29.0445 54.425 26.1972V5.19907C54.425 2.35165 52.248 0 49.5566 0ZM42.3031 17.542C42.304 17.8068 42.2007 18.0613 42.0156 18.2507C41.8304 18.44 41.5783 18.5489 41.3136 18.554H36.2421V23.603C36.243 23.8678 36.1397 24.1223 35.9546 24.3116C35.7695 24.5009 35.5173 24.6099 35.2526 24.6149H30.3049C30.0401 24.6099 29.788 24.5009 29.6029 24.3116C29.4177 24.1223 29.3145 23.8678 29.3153 23.603V18.554H24.2439C23.9792 18.5489 23.727 18.44 23.5419 18.2507C23.3568 18.0613 23.2535 17.8068 23.2544 17.542V12.5943C23.2548 12.4655 23.2809 12.3381 23.3311 12.2195C23.3812 12.1009 23.4545 11.9935 23.5466 11.9035C23.6387 11.8135 23.7478 11.7427 23.8675 11.6953C23.9872 11.6478 24.1152 11.6247 24.2439 11.6272H29.3153V6.53335C29.3158 6.40457 29.3419 6.27718 29.392 6.15857C29.4422 6.03997 29.5155 5.93254 29.6075 5.84253C29.6996 5.75252 29.8087 5.68173 29.9284 5.63429C30.0482 5.58685 30.1761 5.5637 30.3049 5.56619H35.2526C35.3814 5.5637 35.5093 5.58685 35.629 5.63429C35.7488 5.68173 35.8578 5.75252 35.9499 5.84253C36.042 5.93254 36.1153 6.03997 36.1655 6.15857C36.2156 6.27718 36.2417 6.40457 36.2421 6.53335V11.6272H41.3136C41.4423 11.6247 41.5703 11.6478 41.69 11.6953C41.8097 11.7427 41.9188 11.8135 42.0109 11.9035C42.103 11.9935 42.1763 12.1009 42.2264 12.2195C42.2766 12.3381 42.3027 12.4655 42.3031 12.5943V17.542Z" fill="white"/>
<path d="M34.263 12.594V7.54492H31.2944V12.594C31.2952 12.8587 31.192 13.1133 31.0068 13.3026C30.8217 13.4919 30.5696 13.6008 30.3048 13.6059H25.2334V16.5745H30.3048C30.4336 16.572 30.5615 16.5952 30.6813 16.6426C30.801 16.6901 30.9101 16.7608 31.0022 16.8509C31.0943 16.9409 31.1675 17.0483 31.2177 17.1669C31.2679 17.2855 31.2939 17.4129 31.2944 17.5417V22.6355H34.263V17.5417C34.2635 17.4129 34.2895 17.2855 34.3397 17.1669C34.3899 17.0483 34.4631 16.9409 34.5552 16.8509C34.6473 16.7608 34.7564 16.6901 34.8761 16.6426C34.9958 16.5952 35.1238 16.572 35.2526 16.5745H40.324V13.6059H35.2526C34.9878 13.6008 34.7357 13.4919 34.5506 13.3026C34.3654 13.1133 34.2621 12.8587 34.263 12.594ZM6.33668 43.787C6.56058 43.783 6.779 43.8564 6.95509 43.9947C7.13119 44.1331 7.25419 44.3279 7.30334 44.5464L8.49846 49.9996L13.6629 44.1065C13.7568 44.0028 13.8719 43.9206 14.0005 43.8655C14.129 43.8104 14.268 43.7836 14.4078 43.787H24.0938C25.1666 43.787 26.0993 42.808 26.0993 41.6572V33.3968H15.6552C11.8727 33.3968 8.78222 30.1354 8.78222 26.1969V25.233H1.93332C0.860534 25.233 0 26.1995 0 27.3503V41.6572C0 42.808 0.860534 43.787 1.93332 43.787H6.33668Z" fill="white"/>
</svg>
