<svg width="50" height="48" viewBox="0 0 50 48" fill="none" xmlns="http://www.w3.org/2000/svg">
<path fill-rule="evenodd" clip-rule="evenodd" d="M4.15036 0.487305H45.6539C46.7547 0.487305 47.8103 0.924573 48.5887 1.70292C49.367 2.48126 49.8043 3.53692 49.8043 4.63766V13.5921H0V4.63766C0 3.53692 0.437269 2.48126 1.21561 1.70292C1.99395 0.924573 3.04961 0.487305 4.15036 0.487305ZM6.3376 10.4238C6.76483 10.7102 7.26756 10.8632 7.78192 10.8632C8.46371 10.8606 9.11728 10.5907 9.60228 10.1115C10.0873 9.63232 10.365 8.98206 10.3759 8.30035C10.3821 7.78603 10.2352 7.28149 9.95394 6.85084C9.67269 6.42018 9.26976 6.08287 8.79635 5.88176C8.32294 5.68064 7.80043 5.62481 7.29521 5.72136C6.79 5.8179 6.32489 6.06247 5.959 6.42397C5.5931 6.78547 5.34294 7.2476 5.2403 7.75161C5.13766 8.25562 5.18718 8.77877 5.38257 9.25457C5.57795 9.73038 5.91038 10.1374 6.3376 10.4238ZM15.6759 10.4238C16.1031 10.7102 16.6059 10.8632 17.1202 10.8632C17.802 10.8606 18.4556 10.5907 18.9406 10.1115C19.4256 9.63232 19.7033 8.98206 19.7142 8.30035C19.7204 7.78603 19.5735 7.28149 19.2922 6.85084C19.011 6.42018 18.6081 6.08287 18.1347 5.88176C17.6612 5.68064 17.1387 5.62481 16.6335 5.72136C16.1283 5.8179 15.6632 6.06247 15.2973 6.42397C14.9314 6.78547 14.6812 7.2476 14.5786 7.75161C14.476 8.25562 14.5255 8.77877 14.7209 9.25457C14.9163 9.73038 15.2487 10.1374 15.6759 10.4238ZM25.0142 10.4238C25.4414 10.7102 25.9442 10.8632 26.4585 10.8632C27.1403 10.8606 27.7939 10.5907 28.2789 10.1115C28.7639 9.63232 29.0416 8.98206 29.0525 8.30035C29.0587 7.78603 28.9118 7.28149 28.6306 6.85084C28.3493 6.42018 27.9464 6.08287 27.473 5.88176C26.9995 5.68064 26.477 5.62481 25.9718 5.72136C25.4666 5.8179 25.0015 6.06247 24.6356 6.42397C24.2697 6.78547 24.0196 7.2476 23.9169 7.75161C23.8143 8.25562 23.8638 8.77877 24.0592 9.25457C24.2546 9.73038 24.587 10.1374 25.0142 10.4238ZM1.21561 45.9631C0.437269 45.1848 0 44.1291 0 43.0284V18.7799H49.8043V43.0284C49.8043 44.1291 49.367 45.1848 48.5887 45.9631C47.8103 46.7415 46.7547 47.1787 45.6539 47.1787H4.15036C3.04961 47.1787 1.99395 46.7415 1.21561 45.9631Z" fill="#3A77DC"/>
</svg>
