<svg width="50" height="46" viewBox="0 0 50 46" fill="none" xmlns="http://www.w3.org/2000/svg">
<path d="M0 41.9111C0 42.9956 0.438984 44.0356 1.22039 44.8024C2.00179 45.5692 3.0616 46 4.16667 46H45.8333C46.9384 46 47.9982 45.5692 48.7796 44.8024C49.561 44.0356 50 42.9956 50 41.9111V18.0218H0V41.9111ZM19.8958 24.3391C20.1629 24.3401 20.4276 24.3885 20.6771 24.4822C21.1458 24.656 32.5833 29.4502 32.5833 29.4502L29.5625 32.4249L32.5833 35.3893C32.8207 35.6222 33.0089 35.8987 33.1374 36.203C33.2658 36.5074 33.3319 36.8335 33.3319 37.1629C33.3319 37.4923 33.2658 37.8184 33.1374 38.1227C33.0089 38.427 32.8207 38.7035 32.5833 38.9364C32.346 39.1694 32.0642 39.3541 31.7541 39.4802C31.444 39.6062 31.1117 39.6711 30.776 39.6711C30.4404 39.6711 30.108 39.6062 29.7979 39.4802C29.4878 39.3541 29.2061 39.1694 28.9687 38.9364L25.9375 35.9618L22.9167 38.9364C22.9167 38.9364 18.0312 27.692 17.8542 27.2422C17.7587 26.9974 17.7093 26.7377 17.7083 26.4756C17.7083 26.1941 17.765 25.9155 17.8751 25.6556C17.9851 25.3957 18.1464 25.1598 18.3497 24.9612C18.5529 24.7627 18.7942 24.6056 19.0595 24.4988C19.3248 24.392 19.6091 24.3378 19.8958 24.3391ZM45.8333 0H4.16667C3.0616 0 2.00179 0.430793 1.22039 1.19761C0.438984 1.96442 0 3.00445 0 4.08889V12.9107H50V4.08889C50 3.00445 49.561 1.96442 48.7796 1.19761C47.9982 0.430793 46.9384 0 45.8333 0ZM7.8125 10.2222C7.29744 10.2222 6.79395 10.0723 6.3657 9.79153C5.93744 9.51073 5.60367 9.1116 5.40657 8.64464C5.20947 8.17767 5.15789 7.66383 5.25837 7.1681C5.35885 6.67237 5.60688 6.21702 5.97108 5.85962C6.33528 5.50222 6.79929 5.25882 7.30445 5.16022C7.8096 5.06161 8.33322 5.11222 8.80907 5.30564C9.28492 5.49907 9.69164 5.82662 9.97779 6.24688C10.2639 6.66714 10.4167 7.16123 10.4167 7.66667C10.4167 8.34444 10.1423 8.99446 9.65392 9.47372C9.16554 9.95298 8.50317 10.2222 7.8125 10.2222ZM17.1875 10.2222C16.6724 10.2222 16.1689 10.0723 15.7407 9.79153C15.3124 9.51073 14.9787 9.1116 14.7816 8.64464C14.5845 8.17767 14.5329 7.66383 14.6334 7.1681C14.7339 6.67237 14.9819 6.21702 15.3461 5.85962C15.7103 5.50222 16.1743 5.25882 16.6794 5.16022C17.1846 5.06161 17.7082 5.11222 18.1841 5.30564C18.6599 5.49907 19.0666 5.82662 19.3528 6.24688C19.6389 6.66714 19.7917 7.16123 19.7917 7.66667C19.7917 8.34444 19.5173 8.99446 19.0289 9.47372C18.5405 9.95298 17.8782 10.2222 17.1875 10.2222ZM26.5625 10.2222C26.0474 10.2222 25.5439 10.0723 25.1157 9.79153C24.6874 9.51073 24.3537 9.1116 24.1566 8.64464C23.9595 8.17767 23.9079 7.66383 24.0084 7.1681C24.1089 6.67237 24.3569 6.21702 24.7211 5.85962C25.0853 5.50222 25.5493 5.25882 26.0544 5.16022C26.5596 5.06161 27.0832 5.11222 27.5591 5.30564C28.0349 5.49907 28.4416 5.82662 28.7278 6.24688C29.0139 6.66714 29.1667 7.16123 29.1667 7.66667C29.1667 8.34444 28.8923 8.99446 28.4039 9.47372C27.9155 9.95298 27.2532 10.2222 26.5625 10.2222Z" fill="#3A77DC"/>
</svg>
