<svg width="50" height="53" viewBox="0 0 50 53" fill="none" xmlns="http://www.w3.org/2000/svg">
<path d="M45.6539 0H4.15036C3.04961 0 1.99395 0.437269 1.21561 1.21561C0.437265 1.99395 0 3.04961 0 4.15036V13.1048H49.8043V4.15036C49.8043 3.04961 49.367 1.99395 48.5887 1.21561C47.8103 0.437269 46.7547 0 45.6539 0ZM7.78192 10.3759C7.26888 10.3759 6.76736 10.2238 6.34078 9.93873C5.9142 9.6537 5.58174 9.24858 5.38541 8.77459C5.18908 8.3006 5.1377 7.77904 5.23779 7.27586C5.33788 6.77268 5.58494 6.31048 5.94771 5.9477C6.31048 5.58493 6.77267 5.33788 7.27586 5.23779C7.77904 5.1377 8.30061 5.18907 8.77459 5.3854C9.24858 5.58173 9.6537 5.91421 9.93873 6.34079C10.2238 6.76736 10.3759 7.26888 10.3759 7.78192C10.3759 8.46988 10.1026 9.12967 9.61613 9.61614C9.12967 10.1026 8.46988 10.3759 7.78192 10.3759ZM17.1202 10.3759C16.6072 10.3759 16.1057 10.2238 15.6791 9.93873C15.2525 9.6537 14.92 9.24858 14.7237 8.77459C14.5274 8.3006 14.476 7.77904 14.5761 7.27586C14.6762 6.77268 14.9232 6.31048 15.286 5.9477C15.6488 5.58493 16.111 5.33788 16.6142 5.23779C17.1173 5.1377 17.6389 5.18907 18.1129 5.3854C18.5869 5.58173 18.992 5.91421 19.277 6.34079C19.5621 6.76736 19.7142 7.26888 19.7142 7.78192C19.7142 8.46988 19.4409 9.12967 18.9544 9.61614C18.468 10.1026 17.8082 10.3759 17.1202 10.3759ZM26.4585 10.3759C25.9455 10.3759 25.444 10.2238 25.0174 9.93873C24.5908 9.6537 24.2584 9.24858 24.062 8.77459C23.8657 8.3006 23.8143 7.77904 23.9144 7.27586C24.0145 6.77268 24.2615 6.31048 24.6243 5.9477C24.9871 5.58493 25.4493 5.33788 25.9525 5.23779C26.4556 5.1377 26.9772 5.18907 27.4512 5.3854C27.9252 5.58173 28.3303 5.91421 28.6153 6.34079C28.9004 6.76736 29.0525 7.26888 29.0525 7.78192C29.0525 8.46988 28.7792 9.12967 28.2927 9.61614C27.8063 10.1026 27.1465 10.3759 26.4585 10.3759Z" fill="#3A77DC"/>
<path d="M0 42.5412C0 43.6419 0.437265 44.6976 1.21561 45.4759C1.99395 46.2543 3.04961 46.6915 4.15036 46.6915H13.1359C13.4258 45.2665 14.1087 43.9511 15.1073 42.894L13.1255 32.8086H11.3616C10.7114 32.87 10.0556 32.7949 9.43618 32.5881C8.81672 32.3814 8.24728 32.0476 7.7643 31.608C7.28132 31.1685 6.89545 30.6329 6.63141 30.0356C6.36738 29.4383 6.231 28.7925 6.231 28.1395C6.231 27.4864 6.36738 26.8406 6.63141 26.2433C6.89545 25.646 7.28132 25.1104 7.7643 24.6709C8.24728 24.2313 8.81672 23.8975 9.43618 23.6908C10.0556 23.484 10.7114 23.4089 11.3616 23.4703H16.7156C17.7085 23.4723 18.6785 23.7693 19.5024 24.3235C20.3263 24.8777 20.967 25.6641 21.3432 26.5831H38.7643C39.922 26.5858 41.0315 27.0469 41.8501 27.8655C42.6687 28.6841 43.1299 29.7936 43.1326 30.9513C43.1238 31.6047 42.9752 32.2486 42.6968 32.8397C42.1573 34.0848 39.418 40.3311 39.2416 40.6943C38.9986 41.2239 38.6768 41.7137 38.287 42.1469C39.719 43.2899 40.7063 44.8975 41.0782 46.6915H45.6539C46.7547 46.6915 47.8103 46.2543 48.5887 45.4759C49.367 44.6976 49.8043 43.6419 49.8043 42.5412V18.2927H0V42.5412Z" fill="#3A77DC"/>
<path d="M33.4102 43.579H23.0343C22.7013 43.579 22.382 43.4467 22.1466 43.2112C21.9111 42.9758 21.7788 42.6565 21.7788 42.3235C21.7788 41.9905 21.9111 41.6712 22.1466 41.4357C22.382 41.2003 22.7013 41.068 23.0343 41.068H33.8668C34.4039 41.0649 34.929 40.9091 35.3809 40.6188C35.8329 40.3285 36.193 39.9158 36.4192 39.4286L39.8536 31.6156C39.951 31.4179 40.0074 31.2026 40.0197 30.9826C40.0197 30.6497 39.8874 30.3303 39.6519 30.0949C39.4165 29.8594 39.0971 29.7271 38.7642 29.7271H19.05L18.5623 28.0151C18.4675 27.5928 18.2343 27.2143 17.8996 26.9398C17.5649 26.6653 17.1481 26.5106 16.7154 26.5002H11.3614C11.1358 26.4633 10.9047 26.4758 10.6844 26.537C10.464 26.5982 10.2596 26.7066 10.0854 26.8546C9.91107 27.0027 9.77107 27.1869 9.67505 27.3944C9.57903 27.602 9.5293 27.8279 9.5293 28.0566C9.5293 28.2853 9.57903 28.5113 9.67505 28.7188C9.77107 28.9264 9.91107 29.1106 10.0854 29.2586C10.2596 29.4067 10.464 29.515 10.6844 29.5762C10.9047 29.6374 11.1358 29.65 11.3614 29.613H14.661C14.9266 29.6121 15.1857 29.6948 15.4017 29.8494C15.6177 30.0039 15.7797 30.2225 15.8646 30.4742L18.5208 44.0563C17.7944 44.4599 17.1874 45.0481 16.7612 45.7615C16.335 46.4748 16.1046 47.288 16.0933 48.119C16.0821 48.9499 16.2903 49.7691 16.6971 50.4937C17.1038 51.2184 17.6946 51.8228 18.4098 52.246C19.1249 52.6692 19.9392 52.8961 20.7701 52.9038C21.6011 52.9115 22.4193 52.6997 23.1422 52.2899C23.8651 51.8801 24.4671 51.2867 24.8872 50.5697C25.3073 49.8528 25.5307 49.0376 25.5349 48.2066C25.5375 47.6692 25.4462 47.1355 25.2651 46.6295H28.9486C28.7675 47.1355 28.6763 47.6692 28.6788 48.2066C28.6623 49.1408 28.924 50.0587 29.4306 50.8438C29.9372 51.6288 30.6658 52.2455 31.5238 52.6153C32.3817 52.9852 33.3303 53.0916 34.2489 52.921C35.1675 52.7504 36.0146 52.3105 36.6825 51.6572C37.3505 51.0039 37.809 50.1668 38 49.2522C38.1909 48.3376 38.1056 47.3869 37.7548 46.521C37.404 45.655 36.8036 44.913 36.03 44.3891C35.2564 43.8652 34.3445 43.5832 33.4102 43.579ZM20.8035 49.8875C20.4916 49.8875 20.1867 49.795 19.9273 49.6217C19.6679 49.4484 19.4658 49.2021 19.3464 48.9139C19.227 48.6257 19.1958 48.3086 19.2567 48.0027C19.3175 47.6968 19.4677 47.4157 19.6883 47.1952C19.9089 46.9746 20.1899 46.8244 20.4958 46.7635C20.8018 46.7027 21.1189 46.7339 21.407 46.8533C21.6952 46.9727 21.9415 47.1748 22.1148 47.4342C22.2881 47.6935 22.3806 47.9984 22.3806 48.3104C22.3725 48.7232 22.2027 49.1164 21.9078 49.4055C21.613 49.6946 21.2164 49.8565 20.8035 49.8564V49.8875ZM33.4102 49.8875C33.0978 49.8896 32.7919 49.7988 32.5312 49.6268C32.2705 49.4547 32.0667 49.2091 31.9457 48.9211C31.8248 48.6331 31.7921 48.3157 31.8518 48.0091C31.9114 47.7025 32.0608 47.4205 32.281 47.1989C32.5011 46.9773 32.7821 46.826 33.0883 46.7643C33.3945 46.7026 33.7122 46.7333 34.001 46.8523C34.2898 46.9714 34.5367 47.1735 34.7104 47.4331C34.8842 47.6927 34.977 47.998 34.977 48.3104C34.9663 48.7206 34.7971 49.1108 34.505 49.399C34.2129 49.6872 33.8205 49.8512 33.4102 49.8564V49.8875Z" fill="#3A77DC"/>
</svg>
