<svg width="50" height="53" viewBox="0 0 50 53" fill="none" xmlns="http://www.w3.org/2000/svg">
<path d="M45.6539 0H4.15036C3.04961 0 1.99396 0.437269 1.21561 1.21561C0.437269 1.99395 0 3.04961 0 4.15036V13.1048H49.8043V4.15036C49.8043 3.04961 49.367 1.99395 48.5887 1.21561C47.8103 0.437269 46.7547 0 45.6539 0ZM7.78192 10.3759C7.26888 10.3759 6.76736 10.2238 6.34079 9.93873C5.91421 9.6537 5.58173 9.24858 5.3854 8.77459C5.18907 8.3006 5.1377 7.77904 5.23779 7.27586C5.33788 6.77268 5.58493 6.31048 5.9477 5.9477C6.31048 5.58493 6.77268 5.33788 7.27586 5.23779C7.77904 5.1377 8.30061 5.18907 8.77459 5.3854C9.24858 5.58173 9.6537 5.91421 9.93873 6.34079C10.2238 6.76736 10.3759 7.26888 10.3759 7.78192C10.3759 8.46988 10.1026 9.12967 9.61614 9.61614C9.12967 10.1026 8.46988 10.3759 7.78192 10.3759ZM17.1202 10.3759C16.6072 10.3759 16.1057 10.2238 15.6791 9.93873C15.2525 9.6537 14.92 9.24858 14.7237 8.77459C14.5274 8.3006 14.476 7.77904 14.5761 7.27586C14.6762 6.77268 14.9232 6.31048 15.286 5.9477C15.6488 5.58493 16.111 5.33788 16.6142 5.23779C17.1173 5.1377 17.6389 5.18907 18.1129 5.3854C18.5869 5.58173 18.992 5.91421 19.277 6.34079C19.5621 6.76736 19.7142 7.26888 19.7142 7.78192C19.7142 8.46988 19.4409 9.12967 18.9544 9.61614C18.468 10.1026 17.8082 10.3759 17.1202 10.3759ZM26.4585 10.3759C25.9455 10.3759 25.444 10.2238 25.0174 9.93873C24.5908 9.6537 24.2583 9.24858 24.062 8.77459C23.8657 8.3006 23.8143 7.77904 23.9144 7.27586C24.0145 6.77268 24.2615 6.31048 24.6243 5.9477C24.9871 5.58493 25.4493 5.33788 25.9525 5.23779C26.4557 5.1377 26.9772 5.18907 27.4512 5.3854C27.9252 5.58173 28.3303 5.91421 28.6153 6.34079C28.9004 6.76736 29.0525 7.26888 29.0525 7.78192C29.0525 8.46988 28.7792 9.12967 28.2927 9.61614C27.8063 10.1026 27.1465 10.3759 26.4585 10.3759Z" fill="#3A77DC"/>
<path d="M0 42.5412C0 43.6419 0.437269 44.6976 1.21561 45.4759C1.99396 46.2543 3.04961 46.6915 4.15036 46.6915H7.00373C6.87098 46.215 6.80122 45.7232 6.79621 45.2285V29.26C6.79896 27.7566 7.39814 26.3156 8.46222 25.2535C9.52631 24.1913 10.9684 23.5948 12.4718 23.5948H37.374C38.8766 23.5975 40.3171 24.195 41.3806 25.2565C42.444 26.3181 43.0441 27.7574 43.0496 29.26V45.2285C43.0446 45.7232 42.9748 46.215 42.8421 46.6915H45.6747C46.7754 46.6915 47.8311 46.2543 48.6094 45.4759C49.3878 44.6976 49.825 43.6419 49.825 42.5412V18.2927H0.0207523L0 42.5412Z" fill="#3A77DC"/>
<path d="M37.3527 26.7075H12.4505C11.7726 26.7075 11.1223 26.9761 10.642 27.4545C10.1617 27.9329 9.89044 28.5821 9.8877 29.26V45.2285C9.88811 45.7527 10.0513 46.2639 10.3546 46.6915C10.5951 47.0149 10.9082 47.2772 11.2686 47.4574C11.6291 47.6377 12.0268 47.7307 12.4298 47.7291H16.2585V51.6719C16.2585 52.0104 16.393 52.335 16.6323 52.5744C16.8716 52.8137 17.1963 52.9482 17.5347 52.9482C17.705 52.9494 17.8738 52.916 18.0307 52.8501C18.1877 52.7841 18.3296 52.6868 18.4478 52.5642L23.283 47.7291H37.3527C37.7557 47.7307 38.1534 47.6377 38.5139 47.4574C38.8743 47.2772 39.1874 47.0149 39.4279 46.6915C39.7312 46.2639 39.8944 45.7527 39.8948 45.2285V29.26C39.8921 28.5857 39.6237 27.9396 39.1478 27.4618C38.672 26.984 38.027 26.713 37.3527 26.7075ZM19.1534 39.4802C18.8373 39.4802 18.5284 39.3865 18.2656 39.211C18.0029 39.0354 17.7981 38.7858 17.6771 38.4938C17.5562 38.2019 17.5245 37.8806 17.5862 37.5706C17.6478 37.2607 17.8 36.9759 18.0235 36.7525C18.247 36.529 18.5317 36.3768 18.8416 36.3152C19.1516 36.2535 19.4729 36.2852 19.7649 36.4061C20.0568 36.527 20.3064 36.7318 20.482 36.9946C20.6575 37.2574 20.7513 37.5663 20.7513 37.8824C20.7513 38.3061 20.5829 38.7126 20.2832 39.0122C19.9836 39.3119 19.5772 39.4802 19.1534 39.4802ZM24.9016 39.4802C24.5856 39.4802 24.2767 39.3865 24.0139 39.211C23.7511 39.0354 23.5463 38.7858 23.4254 38.4938C23.3044 38.2019 23.2728 37.8806 23.3344 37.5706C23.3961 37.2607 23.5483 36.9759 23.7717 36.7525C23.9952 36.529 24.2799 36.3768 24.5899 36.3152C24.8998 36.2535 25.2211 36.2852 25.5131 36.4061C25.8051 36.527 26.0546 36.7318 26.2302 36.9946C26.4058 37.2574 26.4995 37.5663 26.4995 37.8824C26.4995 38.0922 26.4582 38.3 26.3779 38.4938C26.2976 38.6877 26.1799 38.8639 26.0315 39.0122C25.8831 39.1606 25.707 39.2783 25.5131 39.3586C25.3192 39.4389 25.1115 39.4802 24.9016 39.4802ZM30.6499 39.4802C30.3338 39.4802 30.0249 39.3865 29.7621 39.211C29.4994 39.0354 29.2945 38.7858 29.1736 38.4938C29.0527 38.2019 29.021 37.8806 29.0827 37.5706C29.1443 37.2607 29.2965 36.9759 29.52 36.7525C29.7435 36.529 30.0282 36.3768 30.3381 36.3152C30.6481 36.2535 30.9694 36.2852 31.2613 36.4061C31.5533 36.527 31.8029 36.7318 31.9785 36.9946C32.154 37.2574 32.2478 37.5663 32.2478 37.8824C32.2478 38.3061 32.0794 38.7126 31.7797 39.0122C31.4801 39.3119 31.0736 39.4802 30.6499 39.4802Z" fill="#3A77DC"/>
</svg>
