<svg width="65" height="65" viewBox="0 0 65 65" fill="none" xmlns="http://www.w3.org/2000/svg">
<path d="M34.2935 52.4171C31.043 53.4021 27.5955 51.4321 26.6105 48.1816C25.6255 44.9311 27.5955 41.4836 30.846 40.4986C31.237 40.3683 31.6472 40.2954 32.0682 40.2716C32.8165 40.2293 33.4551 39.5408 33.2478 38.8205L32.1084 34.8626C31.9553 34.3309 31.3995 34.0246 30.8682 34.179L23.36 36.3617C22.9854 36.4553 22.6107 36.3708 22.3207 36.0235C22.2904 35.9872 22.2589 35.9516 22.2287 35.9151C21.9817 35.6162 21.9923 35.1571 22.1781 34.7857C22.769 33.8007 22.966 32.6187 22.572 31.4367C21.8826 29.1712 19.6171 27.8907 17.3516 28.5802C16.2681 28.8757 15.3816 29.5652 14.8891 30.5502C14.2981 31.5352 14.1996 32.6187 14.4951 33.7022C14.7906 34.7857 15.5786 35.7707 16.5636 36.2632C16.9576 36.4602 17.1546 36.8542 17.1546 37.2482C17.1546 37.6421 16.8591 38.0361 16.4651 38.1346L8.95054 40.3191C8.42171 40.4728 8.11672 41.0252 8.26832 41.5546L14.3966 62.9565C14.4951 63.3505 14.7906 63.646 15.0861 63.843C15.4801 64.04 15.8741 64.04 16.2681 63.9415L37.6647 57.8147C38.1962 57.6625 38.5034 57.108 38.3504 56.5767L37.1864 52.5332C36.985 51.8336 36.1216 51.5787 35.481 51.9246C35.1173 52.1209 34.7242 52.2878 34.2935 52.4171Z" fill="#0C5ADB" stroke="white"/>
<path d="M12.6233 34.2929C12.1308 32.7169 12.3278 31.0424 13.1158 29.5649C13.9038 28.0874 15.2828 27.1024 16.8588 26.6099C20.1093 25.6249 23.6552 27.5949 24.5417 30.8454C24.6728 31.2387 24.7458 31.6514 24.7691 32.0749C24.8104 32.8215 25.4951 33.4594 26.2146 33.2554L30.2713 32.105C30.8051 31.9536 31.1136 31.3966 30.9587 30.8638L28.7772 23.3594C28.6835 22.9848 28.768 22.6101 29.1154 22.3201C29.1517 22.2898 29.1873 22.2583 29.2238 22.2281C29.5227 21.9811 29.9817 21.9917 30.3532 22.1775C31.3382 22.7684 32.5202 22.9654 33.6037 22.5715C34.6872 22.276 35.5737 21.5865 36.0662 20.6015C36.5587 19.6165 36.7557 18.533 36.4602 17.4495C35.7707 15.184 33.5052 13.9035 31.2397 14.593C30.1562 14.8885 29.1712 15.6765 28.6787 16.6615C28.4817 17.0555 28.0877 17.2525 27.6937 17.2525C27.2997 17.2525 26.9057 16.957 26.8072 16.563L24.6231 9.04956C24.4692 8.5203 23.9161 8.21531 23.3864 8.36766L2.08387 14.4945C1.68988 14.593 1.39438 14.8885 1.19738 15.184C1.00038 15.578 1.00038 15.972 1.09888 16.366L7.22567 37.7626C7.37785 38.2941 7.93241 38.6013 8.46368 38.4483L12.609 37.255C13.2818 37.0613 13.5525 36.2511 13.2165 35.6369C12.9762 35.1976 12.7741 34.7452 12.6233 34.2929Z" fill="#0C5ADB" stroke="white"/>
<path d="M30.7471 12.6229C33.9975 11.6379 37.445 13.6079 38.43 16.8584C38.9225 18.4344 38.7255 20.1089 37.9375 21.5864C37.1495 23.0639 35.7705 24.0489 34.1945 24.5414C33.8012 24.6725 33.3885 24.7454 32.9651 24.7688C32.2184 24.81 31.5805 25.4948 31.7845 26.2142L32.9349 30.2709C33.0863 30.8047 33.6433 31.1132 34.1761 30.9583L41.6805 28.7768C42.0552 28.6832 42.4299 28.7676 42.7198 29.115C42.7502 29.1513 42.7817 29.1869 42.8118 29.2234C43.0588 29.5223 43.0482 29.9814 42.8625 30.3528C42.2715 31.3378 42.0745 32.5198 42.4685 33.6033C42.764 34.6868 43.4535 35.5733 44.4385 36.0658C45.4235 36.5583 46.507 36.7553 47.5905 36.4598C49.8559 35.7703 51.1364 33.5048 50.4469 31.2393C50.1514 30.1558 49.3634 29.1708 48.3784 28.6783C47.9845 28.4813 47.7875 28.0873 47.7875 27.6933C47.7875 27.2993 48.083 26.9053 48.4769 26.8068L55.9904 24.6227C56.5196 24.4688 56.8246 23.9157 56.6723 23.386L50.5454 2.08349C50.3484 1.394 49.7574 1 49.1664 1C49.1261 1 49.0693 1 49.0095 1.00676C48.8408 1.02582 48.6868 1.12302 48.5236 1.16975L27.3758 7.22529C26.8443 7.37747 26.5372 7.93203 26.6901 8.4633L27.8541 12.5067C28.0555 13.2063 28.9284 13.4745 29.5705 13.1314C29.9508 12.9281 30.3489 12.7556 30.7471 12.6229Z" fill="#0C5ADB" stroke="white"/>
<path d="M63.9414 48.772L57.8146 27.3753C57.6624 26.8438 57.1078 26.5367 56.5766 26.6896L52.6674 27.815C51.9355 28.0257 51.6843 28.9729 52.0246 29.6542C52.2018 30.0089 52.335 30.3777 52.4169 30.7466C53.4019 34.0956 51.4319 37.543 48.1815 38.4295C47.5905 38.6265 46.9995 38.6265 46.4085 38.6265C45.325 38.6265 44.34 38.331 43.4535 37.8385C41.976 37.0505 40.991 35.6715 40.4985 34.0955C40.3674 33.7022 40.2945 33.2896 40.2711 32.8661C40.2299 32.1194 39.5451 31.4815 38.8257 31.6855L34.7689 32.8359C34.2351 32.9873 33.9266 33.5443 34.0815 34.0771L36.263 41.5815C36.3567 41.9562 36.2722 42.3309 35.9249 42.6208C35.8885 42.6512 35.8529 42.6827 35.8165 42.7128C35.5175 42.9599 35.0585 42.9492 34.687 42.7635C33.702 42.1725 32.52 41.9755 31.3381 42.3695C29.0726 43.059 27.7921 45.3245 28.4816 47.59C28.7771 48.6735 29.4666 49.56 30.4516 50.0525C31.4366 50.5449 32.52 50.7419 33.6035 50.4464C34.687 50.151 35.672 49.363 36.1645 48.378C36.3615 47.984 36.7555 47.787 37.1495 47.787C37.5435 47.787 37.9375 48.0825 38.036 48.4765L40.2205 55.991C40.3742 56.5198 40.9266 56.8248 41.456 56.6732L62.8579 50.5449C63.2519 50.4464 63.5474 50.1509 63.7444 49.8555C64.0399 49.4615 64.0399 49.0675 63.9414 48.772Z" fill="#0C5ADB" stroke="white"/>
</svg>
