<svg width="55" height="55" viewBox="0 0 55 55" fill="none" xmlns="http://www.w3.org/2000/svg">
<path fill-rule="evenodd" clip-rule="evenodd" d="M0 50.4167C0 51.6322 0.482886 52.798 1.34243 53.6576C2.20197 54.5171 3.36776 55 4.58333 55H19.4792C20.6947 55 21.8605 54.5171 22.7201 53.6576C23.5796 52.798 24.0625 51.6322 24.0625 50.4167V32.0833H30.9375V50.4167C30.9375 51.6322 31.4204 52.798 32.2799 53.6576C33.1395 54.5171 34.3053 55 35.5208 55H50.4167C51.6322 55 52.798 54.5171 53.6576 53.6576C54.5171 52.798 55 51.6322 55 50.4167V20.625C55 19.4094 54.5171 18.2436 53.6576 17.3841C52.798 16.5246 51.6322 16.0417 50.4167 16.0417H48.125V5.72917H48.6979C49.4577 5.72917 50.1863 5.42736 50.7235 4.89015C51.2607 4.35294 51.5625 3.62432 51.5625 2.86458C51.5625 2.10485 51.2607 1.37623 50.7235 0.839017C50.1863 0.301803 49.4577 0 48.6979 0L33.8021 0C33.0424 0 32.3137 0.301803 31.7765 0.839017C31.2393 1.37623 30.9375 2.10485 30.9375 2.86458C30.9375 3.62432 31.2393 4.35294 31.7765 4.89015C32.3137 5.42736 33.0424 5.72917 33.8021 5.72917H34.375V16.0417H20.625V5.72917H21.1979C21.9577 5.72917 22.6863 5.42736 23.2235 4.89015C23.7607 4.35294 24.0625 3.62432 24.0625 2.86458C24.0625 2.10485 23.7607 1.37623 23.2235 0.839017C22.6863 0.301803 21.9577 0 21.1979 0L6.30208 0C5.54235 0 4.81373 0.301803 4.27652 0.839017C3.7393 1.37623 3.4375 2.10485 3.4375 2.86458C3.4375 3.62432 3.7393 4.35294 4.27652 4.89015C4.81373 5.42736 5.54235 5.72917 6.30208 5.72917H6.875V16.0417H4.58333C3.36776 16.0417 2.20197 16.5246 1.34243 17.3841C0.482886 18.2436 0 19.4094 0 20.625L0 50.4167ZM29.7917 26.3542H25.2083C24.6005 26.3542 24.0177 26.1127 23.5879 25.683C23.1581 25.2532 22.9167 24.6703 22.9167 24.0625C22.9167 23.4547 23.1581 22.8718 23.5879 22.442C24.0177 22.0123 24.6005 21.7708 25.2083 21.7708H29.7917C30.3995 21.7708 30.9823 22.0123 31.4121 22.442C31.8419 22.8718 32.0833 23.4547 32.0833 24.0625C32.0833 24.6703 31.8419 25.2532 31.4121 25.683C30.9823 26.1127 30.3995 26.3542 29.7917 26.3542Z" fill="#0C5ADB"/>
</svg>
