<svg width="55" height="55" viewBox="0 0 55 55" fill="none" xmlns="http://www.w3.org/2000/svg">
<path fill-rule="evenodd" clip-rule="evenodd" d="M27.5002 3.38184e-08C22.0619 -0.000269609 16.7456 1.61192 12.2235 4.63274C7.70135 7.65356 4.17641 11.9474 2.09432 16.9713C0.0119639 21.9972 -0.532916 27.5278 0.528615 32.8634C1.59015 38.199 4.21039 43.0999 8.05785 46.9461C11.9041 50.7921 16.8045 53.4111 22.1393 54.4719C27.4741 55.5327 33.0037 54.9877 38.0287 52.9057C43.0526 50.8236 47.3465 47.2987 50.3673 42.7765C53.3881 38.2544 55.0003 32.9381 55 27.4998H27.5002V3.38184e-08ZM31.6605 3.38184e-08L31.4288 23.5713H55C55.0003 17.3597 52.5488 11.3991 48.1783 6.98528C43.8078 2.57141 37.8718 0.0610801 31.6605 3.38184e-08Z" fill="#0C5ADB"/>
</svg>
