<svg width="62" height="55" viewBox="0 0 62 55" fill="none" xmlns="http://www.w3.org/2000/svg">
<path d="M56.0377 0H5.18868C3.81256 0 2.4928 0.546663 1.51973 1.51973C0.546663 2.4928 0 3.81256 0 5.18868C0 6.5648 0.546663 7.88456 1.51973 8.85763C2.4928 9.8307 3.81256 10.3774 5.18868 10.3774H56.0377C57.4139 10.3774 58.7336 9.8307 59.7067 8.85763C60.6798 7.88456 61.2264 6.5648 61.2264 5.18868C61.2264 3.81256 60.6798 2.4928 59.7067 1.51973C58.7336 0.546663 57.4139 0 56.0377 0Z" fill="#0C5ADB"/>
<path d="M42.5468 40.4715C44.2662 40.4715 45.66 39.0777 45.66 37.3583C45.66 35.6389 44.2662 34.2451 42.5468 34.2451C40.8274 34.2451 39.4336 35.6389 39.4336 37.3583C39.4336 39.0777 40.8274 40.4715 42.5468 40.4715Z" fill="#0C5ADB"/>
<path d="M52.5095 46.4179C53.8299 46.0208 54.9871 45.2087 55.8096 44.1021C56.632 42.9955 57.076 41.6533 57.0756 40.2745V16.5415C57.0756 16.0076 56.8634 15.4955 56.4859 15.118C56.1083 14.7404 55.5963 14.5283 55.0624 14.5283H5.12649C4.59255 14.5283 4.08049 14.7404 3.70294 15.118C3.32539 15.4955 3.11328 16.0076 3.11328 16.5415V40.2745C3.11328 41.9782 3.79005 43.6121 4.99471 44.8167C6.19936 46.0214 7.83323 46.6981 9.53687 46.6981H32.4397C33.4733 44.7353 35.0563 43.1162 36.9954 42.0387C36.1026 40.9806 35.5307 39.6894 35.3472 38.3171C35.1637 36.9449 35.3761 35.5488 35.9595 34.2932C36.5429 33.0377 37.4729 31.975 38.64 31.2304C39.8072 30.4857 41.1628 30.0901 42.5473 30.0901C43.9317 30.0901 45.2873 30.4857 46.4545 31.2304C47.6216 31.975 48.5516 33.0377 49.135 34.2932C49.7184 35.5488 49.9308 36.9449 49.7473 38.3171C49.5638 39.6894 48.9919 40.9806 48.0991 42.0387C49.9392 43.0714 51.4638 44.5852 52.5095 46.4179ZM42.9001 22.301L30.5199 34.6708C30.131 35.0573 29.605 35.2743 29.0567 35.2743C28.5084 35.2743 27.9823 35.0573 27.5935 34.6708L21.7925 28.8802L13.9161 36.7462C13.7141 36.9482 13.4726 37.1062 13.2068 37.2105C12.9409 37.3148 12.6563 37.3631 12.3709 37.3524C12.0855 37.3417 11.8054 37.2722 11.5481 37.1483C11.2908 37.0243 11.0618 36.8486 10.8755 36.6321C10.541 36.2093 10.3768 35.6767 10.4153 35.139C10.4537 34.6013 10.6919 34.0974 11.0831 33.7264L20.3293 24.4802C20.7182 24.0936 21.2442 23.8767 21.7925 23.8767C22.3408 23.8767 22.8669 24.0936 23.2557 24.4802L29.0567 30.2708L40.0463 19.2915C40.2589 19.0858 40.5131 18.928 40.7917 18.8285C41.0703 18.729 41.367 18.6903 41.6618 18.7149C41.9566 18.7394 42.2427 18.8268 42.5011 18.971C42.7594 19.1152 42.9839 19.3129 43.1595 19.551C43.4426 19.9681 43.5715 20.4707 43.5242 20.9726C43.4768 21.4745 43.2562 21.9442 42.9001 22.301Z" fill="#0C5ADB"/>
<path d="M35.2823 51.9806C35.2823 51.9806 35.604 55.0004 42.5464 55.0004C49.271 55.0004 49.8106 52.2193 49.8106 51.8872C49.8072 50.9332 49.6159 49.9893 49.2477 49.1093C48.8795 48.2293 48.3416 47.4304 47.6646 46.7582C46.9877 46.0861 46.185 45.5539 45.3023 45.192C44.4197 44.8301 43.4744 44.6456 42.5205 44.649C41.5665 44.6524 40.6226 44.8436 39.7426 45.2118C38.8626 45.5801 38.0637 46.118 37.3915 46.7949C36.0341 48.1621 35.2754 50.0125 35.2823 51.9391V51.9806Z" fill="#0C5ADB"/>
</svg>
